{"glyphs":{"0":{"ha":1100,"x_min":83,"x_max":1031,"o":"m 1031 543 q 999 339 1031 440 q 906 158 967 238 q 756 28 844 78 q 557 -21 668 -21 q 358 28 446 -21 q 210 158 271 78 q 116 339 149 238 q 83 543 83 440 q 114 756 83 650 q 203 946 144 861 q 351 1083 263 1031 q 557 1135 440 1135 q 762 1082 674 1135 q 910 944 850 1029 q 1000 754 969 860 q 1031 543 1031 649 m 806 543 q 794 671 806 601 q 753 800 782 740 q 676 900 724 860 q 557 940 628 940 q 442 899 489 940 q 365 798 394 858 q 322 668 335 738 q 308 543 308 599 q 322 420 308 485 q 366 300 336 356 q 443 208 396 244 q 557 172 490 172 q 671 208 624 172 q 748 299 718 244 q 792 419 778 354 q 806 543 806 485 z "},"1":{"ha":589,"x_min":56,"x_max":450,"o":"m 450 0 l 236 0 l 236 871 l 56 801 l 56 983 l 450 1131 l 450 0 z "},"2":{"ha":942,"x_min":56,"x_max":872,"o":"m 872 0 l 56 0 l 483 507 q 534 570 508 538 q 581 638 560 603 q 614 706 601 672 q 626 772 626 740 q 580 889 626 846 q 465 932 533 932 q 326 892 388 932 q 224 790 265 853 l 74 939 q 240 1082 147 1032 q 471 1132 333 1132 q 610 1110 543 1132 q 731 1046 678 1089 q 815 939 783 1003 q 847 792 847 875 q 832 686 847 736 q 791 590 817 636 q 731 498 765 543 q 658 406 696 453 l 500 208 l 872 208 l 872 0 z "},"3":{"ha":1001,"x_min":56,"x_max":918,"o":"m 918 336 q 885 181 918 249 q 798 69 853 114 q 669 1 743 24 q 514 -22 596 -22 q 258 33 371 -22 q 56 199 146 88 l 204 349 q 263 283 229 314 q 335 230 296 253 q 417 194 374 207 q 506 181 461 181 q 577 191 543 181 q 637 222 611 201 q 678 272 663 242 q 694 342 694 301 q 665 423 694 393 q 592 468 636 453 q 499 487 549 483 q 411 490 450 490 l 411 646 q 494 650 449 646 q 580 669 540 654 q 647 713 619 683 q 674 790 674 742 q 660 853 674 826 q 623 897 646 879 q 570 922 600 914 q 507 931 540 931 q 242 789 338 931 l 92 938 q 272 1084 175 1038 q 499 1131 368 1131 q 639 1109 568 1131 q 767 1047 710 1088 q 861 947 825 1007 q 897 810 897 886 q 884 735 897 771 q 849 670 871 700 q 798 616 828 640 q 735 575 768 592 q 806 538 772 561 q 864 483 839 514 q 903 415 889 451 q 918 336 918 378 z "},"4":{"ha":965,"x_min":42,"x_max":924,"o":"m 924 240 l 767 240 l 767 0 l 554 0 l 554 240 l 42 240 l 42 393 l 582 1110 l 767 1110 l 767 425 l 924 425 l 924 240 m 554 425 l 554 794 l 272 426 l 554 425 z "},"5":{"ha":964,"x_min":83,"x_max":908,"o":"m 908 375 q 876 215 908 288 q 788 90 843 142 q 658 8 732 38 q 500 -21 583 -21 q 276 22 381 -21 q 83 171 171 65 l 231 319 q 267 277 246 300 q 317 235 289 254 q 381 202 346 215 q 461 189 417 189 q 552 203 511 189 q 623 243 593 218 q 669 303 653 268 q 686 378 686 338 q 667 457 686 422 q 615 516 647 492 q 539 553 582 540 q 449 565 496 565 q 348 551 394 565 q 253 501 301 538 l 144 613 l 199 1111 l 822 1110 l 822 921 l 367 921 l 342 711 q 422 735 376 728 q 507 743 467 743 q 668 715 594 743 q 795 638 742 688 q 878 522 849 589 q 908 375 908 454 z "},"6":{"ha":1035,"x_min":97,"x_max":951,"o":"m 951 346 q 919 209 951 275 q 833 92 888 143 q 702 10 778 40 q 539 -21 626 -21 q 376 9 456 -21 q 235 106 297 39 q 135 283 172 174 q 97 554 97 393 q 130 790 97 683 q 222 972 163 896 q 365 1089 281 1047 q 553 1131 449 1131 q 758 1088 671 1131 q 922 954 846 1046 l 778 808 q 683 901 739 867 q 558 936 628 936 q 471 915 511 936 q 401 855 431 893 q 354 765 371 817 q 338 656 338 714 q 431 703 375 685 q 538 721 486 721 q 696 693 621 721 q 828 616 771 665 q 918 498 885 567 q 951 346 951 429 m 736 357 q 721 428 736 394 q 678 485 706 461 q 615 524 651 510 q 535 539 578 539 q 455 524 493 539 q 388 485 417 510 q 343 428 360 461 q 326 357 326 394 q 343 286 326 319 q 388 228 360 253 q 455 188 417 203 q 535 174 493 174 q 615 188 578 174 q 678 228 651 203 q 721 286 706 253 q 736 357 736 319 z "},"7":{"ha":821,"x_min":28,"x_max":835,"o":"m 835 1111 l 331 0 l 96 0 l 519 921 l 28 921 l 28 1111 l 835 1111 z "},"8":{"ha":1028,"x_min":97,"x_max":958,"o":"m 958 311 q 922 160 958 224 q 824 57 885 97 q 687 -3 764 17 q 528 -22 610 -22 q 368 -3 446 -22 q 230 57 290 17 q 133 160 169 97 q 97 311 97 224 q 113 394 97 353 q 153 472 128 436 q 213 534 179 507 q 285 575 247 561 q 223 617 251 592 q 173 674 194 642 q 140 742 151 706 q 128 818 128 779 q 165 953 128 894 q 260 1052 201 1013 q 390 1112 318 1092 q 532 1132 463 1132 q 673 1112 603 1132 q 800 1052 743 1092 q 892 953 857 1013 q 928 818 928 894 q 916 742 928 779 q 883 674 904 706 q 833 617 861 642 q 771 575 804 592 q 842 534 808 561 q 902 472 876 507 q 943 394 928 436 q 958 311 958 353 m 706 792 q 692 847 706 821 q 653 892 678 872 q 597 922 629 911 q 528 933 565 933 q 458 922 490 933 q 402 892 426 911 q 364 847 378 872 q 350 792 350 821 q 364 737 350 763 q 402 692 378 711 q 458 661 426 672 q 528 650 490 650 q 597 661 565 650 q 653 692 629 672 q 692 737 678 711 q 706 792 706 763 m 736 336 q 719 398 736 369 q 675 449 703 426 q 609 483 647 471 q 528 496 571 496 q 447 483 485 496 q 381 449 408 471 q 336 398 353 426 q 319 336 319 369 q 336 274 319 303 q 381 222 353 244 q 447 188 408 200 q 528 175 485 175 q 609 188 571 175 q 675 222 647 200 q 719 274 703 244 q 736 336 736 303 z "},"9":{"ha":1007,"x_min":83,"x_max":938,"o":"m 938 556 q 905 320 938 426 q 813 138 872 214 q 670 21 754 63 q 482 -21 586 -21 q 276 22 364 -21 q 113 156 189 64 l 257 301 q 351 208 296 243 q 476 174 407 174 q 564 196 524 174 q 634 256 604 218 q 681 346 664 294 q 697 454 697 397 q 604 407 660 425 q 497 389 549 389 q 339 417 414 389 q 207 494 264 444 q 117 612 150 543 q 83 764 83 681 q 115 901 83 835 q 202 1018 147 967 q 332 1100 257 1069 q 494 1131 407 1131 q 658 1101 578 1131 q 800 1003 738 1071 q 900 826 863 936 q 938 556 938 715 m 708 753 q 692 824 708 790 q 647 882 675 857 q 580 922 618 907 q 500 936 542 936 q 420 922 457 936 q 356 882 383 907 q 314 824 329 857 q 299 753 299 790 q 314 682 299 715 q 356 624 329 649 q 420 585 383 600 q 500 571 457 571 q 580 585 542 571 q 647 624 618 600 q 692 682 675 649 q 708 753 708 715 z "},"\u0000":{"ha":0,"x_min":0,"x_max":0,"o":""},"\r":{"ha":1389,"x_min":0,"x_max":0,"o":""}," ":{"ha":438,"x_min":0,"x_max":0,"o":""},"Ð":{"ha":1154,"x_min":28,"x_max":1099,"o":"m 1099 556 q 1060 340 1099 440 q 951 163 1021 239 q 785 44 882 88 q 575 0 689 0 l 111 0 l 111 467 l 28 467 l 28 653 l 111 653 l 111 1111 l 575 1111 q 785 1067 689 1111 q 951 947 882 1022 q 1060 771 1021 872 q 1099 556 1099 669 m 879 561 q 856 701 879 632 q 786 823 832 769 q 672 909 740 876 q 515 942 604 942 l 326 942 l 326 653 l 507 653 l 507 467 l 326 467 l 326 183 l 515 183 q 669 214 601 183 q 783 297 736 244 q 855 417 831 349 q 879 561 879 486 z "},"ð":{"ha":936,"x_min":56,"x_max":894,"o":"m 894 436 q 859 217 894 304 q 765 76 824 129 q 628 1 706 24 q 467 -21 550 -21 q 304 10 379 -21 q 174 92 229 40 q 88 209 119 143 q 56 346 56 275 q 89 498 56 429 q 179 616 122 567 q 311 693 236 665 q 469 721 386 721 q 597 697 542 721 q 544 783 579 740 q 460 861 508 825 l 304 747 l 222 861 l 331 940 q 254 968 293 957 q 176 982 215 979 l 328 1132 q 506 1068 418 1115 l 642 1168 l 725 1054 l 628 985 q 733 880 683 939 q 817 751 782 821 q 874 603 853 682 q 894 436 894 524 m 681 357 q 664 428 681 394 q 619 485 647 461 q 552 524 590 510 q 472 539 514 539 q 392 524 429 539 q 328 485 356 510 q 286 428 301 461 q 271 357 271 394 q 286 286 271 319 q 328 228 301 253 q 392 188 356 203 q 472 174 429 174 q 552 188 514 174 q 619 228 590 203 q 664 286 647 253 q 681 357 681 319 z "},"Ł":{"ha":876,"x_min":28,"x_max":863,"o":"m 863 0 l 111 0 l 111 410 l 28 369 l 28 556 l 111 596 l 111 1110 l 331 1110 l 331 700 l 493 778 l 493 592 l 331 514 l 331 208 l 863 208 l 863 0 z "},"ł":{"ha":436,"x_min":28,"x_max":422,"o":"m 422 4 q 369 -14 399 -7 q 307 -21 339 -21 q 222 -9 263 -21 q 150 29 181 3 q 101 98 119 56 q 83 200 83 140 l 83 410 l 28 383 l 28 569 l 83 596 l 83 1153 l 288 1153 l 288 696 l 394 747 l 394 561 l 288 510 l 288 235 q 308 166 288 185 q 356 147 328 147 q 422 168 390 147 l 422 4 z "},"Š":{"ha":894,"x_min":56,"x_max":853,"o":"m 722 1478 l 543 1210 l 364 1210 l 185 1478 l 335 1478 l 453 1360 l 572 1478 l 722 1478 m 853 292 q 826 173 853 229 q 750 74 799 117 q 635 5 701 31 q 488 -21 568 -21 q 358 -12 415 -21 q 249 14 300 -4 q 152 60 199 32 q 56 129 106 89 l 208 283 q 339 205 275 228 q 478 182 403 182 q 535 191 508 182 q 583 215 563 200 q 615 251 603 231 q 626 297 626 272 q 617 344 626 324 q 582 385 607 365 q 513 424 557 404 q 399 469 468 444 q 281 520 338 492 q 183 589 225 549 q 115 683 140 629 q 89 811 89 738 q 117 942 89 882 q 195 1044 146 1001 q 310 1110 244 1086 q 453 1133 376 1133 q 668 1100 581 1133 q 824 1003 756 1067 l 674 851 q 581 913 632 892 q 460 935 529 935 q 401 925 428 935 q 354 899 374 915 q 323 862 335 883 q 311 817 311 840 q 322 769 311 790 q 360 727 333 747 q 430 687 386 707 q 539 643 474 667 q 682 579 622 614 q 780 503 742 544 q 835 409 818 461 q 853 292 853 357 z "},"š":{"ha":713,"x_min":56,"x_max":671,"o":"m 633 1171 l 454 903 l 276 903 l 96 1171 l 246 1171 l 365 1053 l 485 1171 l 633 1171 m 671 225 q 643 119 671 165 q 571 41 615 72 q 471 -6 526 10 q 361 -22 415 -22 q 192 12 269 -22 q 57 121 115 46 l 178 243 q 261 172 214 197 q 363 146 308 146 q 441 163 410 146 q 472 215 472 181 q 428 276 472 251 q 303 324 383 300 q 211 359 256 338 q 132 412 167 381 q 76 483 97 443 q 56 576 56 524 q 83 681 56 635 q 153 759 110 728 q 253 807 197 790 q 365 824 308 824 q 665 685 549 824 l 546 564 q 467 632 511 607 q 369 657 422 657 q 331 652 351 657 q 294 638 311 647 q 265 615 276 629 q 254 582 254 600 q 297 526 254 550 q 418 479 339 503 q 515 440 469 464 q 596 385 561 417 q 651 315 631 354 q 671 225 671 275 z "},"Ý":{"ha":1128,"x_min":21,"x_max":1121,"o":"m 788 1478 l 588 1210 l 440 1210 l 565 1478 l 788 1478 m 1121 1110 l 668 454 l 668 -1 l 450 -1 l 450 457 l 21 1110 l 271 1110 l 560 643 l 861 1110 l 1121 1110 z "},"ý":{"ha":819,"x_min":21,"x_max":813,"o":"m 633 1171 l 433 903 l 286 903 l 411 1171 l 633 1171 m 813 804 l 451 -150 q 346 -304 411 -257 q 190 -351 281 -351 q 160 -349 176 -351 q 128 -343 143 -347 l 61 -157 q 110 -174 85 -168 q 157 -181 135 -181 q 243 -159 204 -181 q 303 -79 282 -137 l 331 1 l 21 804 l 239 804 l 424 288 l 597 804 l 813 804 z "},"\t":{"ha":1389,"x_min":0,"x_max":0,"o":""},"\n":{"ha":1389,"x_min":0,"x_max":0,"o":""},"Þ":{"ha":872,"x_min":111,"x_max":844,"o":"m 844 556 q 815 413 844 478 q 735 303 786 349 q 615 231 683 257 q 469 206 547 206 l 326 206 l 326 0 l 111 0 l 111 1110 l 326 1110 l 326 904 l 469 904 q 615 878 547 904 q 735 807 683 853 q 815 697 786 761 q 844 556 844 633 m 633 558 q 617 635 633 601 q 574 692 601 668 q 508 728 546 715 q 428 740 471 740 l 326 740 l 326 378 l 428 378 q 508 390 471 378 q 574 426 546 403 q 617 483 601 449 q 633 558 633 517 z "},"þ":{"ha":897,"x_min":97,"x_max":869,"o":"m 869 401 q 841 240 869 317 q 761 106 813 164 q 639 13 710 47 q 483 -21 568 -21 q 385 -6 431 -21 q 299 40 339 8 l 299 -349 l 97 -349 l 97 1111 l 300 1111 l 300 763 q 383 808 335 792 q 483 825 431 825 q 626 792 557 825 q 750 703 696 760 q 837 568 804 646 q 869 401 869 490 m 681 400 q 663 501 681 456 q 615 580 646 547 q 541 630 583 613 q 447 647 499 647 q 372 635 415 647 q 300 600 328 622 l 300 214 q 451 154 368 154 q 543 173 501 154 q 615 224 585 192 q 663 302 646 257 q 681 400 681 347 z "},"Ž":{"ha":1006,"x_min":56,"x_max":964,"o":"m 789 1478 l 610 1210 l 431 1210 l 251 1478 l 401 1478 l 519 1360 l 639 1478 l 789 1478 m 964 1111 l 426 213 l 960 213 l 960 0 l 56 0 l 606 919 l 76 918 l 76 1111 l 964 1111 z "},"ž":{"ha":774,"x_min":28,"x_max":753,"o":"m 671 1171 l 492 903 l 314 903 l 133 1171 l 283 1171 l 403 1053 l 522 1171 l 671 1171 m 753 804 l 354 179 l 738 179 l 738 0 l 28 0 l 418 625 l 65 625 l 65 804 l 753 804 z "},"\u0011":{"ha":1389,"x_min":0,"x_max":0,"o":""},"\u0012":{"ha":1389,"x_min":0,"x_max":0,"o":""},"\u0013":{"ha":1389,"x_min":0,"x_max":0,"o":""},"½":{"ha":1267,"x_min":56,"x_max":1211,"o":"m 1211 0 l 708 0 l 969 314 q 1023 388 999 350 q 1047 458 1047 426 q 1022 519 1047 499 q 969 539 997 539 q 829 454 889 539 l 728 554 q 836 646 778 613 q 978 679 894 679 q 1064 666 1024 679 q 1134 627 1104 653 q 1181 562 1164 601 q 1197 469 1197 522 q 1164 347 1197 401 q 1088 239 1131 293 l 1014 144 l 1211 146 l 1211 0 m 976 1104 l 232 -71 l 58 -71 l 804 1104 l 976 1104 m 294 457 l 153 457 l 153 953 l 56 914 l 56 1047 l 294 1142 l 294 457 z "},"¼":{"ha":1158,"x_min":56,"x_max":1103,"o":"m 1103 139 l 1013 139 l 1013 0 l 867 0 l 867 139 l 574 139 l 574 243 l 889 667 l 1013 667 l 1013 271 l 1103 271 l 1103 139 m 976 1104 l 232 -71 l 58 -71 l 804 1104 l 976 1104 m 294 457 l 153 457 l 153 953 l 56 914 l 56 1047 l 294 1142 l 294 457 m 867 271 l 867 435 l 743 272 l 867 271 z "},"¹":{"ha":350,"x_min":56,"x_max":294,"o":"m 294 457 l 153 457 l 153 953 l 56 914 l 56 1047 l 294 1142 l 294 457 z "},"¾":{"ha":1343,"x_min":56,"x_max":1288,"o":"m 1288 139 l 1199 139 l 1199 0 l 1051 0 l 1051 139 l 758 139 l 758 243 l 1074 667 l 1199 667 l 1199 271 l 1288 271 l 1288 139 m 1163 1104 l 417 -71 l 244 -71 l 989 1104 l 1163 1104 m 576 658 q 556 563 576 604 q 503 495 536 522 q 426 454 469 468 q 333 440 382 440 q 182 474 250 440 q 56 581 114 507 l 157 685 q 240 611 197 640 q 329 582 282 582 q 397 602 369 582 q 425 663 425 622 q 409 705 425 690 q 369 726 393 719 q 317 735 344 733 q 264 736 289 736 l 263 851 q 313 853 286 851 q 361 861 339 854 q 398 882 383 868 q 413 922 413 896 q 389 974 413 957 q 331 990 365 990 q 249 970 285 990 q 181 901 213 950 l 76 1007 q 190 1103 131 1074 q 325 1132 249 1132 q 409 1119 367 1132 q 486 1081 451 1106 q 543 1019 521 1056 q 565 933 565 982 q 542 856 565 890 q 488 799 519 821 q 551 742 525 778 q 576 658 576 706 m 1051 271 l 1051 435 l 929 272 l 1051 271 z "},"³":{"ha":632,"x_min":56,"x_max":576,"o":"m 576 658 q 556 563 576 604 q 503 495 536 522 q 426 454 469 468 q 333 440 382 440 q 182 474 250 440 q 56 581 114 507 l 157 685 q 240 611 197 640 q 329 582 282 582 q 397 602 369 582 q 425 663 425 622 q 409 705 425 690 q 369 726 393 719 q 317 735 344 733 q 264 736 289 736 l 263 851 q 313 853 286 851 q 361 861 339 854 q 398 882 383 868 q 413 922 413 896 q 389 974 413 957 q 331 990 365 990 q 249 970 285 990 q 181 901 213 950 l 76 1007 q 190 1103 131 1074 q 325 1132 249 1132 q 409 1119 367 1132 q 486 1081 451 1106 q 543 1019 521 1056 q 565 933 565 982 q 542 856 565 890 q 488 799 519 821 q 551 742 525 778 q 576 658 576 706 z "},"²":{"ha":615,"x_min":56,"x_max":558,"o":"m 558 453 l 56 453 l 317 767 q 370 841 346 803 q 394 911 394 879 q 369 972 394 951 q 317 992 344 992 q 176 907 236 992 l 75 1007 q 183 1099 125 1065 q 325 1132 242 1132 q 411 1119 371 1132 q 481 1080 451 1106 q 528 1015 511 1054 q 546 922 546 975 q 537 858 546 889 q 512 800 528 828 q 476 745 496 772 q 435 692 456 718 l 361 599 l 558 599 l 558 453 z "},"¦":{"ha":399,"x_min":114,"x_max":285,"o":"m 285 571 l 114 571 l 114 1210 l 285 1210 l 285 571 m 285 -271 l 114 -271 l 114 369 l 285 369 l 285 -271 z "},"−":{"ha":890,"x_min":83,"x_max":821,"o":"m 821 418 l 83 418 l 83 628 l 821 628 l 821 418 z "},"×":{"ha":915,"x_min":97,"x_max":832,"o":"m 832 300 l 686 154 l 465 375 l 257 165 l 108 311 l 318 522 l 97 743 l 243 889 l 465 668 l 675 878 l 821 732 l 613 522 l 832 300 z "},"\u001e":{"ha":1389,"x_min":0,"x_max":0,"o":""},"\u001f":{"ha":1389,"x_min":0,"x_max":0,"o":""},"!":{"ha":379,"x_min":83,"x_max":324,"o":"m 324 1111 l 265 308 l 142 308 l 83 1111 l 324 1111 m 307 0 l 100 0 l 100 207 l 307 207 l 307 0 z "},"\"":{"ha":563,"x_min":42,"x_max":528,"o":"m 528 1153 l 488 756 l 354 756 l 314 1153 l 528 1153 m 256 1153 l 215 756 l 82 756 l 42 1153 l 256 1153 z "},"#":{"ha":1047,"x_min":56,"x_max":992,"o":"m 992 292 l 753 292 l 690 0 l 525 0 l 586 292 l 351 292 l 290 0 l 124 0 l 185 292 l 56 292 l 56 456 l 219 456 l 261 656 l 56 656 l 56 817 l 293 817 l 356 1110 l 521 1110 l 461 817 l 696 817 l 758 1110 l 921 1110 l 861 817 l 992 817 l 992 656 l 826 656 l 786 456 l 992 456 l 992 292 m 663 656 l 426 656 l 385 456 l 621 456 l 663 656 z "},"$":{"ha":839,"x_min":56,"x_max":783,"o":"m 783 293 q 761 188 783 239 q 701 94 739 136 q 610 24 663 53 q 496 -14 557 -4 l 496 -15 l 496 -146 l 369 -146 l 369 -17 q 276 -4 318 -14 q 196 22 233 6 q 124 63 158 39 q 56 118 90 86 l 176 261 q 376 172 267 185 l 376 465 l 365 469 q 256 518 308 489 q 163 588 204 547 q 98 685 122 629 q 74 815 74 742 q 97 932 74 878 q 161 1027 121 986 q 255 1094 201 1068 q 369 1129 308 1121 l 369 1218 l 496 1218 l 496 1129 q 637 1088 574 1118 q 746 1013 700 1058 l 625 872 q 560 921 594 904 q 489 944 526 938 l 489 657 l 489 650 q 713 509 642 597 q 783 293 783 421 m 376 694 l 376 938 q 310 892 338 922 q 283 824 283 863 q 303 749 283 778 q 376 694 322 721 m 572 290 q 555 360 572 331 q 489 418 538 390 l 489 181 q 550 226 528 196 q 572 290 572 256 z "},"%":{"ha":1297,"x_min":56,"x_max":1242,"o":"m 1242 253 q 1219 145 1242 196 q 1160 57 1197 94 q 1072 -3 1122 19 q 964 -25 1021 -25 q 855 -3 906 -25 q 767 57 804 19 q 708 145 729 94 q 686 253 686 196 q 708 362 686 311 q 767 450 729 413 q 855 509 804 488 q 964 531 906 531 q 1072 509 1021 531 q 1160 450 1122 488 q 1219 362 1197 413 q 1242 253 1242 311 m 611 856 q 589 748 611 799 q 529 660 567 697 q 441 600 492 622 q 333 578 390 578 q 226 600 276 578 q 138 660 175 622 q 78 748 100 697 q 56 856 56 799 q 78 963 56 913 q 138 1051 100 1014 q 226 1111 175 1089 q 333 1133 276 1133 q 441 1111 390 1133 q 529 1051 492 1089 q 589 963 567 1014 q 611 856 611 913 m 1088 1111 l 343 -64 l 169 -64 l 914 1111 l 1088 1111 m 1075 253 q 1042 331 1075 299 q 964 364 1010 364 q 885 331 918 364 q 853 253 853 299 q 885 174 853 207 q 964 142 918 142 q 1042 174 1010 142 q 1075 253 1075 207 m 444 856 q 412 934 444 901 q 333 967 379 967 q 255 934 288 967 q 222 856 222 901 q 255 777 222 810 q 333 744 288 744 q 412 777 379 744 q 444 856 444 810 z "},"&":{"ha":1038,"x_min":111,"x_max":1010,"o":"m 1010 113 l 876 -21 l 782 86 q 719 38 750 58 q 653 5 689 18 q 574 -15 618 -8 q 471 -21 529 -21 q 330 6 396 -21 q 215 79 264 33 q 139 188 167 125 q 111 321 111 250 q 163 481 111 411 q 315 614 215 551 q 226 742 253 688 q 200 847 200 797 q 224 958 200 907 q 291 1046 249 1008 q 390 1104 333 1083 q 513 1125 447 1125 q 637 1103 579 1125 q 737 1041 694 1081 q 803 949 779 1001 q 828 833 828 896 q 775 690 828 751 q 611 564 722 629 l 765 386 q 778 427 774 406 q 785 469 782 449 l 976 469 q 949 335 969 397 q 904 231 929 274 l 1010 113 m 642 850 q 605 924 642 896 q 519 953 568 953 q 432 922 468 953 q 396 846 396 892 q 407 800 396 822 q 446 747 418 778 l 494 696 q 599 761 557 724 q 642 850 642 799 m 653 232 l 431 482 q 349 408 374 447 q 325 321 325 369 q 338 264 325 290 q 371 217 350 238 q 420 185 392 197 q 481 174 449 174 q 563 183 524 174 q 653 232 603 193 z "},"'":{"ha":276,"x_min":35,"x_max":249,"o":"m 249 1153 l 208 756 l 74 756 l 35 1153 l 249 1153 z "},"(":{"ha":526,"x_min":69,"x_max":547,"o":"m 547 -385 l 379 -385 q 250 -204 307 -293 q 153 -21 193 -115 q 91 178 113 74 q 69 406 69 282 q 91 631 69 528 q 153 829 113 735 q 250 1013 193 924 q 379 1196 307 1101 l 542 1196 q 430 1002 476 1092 q 353 822 383 913 q 309 631 324 732 q 294 400 294 529 q 358 -15 294 178 q 547 -385 422 -207 z "},")":{"ha":526,"x_min":-21,"x_max":457,"o":"m 457 407 q 435 183 457 288 q 372 -19 413 78 q 275 -206 332 -115 q 147 -385 218 -296 l -17 -385 q 96 -191 49 -281 q 173 -10 143 -101 q 217 181 203 81 q 232 410 232 282 q 168 825 232 632 q -21 1196 104 1018 l 147 1196 q 274 1018 217 1108 q 372 831 331 928 q 435 630 413 735 q 457 407 457 525 z "},"*":{"ha":674,"x_min":42,"x_max":632,"o":"m 632 743 l 550 603 l 481 656 l 403 700 l 403 618 l 414 525 l 253 525 l 263 615 l 263 699 l 192 657 l 122 603 l 42 742 l 113 774 l 194 821 l 121 863 l 42 897 l 122 1039 l 196 983 l 263 943 l 263 1028 l 253 1111 l 414 1111 l 403 1025 l 403 940 l 474 982 l 550 1039 l 632 897 l 544 861 l 474 819 l 539 781 l 632 743 z "},"+":{"ha":953,"x_min":83,"x_max":883,"o":"m 883 418 l 586 418 l 586 106 l 379 106 l 379 418 l 83 418 l 83 625 l 379 625 l 379 938 l 586 938 l 586 625 l 883 625 l 883 418 z "},",":{"ha":346,"x_min":83,"x_max":290,"o":"m 290 0 q 281 -63 290 -33 q 252 -116 271 -93 q 205 -152 233 -139 q 139 -165 176 -165 q 112 -162 125 -165 q 88 -157 99 -160 l 88 -142 q 153 -104 128 -135 q 178 -33 178 -74 q 176 -17 178 -26 q 172 0 175 -7 l 83 0 l 83 207 l 290 207 l 290 0 z "},"-":{"ha":519,"x_min":42,"x_max":478,"o":"m 478 361 l 42 361 l 42 547 l 478 547 l 478 361 z "},".":{"ha":351,"x_min":83,"x_max":296,"o":"m 296 0 l 83 0 l 83 213 l 296 213 l 296 0 z "},"/":{"ha":436,"x_min":-28,"x_max":464,"o":"m 464 1210 l 143 -79 l -28 -79 l 293 1210 l 464 1210 z "},":":{"ha":351,"x_min":83,"x_max":296,"o":"m 296 590 l 83 590 l 83 803 l 296 803 l 296 590 m 296 0 l 83 0 l 83 213 l 296 213 l 296 0 z "},";":{"ha":351,"x_min":83,"x_max":296,"o":"m 296 590 l 83 590 l 83 803 l 296 803 l 296 590 m 293 0 q 283 -63 293 -33 q 255 -116 274 -93 q 208 -152 236 -139 q 142 -165 179 -165 q 115 -162 128 -165 q 90 -157 101 -160 l 90 -142 q 156 -104 131 -135 q 181 -33 181 -74 q 179 -17 181 -26 q 175 0 178 -7 l 86 0 l 86 207 l 293 207 l 293 0 z "},"<":{"ha":933,"x_min":69,"x_max":864,"o":"m 864 106 l 69 444 l 69 611 l 864 947 l 864 747 l 326 528 l 864 304 l 864 106 z "},"=":{"ha":989,"x_min":97,"x_max":892,"o":"m 892 601 l 97 601 l 97 788 l 892 788 l 892 601 m 892 263 l 97 263 l 97 449 l 892 449 l 892 263 z "},">":{"ha":933,"x_min":69,"x_max":864,"o":"m 864 442 l 69 106 l 69 304 l 607 525 l 69 747 l 69 947 l 864 608 l 864 442 z "},"?":{"ha":783,"x_min":56,"x_max":728,"o":"m 728 828 q 713 728 728 775 q 669 644 697 682 q 604 576 642 606 q 524 525 567 546 l 451 492 q 399 451 417 476 q 382 375 382 426 l 382 308 l 183 308 l 183 376 q 192 484 183 440 q 217 558 200 528 q 260 608 233 589 q 322 644 286 628 l 386 674 q 492 749 465 710 q 518 828 518 789 q 507 872 518 850 q 476 911 496 894 q 428 938 457 928 q 365 949 400 949 q 265 931 313 949 q 176 869 217 913 l 56 1010 q 194 1100 113 1067 q 378 1133 276 1133 q 515 1112 451 1133 q 626 1050 579 1090 q 701 953 674 1010 q 728 828 728 897 m 386 0 l 179 0 l 179 207 l 386 207 l 386 0 z "},"@":{"ha":1603,"x_min":69,"x_max":1533,"o":"m 1533 458 q 1516 313 1533 381 q 1468 192 1499 246 q 1396 96 1438 138 q 1307 26 1354 54 q 1221 -6 1272 7 q 1115 -18 1169 -18 q 995 13 1050 -18 q 917 99 940 43 q 807 10 875 40 q 663 -21 739 -21 q 545 2 600 -21 q 449 68 490 25 q 385 171 408 111 q 361 306 361 231 q 396 491 361 399 q 489 657 431 583 q 626 777 547 731 q 792 824 704 824 q 897 806 846 824 q 985 744 947 789 l 997 803 l 1178 803 l 1063 233 q 1074 148 1051 175 q 1136 121 1096 121 q 1235 142 1189 121 q 1315 206 1281 164 q 1369 313 1350 249 q 1389 461 1389 376 q 1346 678 1389 578 q 1226 853 1303 779 q 1047 969 1150 926 q 825 1011 944 1011 q 588 963 699 1011 q 394 833 476 915 q 263 639 311 750 q 215 401 215 528 q 263 164 215 275 q 394 -30 311 53 q 588 -160 476 -112 q 825 -208 699 -208 q 1010 -181 928 -208 q 1149 -117 1093 -153 l 1253 -215 q 1060 -313 1172 -274 q 825 -353 949 -353 q 531 -294 668 -353 q 290 -132 393 -235 q 128 108 188 -29 q 69 401 69 244 q 128 695 69 557 q 290 935 188 833 q 531 1097 393 1038 q 825 1157 668 1157 q 1103 1105 974 1157 q 1328 960 1232 1053 q 1478 738 1424 867 q 1533 458 1533 610 m 951 592 q 888 647 928 628 q 800 665 847 665 q 697 631 742 665 q 623 544 653 596 q 577 433 593 493 q 561 322 561 372 q 572 241 561 275 q 600 185 582 207 q 641 153 618 164 q 689 143 664 143 q 744 151 715 143 q 799 174 772 158 q 848 216 825 190 q 886 278 871 242 l 951 592 z "},"A":{"ha":1232,"x_min":14,"x_max":1232,"o":"m 1232 0 l 996 0 l 893 222 l 354 222 l 250 0 l 14 0 l 539 1111 l 707 1111 l 1232 0 m 808 401 l 624 801 l 436 401 l 808 401 z "},"B":{"ha":944,"x_min":111,"x_max":903,"o":"m 903 318 q 874 190 903 249 q 799 88 846 131 q 690 22 751 46 q 560 -1 628 -1 l 111 0 l 111 1111 l 511 1111 q 645 1090 583 1111 q 753 1027 707 1068 q 824 927 799 986 q 850 794 850 868 q 822 674 850 732 q 749 575 794 615 q 813 529 785 557 q 862 467 842 501 q 892 395 882 433 q 903 318 903 357 m 638 790 q 622 860 638 831 q 581 908 607 889 q 522 938 556 928 q 453 947 489 947 l 326 947 l 326 642 q 389 640 361 640 q 453 640 417 640 q 522 649 489 640 q 581 675 556 657 q 622 722 607 693 q 638 790 638 750 m 679 331 q 666 394 679 365 q 630 444 653 424 q 577 475 607 464 q 513 486 547 486 q 419 487 465 488 q 326 486 374 486 l 326 179 l 488 179 q 557 188 522 179 q 619 215 592 196 q 663 262 646 233 q 679 331 679 290 z "},"C":{"ha":1128,"x_min":69,"x_max":1128,"o":"m 1128 200 q 926 39 1044 99 q 664 -21 807 -21 q 432 24 540 -21 q 243 147 324 69 q 116 330 163 225 q 69 556 69 435 q 116 781 69 676 q 243 965 163 886 q 432 1088 324 1043 q 664 1132 540 1132 q 926 1072 807 1132 q 1124 917 1044 1013 l 975 764 q 842 883 924 838 q 664 928 761 928 q 517 898 586 928 q 397 817 449 868 q 316 699 346 767 q 286 556 286 632 q 316 413 286 481 q 397 295 346 346 q 517 215 449 244 q 664 185 586 185 q 846 231 767 185 q 978 354 925 278 l 1128 200 z "},"D":{"ha":1154,"x_min":111,"x_max":1099,"o":"m 1099 556 q 1060 340 1099 440 q 951 163 1021 239 q 785 44 882 88 q 575 0 689 0 l 111 0 l 111 1111 l 575 1111 q 785 1067 689 1111 q 951 947 882 1022 q 1060 771 1021 872 q 1099 556 1099 669 m 881 561 q 857 708 882 639 q 785 830 832 778 q 669 912 738 882 q 514 942 600 942 l 326 942 l 326 183 l 514 183 q 666 212 599 183 q 781 291 733 240 q 853 410 828 342 q 881 561 879 479 z "},"E":{"ha":900,"x_min":111,"x_max":844,"o":"m 844 0 l 111 0 l 111 1110 l 844 1110 l 844 932 l 322 932 l 322 667 l 838 667 l 838 493 l 322 493 l 322 188 l 844 188 l 844 0 z "},"F":{"ha":872,"x_min":111,"x_max":844,"o":"m 844 925 l 322 925 l 322 667 l 838 667 l 838 492 l 322 492 l 322 0 l 111 0 l 111 1110 l 844 1110 l 844 925 z "},"G":{"ha":1189,"x_min":69,"x_max":1133,"o":"m 1133 204 q 1031 103 1086 146 q 915 33 975 61 q 791 -8 854 6 q 665 -21 728 -21 q 433 24 542 -21 q 244 146 325 68 q 117 329 164 224 q 69 557 69 435 q 116 781 69 676 q 244 964 163 886 q 433 1087 325 1042 q 665 1132 542 1132 q 926 1074 808 1132 q 1125 918 1043 1015 l 979 769 q 839 891 917 854 q 665 928 761 928 q 517 899 586 928 q 395 819 447 869 q 313 701 343 768 q 283 557 283 633 q 313 412 283 479 q 395 293 343 344 q 517 213 447 242 q 665 183 586 183 q 807 211 740 183 q 926 285 874 239 l 926 392 l 699 392 l 699 575 l 1133 575 l 1133 204 z "},"H":{"ha":1076,"x_min":111,"x_max":979,"o":"m 979 0 l 764 0 l 764 492 l 326 492 l 326 0 l 111 0 l 111 1110 l 326 1110 l 326 669 l 764 669 l 764 1110 l 979 1110 l 979 0 z "},"I":{"ha":424,"x_min":111,"x_max":326,"o":"m 326 0 l 111 0 l 111 1110 l 326 1110 l 326 0 z "},"J":{"ha":807,"x_min":28,"x_max":724,"o":"m 724 372 q 684 185 724 260 q 588 64 644 110 q 466 -1 531 18 q 350 -21 401 -21 q 170 24 256 -21 q 28 142 85 68 l 169 282 q 242 213 197 238 q 333 188 286 188 q 396 199 365 188 q 451 233 426 211 q 490 288 475 256 q 504 361 504 319 l 504 1110 l 724 1110 l 724 372 z "},"K":{"ha":1038,"x_min":111,"x_max":1051,"o":"m 1051 0 l 771 0 l 326 492 l 326 0 l 111 0 l 111 1111 l 326 1111 l 326 615 l 781 1111 l 1036 1111 l 535 565 l 1051 0 z "},"L":{"ha":876,"x_min":111,"x_max":863,"o":"m 863 0 l 111 0 l 111 1110 l 331 1110 l 331 208 l 863 208 l 863 0 z "},"M":{"ha":1317,"x_min":111,"x_max":1219,"o":"m 1219 0 l 1008 0 l 1008 742 l 658 151 l 322 747 l 322 0 l 111 0 l 111 1111 l 354 1111 l 663 560 l 985 1111 l 1219 1111 l 1219 0 z "},"N":{"ha":1132,"x_min":111,"x_max":1035,"o":"m 1035 0 l 824 0 l 322 779 l 322 0 l 111 0 l 111 1111 l 353 1111 l 824 386 l 824 1111 l 1035 1111 l 1035 0 z "},"O":{"ha":1304,"x_min":69,"x_max":1249,"o":"m 1249 556 q 1202 331 1249 436 q 1075 147 1156 225 q 888 24 994 69 q 660 -21 781 -21 q 431 24 539 -21 q 243 147 324 69 q 116 330 163 225 q 69 556 69 435 q 116 782 69 676 q 243 965 163 888 q 431 1088 324 1043 q 660 1132 539 1132 q 888 1088 781 1132 q 1075 965 994 1043 q 1202 781 1156 886 q 1249 556 1249 676 m 1032 556 q 1003 699 1032 632 q 923 817 974 767 q 804 898 872 868 q 660 928 736 928 q 514 898 582 928 q 395 817 446 868 q 315 699 344 767 q 286 556 286 632 q 315 413 286 481 q 395 294 344 344 q 514 213 446 243 q 660 183 582 183 q 804 213 736 183 q 923 294 872 243 q 1003 413 974 344 q 1032 556 1032 481 z "},"P":{"ha":917,"x_min":111,"x_max":889,"o":"m 889 738 q 859 590 889 658 q 778 470 829 521 q 657 391 726 419 q 510 363 588 363 l 326 363 l 326 0 l 111 0 l 111 1110 l 510 1110 q 657 1081 588 1110 q 778 1003 726 1053 q 859 885 829 953 q 889 738 889 817 m 675 740 q 659 821 675 783 q 615 886 643 858 q 550 931 588 914 q 469 947 513 947 l 326 947 l 326 528 l 469 528 q 550 545 513 528 q 615 592 588 563 q 659 659 643 621 q 675 740 675 697 z "},"Q":{"ha":1296,"x_min":69,"x_max":1240,"o":"m 1240 556 q 1209 369 1240 457 q 1119 207 1178 281 l 1231 97 l 1103 -31 l 989 85 q 833 8 918 36 q 654 -19 749 -19 q 427 26 533 -19 q 241 149 321 71 q 115 332 161 228 q 69 556 69 436 q 115 780 69 675 q 241 963 161 885 q 427 1087 321 1042 q 654 1132 533 1132 q 882 1087 775 1132 q 1069 963 989 1042 q 1194 780 1149 885 q 1240 556 1240 675 m 1031 556 q 1001 700 1031 632 q 920 819 971 768 q 801 901 869 871 q 654 931 732 931 q 508 901 576 931 q 389 819 440 871 q 308 700 338 768 q 279 556 279 632 q 308 411 279 479 q 389 292 338 343 q 508 212 440 242 q 654 182 576 182 q 755 196 707 182 q 846 235 803 210 l 742 336 l 869 464 l 972 358 q 1031 556 1031 449 z "},"R":{"ha":968,"x_min":111,"x_max":947,"o":"m 947 0 l 710 0 l 631 253 q 599 329 618 294 q 554 389 581 364 q 491 428 528 414 q 404 442 454 442 l 324 442 l 324 0 l 111 0 l 111 1110 l 550 1111 q 682 1087 621 1111 q 788 1019 743 1063 q 857 918 832 976 q 882 792 882 860 q 867 697 882 743 q 824 613 851 651 q 758 544 796 574 q 674 499 719 514 q 760 442 726 479 q 813 354 793 406 q 831 307 822 331 q 848 258 839 283 q 867 202 857 232 q 890 136 878 172 q 919 58 906 90 q 947 0 932 25 m 665 776 q 651 847 665 815 q 611 903 636 879 q 552 940 586 926 q 479 953 518 953 l 324 953 l 324 607 l 479 607 q 552 619 518 607 q 611 653 586 631 q 651 706 636 675 q 665 776 665 738 z "},"S":{"ha":894,"x_min":56,"x_max":853,"o":"m 853 292 q 826 173 853 229 q 750 74 799 117 q 635 5 701 31 q 488 -21 568 -21 q 358 -12 415 -21 q 249 14 300 -4 q 152 60 199 32 q 56 129 106 89 l 208 283 q 339 205 275 228 q 478 182 403 182 q 535 191 508 182 q 583 215 563 200 q 615 251 603 231 q 626 297 626 272 q 617 344 626 324 q 582 385 607 365 q 513 424 557 404 q 399 469 468 444 q 281 520 338 492 q 183 589 225 549 q 115 683 140 629 q 89 811 89 738 q 117 942 89 882 q 195 1044 146 1001 q 310 1110 244 1086 q 453 1133 376 1133 q 668 1100 581 1133 q 824 1003 756 1067 l 674 851 q 581 913 632 892 q 460 935 529 935 q 401 925 428 935 q 354 899 374 915 q 323 862 335 883 q 311 817 311 840 q 322 769 311 790 q 360 727 333 747 q 430 687 386 707 q 539 643 474 667 q 682 579 622 614 q 779 503 742 544 q 835 409 817 461 q 853 292 853 357 z "},"T":{"ha":901,"x_min":42,"x_max":874,"o":"m 874 918 l 567 918 l 567 0 l 349 0 l 349 918 l 42 918 l 42 1110 l 874 1110 l 874 918 z "},"U":{"ha":1154,"x_min":97,"x_max":1085,"o":"m 1085 1111 l 1085 508 q 1051 301 1085 397 q 955 134 1018 206 q 801 22 892 63 q 593 -19 710 -19 q 388 21 479 -19 q 231 131 296 61 q 132 297 167 201 q 97 501 97 392 l 97 1111 l 313 1111 l 313 500 q 331 380 313 436 q 383 282 349 324 q 470 216 418 240 q 589 192 522 192 q 712 215 660 192 q 798 278 764 238 q 849 375 832 319 q 867 497 867 431 l 867 1111 l 1085 1111 z "},"V":{"ha":1076,"x_min":21,"x_max":1069,"o":"m 1069 1111 l 649 0 l 451 0 l 21 1111 l 260 1111 l 549 331 l 833 1111 l 1069 1111 z "},"W":{"ha":1538,"x_min":21,"x_max":1531,"o":"m 1531 1111 l 1169 0 l 981 0 l 776 686 l 571 0 l 382 0 l 21 1111 l 249 1111 l 483 393 l 686 1111 l 864 1111 l 1067 392 l 1304 1111 l 1531 1111 z "},"X":{"ha":1097,"x_min":14,"x_max":1097,"o":"m 1097 0 l 832 0 l 556 422 l 279 0 l 14 0 l 419 576 l 47 1111 l 308 1111 l 556 735 l 801 1111 l 1067 1111 l 692 578 l 1097 0 z "},"Y":{"ha":1128,"x_min":21,"x_max":1121,"o":"m 1121 1110 l 668 454 l 668 -1 l 450 -1 l 450 457 l 21 1110 l 271 1110 l 560 643 l 861 1110 l 1121 1110 z "},"Z":{"ha":1006,"x_min":56,"x_max":964,"o":"m 964 1111 l 426 213 l 960 213 l 960 0 l 56 0 l 606 919 l 76 918 l 76 1111 l 964 1111 z "},"[":{"ha":525,"x_min":83,"x_max":504,"o":"m 504 -354 l 83 -354 l 83 1196 l 504 1196 l 504 1028 l 276 1028 l 276 -187 l 504 -187 l 504 -354 z "},"\\":{"ha":436,"x_min":-28,"x_max":464,"o":"m 464 -79 l 293 -79 l -28 1210 l 143 1210 l 464 -79 z "},"]":{"ha":524,"x_min":21,"x_max":440,"o":"m 440 -354 l 21 -354 l 21 -187 l 247 -187 l 247 1029 l 21 1029 l 21 1196 l 440 1196 l 440 -354 z "},"^":{"ha":1619,"x_min":28,"x_max":1592,"o":"m 1475 536 q 1468 519 1475 526 q 1451 513 1461 513 q 1435 519 1442 513 q 1428 536 1428 526 q 1434 553 1428 546 q 1450 560 1440 560 q 1467 553 1460 560 q 1475 536 1475 546 m 1422 590 q 1414 571 1422 579 q 1394 563 1406 563 q 1375 571 1383 563 q 1367 590 1367 579 q 1375 610 1367 601 q 1394 618 1383 618 q 1414 610 1406 618 q 1422 590 1422 601 m 1353 640 q 1344 619 1353 628 q 1325 611 1336 611 q 1305 619 1314 611 q 1296 640 1296 628 q 1304 660 1296 651 q 1324 668 1313 668 q 1344 660 1335 668 q 1353 640 1353 651 m 1281 689 q 1272 665 1281 675 q 1249 656 1263 656 q 1225 665 1235 656 q 1215 689 1215 675 q 1224 711 1215 701 q 1247 721 1233 721 q 1270 711 1260 721 q 1281 689 1281 701 m 1200 731 q 1190 705 1200 715 q 1165 694 1181 694 q 1139 705 1150 694 q 1128 731 1128 715 q 1138 756 1128 746 q 1164 767 1149 767 q 1190 756 1179 767 q 1200 731 1200 746 m 1104 769 q 1093 743 1104 754 q 1067 732 1082 732 q 1040 743 1051 732 q 1029 769 1029 754 q 1040 796 1029 785 q 1065 807 1050 807 q 1092 796 1081 807 q 1104 769 1104 785 m 1000 799 q 989 772 1000 783 q 963 760 978 760 q 935 772 947 760 q 922 799 922 783 q 933 826 922 814 q 961 838 944 838 q 988 826 976 838 q 1000 799 1000 814 m 1431 490 q 1429 487 1431 490 q 1426 480 1428 483 q 1421 474 1424 476 q 1417 472 1418 471 q 1393 489 1406 479 q 1171 627 1289 571 q 929 715 1053 683 q 899 635 913 681 q 882 558 886 589 q 869 551 881 551 q 856 552 858 551 q 856 558 854 553 q 864 604 858 578 q 876 657 869 631 q 892 708 883 683 q 907 751 900 733 q 1056 707 989 731 q 1181 654 1122 683 q 1294 590 1240 625 q 1406 513 1349 556 q 1419 501 1411 508 q 1431 490 1426 494 m 900 1040 l 899 954 l 824 981 l 824 931 q 874 903 853 928 q 894 847 894 878 q 869 788 894 813 q 810 764 844 764 q 747 788 772 764 q 721 849 721 813 q 742 903 721 879 q 793 931 763 926 l 793 981 l 719 954 l 715 1040 l 783 1022 l 754 1113 l 860 1113 l 833 1022 l 900 1040 m 843 713 q 833 687 843 697 q 807 676 822 676 q 783 687 793 676 q 772 713 772 697 q 783 738 772 728 q 808 749 793 749 q 833 738 822 749 q 843 713 843 726 m 688 803 q 676 776 688 788 q 650 764 665 764 q 622 776 635 764 q 610 803 610 788 q 621 830 610 818 q 649 842 632 842 q 676 830 664 842 q 688 803 688 818 m 838 633 q 828 613 838 621 q 808 604 819 604 q 787 613 797 604 q 776 633 776 621 q 786 654 776 646 q 807 663 796 663 q 828 654 818 663 q 838 633 838 646 m 833 567 q 826 549 833 556 q 808 542 818 542 q 790 549 799 542 q 782 567 782 556 q 790 583 782 576 q 807 590 797 590 q 825 583 817 590 q 833 567 833 576 m 585 775 q 574 749 585 760 q 547 738 563 738 q 521 749 532 738 q 510 775 510 760 q 520 801 510 790 q 546 813 531 813 q 573 801 561 813 q 585 775 585 790 m 485 736 q 475 710 485 721 q 450 700 465 700 q 424 710 435 700 q 413 736 413 721 q 423 762 413 751 q 449 772 433 772 q 474 762 464 772 q 485 736 485 751 m 757 558 q 746 551 758 551 q 732 554 733 551 q 713 634 725 589 q 683 714 700 679 q 565 680 625 701 q 446 631 504 658 q 334 570 388 603 q 238 503 281 538 q 222 490 231 497 q 208 479 214 482 q 199 487 206 478 q 194 499 193 496 q 207 513 197 504 q 222 526 217 522 q 326 599 274 567 q 438 659 379 632 q 562 708 496 686 q 707 750 628 731 q 722 708 714 733 q 736 657 729 683 q 749 605 743 631 q 757 558 754 579 m 400 694 q 391 671 400 681 q 368 661 382 661 q 344 671 354 661 q 335 694 335 681 q 344 717 335 707 q 367 726 353 726 q 390 717 379 726 q 400 694 400 707 m 1592 444 q 1580 412 1586 431 q 1567 375 1574 393 q 1551 332 1560 354 q 1552 288 1557 308 q 1540 257 1547 268 q 1531 244 1538 251 q 1514 231 1525 236 l 1454 90 q 1466 43 1460 72 q 1475 -4 1472 14 q 1467 -35 1478 -22 l 1388 -133 q 1248 -82 1321 -103 q 1101 -49 1175 -61 q 955 -31 1028 -36 q 814 -25 882 -25 q 672 -31 749 -25 q 517 -49 594 -36 q 367 -83 439 -62 q 238 -132 294 -103 q 208 -106 224 -121 q 176 -79 192 -92 q 140 -50 160 -64 q 126 -29 129 -40 q 125 -22 125 -26 q 125 -14 125 -17 q 126 10 125 -7 q 129 44 128 26 q 133 78 131 63 q 135 103 135 94 l 93 236 q 75 250 82 242 q 51 297 56 268 q 60 351 46 325 l 28 444 q 85 460 49 451 q 147 474 122 469 q 136 444 143 463 q 122 406 129 425 q 110 371 115 386 q 104 353 104 356 q 107 349 104 346 q 149 374 125 353 q 186 413 174 396 q 203 325 196 368 q 221 238 211 282 q 189 257 206 250 q 150 271 172 264 q 132 274 139 274 q 154 217 140 244 q 188 169 168 190 q 233 136 207 149 q 293 124 258 124 q 342 132 318 124 q 387 156 367 140 q 419 194 407 171 q 431 244 431 217 q 413 296 431 271 q 367 321 396 321 q 315 300 331 321 q 300 246 300 279 q 304 214 300 231 q 255 250 269 219 q 240 311 240 281 q 270 394 240 360 q 351 429 300 429 q 383 424 371 429 q 410 407 394 418 q 390 450 394 431 q 385 497 385 469 q 397 553 385 526 q 424 601 408 579 q 478 544 460 576 q 497 468 497 513 q 494 439 497 453 q 486 410 490 425 q 524 441 503 426 q 571 456 546 456 q 630 426 606 456 q 654 364 654 397 q 601 276 654 307 q 603 285 603 279 q 586 328 603 310 q 542 347 569 347 q 499 327 514 347 q 485 281 485 307 q 498 236 485 256 q 531 203 511 217 q 576 182 551 189 q 621 175 600 175 q 677 182 649 175 q 728 204 706 189 q 765 244 751 219 q 779 303 779 268 q 778 315 779 310 q 776 326 778 319 q 733 307 757 318 q 686 285 708 296 l 681 454 q 725 425 706 438 q 767 401 744 413 q 771 406 772 399 q 749 468 761 440 q 724 528 738 496 l 885 528 q 858 459 868 492 q 840 404 847 426 q 843 399 838 396 q 886 425 863 410 q 929 456 910 440 l 925 285 q 883 306 903 297 q 840 326 864 315 l 840 301 q 874 206 840 240 q 968 172 908 172 q 1017 179 993 172 q 1060 199 1040 186 q 1091 233 1079 213 q 1103 281 1103 253 q 1088 322 1103 304 q 1049 339 1074 339 q 1013 319 1028 339 q 992 285 999 300 q 967 319 976 300 q 957 360 957 339 q 977 428 957 400 q 1042 456 997 456 q 1087 439 1065 456 q 1124 406 1108 422 q 1119 454 1119 431 q 1140 533 1119 499 q 1193 593 1161 568 q 1222 547 1211 571 q 1232 496 1232 524 q 1223 438 1232 465 q 1199 383 1214 410 q 1232 408 1214 397 q 1272 419 1250 419 q 1336 392 1308 419 q 1364 329 1364 365 q 1356 290 1364 310 q 1333 253 1347 271 q 1302 224 1319 236 q 1267 206 1285 211 q 1278 233 1275 215 q 1282 263 1282 251 q 1233 311 1282 311 q 1208 303 1218 311 q 1190 283 1197 296 q 1180 257 1183 271 q 1176 231 1176 243 q 1206 156 1176 178 q 1279 122 1235 133 q 1299 118 1289 119 q 1318 118 1308 117 q 1419 159 1386 121 q 1472 276 1453 197 q 1422 258 1446 267 q 1374 236 1399 250 q 1398 328 1385 276 q 1422 418 1411 381 q 1454 382 1438 400 q 1489 349 1471 364 q 1496 354 1496 343 q 1492 400 1494 378 q 1487 438 1489 419 q 1482 471 1485 457 q 1541 460 1513 467 q 1592 444 1569 454 m 319 646 q 311 625 319 633 q 292 617 303 617 q 272 625 281 617 q 263 646 263 633 q 271 665 263 657 q 290 674 279 674 q 310 665 301 674 q 319 646 319 657 m 251 596 q 243 576 251 585 q 224 568 235 568 q 204 576 213 568 q 196 596 196 585 q 203 615 196 607 q 222 624 211 624 q 242 615 233 624 q 251 596 251 607 m 193 542 q 186 525 193 532 q 169 518 179 518 q 153 525 160 518 q 146 542 146 532 q 152 558 146 551 q 168 565 158 565 q 185 558 178 565 q 193 542 193 551 m 1344 -157 q 1326 -174 1344 -168 q 1092 -234 1207 -219 q 844 -249 978 -249 q 562 -233 696 -249 q 289 -169 428 -217 q 274 -157 274 -165 q 288 -144 274 -150 q 412 -104 344 -121 q 549 -77 479 -87 q 687 -62 618 -67 q 815 -58 756 -58 q 938 -63 872 -58 q 1072 -78 1004 -68 q 1203 -103 1139 -87 q 1324 -140 1268 -118 q 1344 -157 1344 -147 m 1532 310 q 1530 322 1532 315 q 1521 328 1528 328 q 1508 322 1514 328 q 1499 307 1503 315 q 1492 290 1494 299 q 1490 275 1490 281 q 1492 263 1490 269 q 1501 257 1494 257 q 1514 263 1508 257 q 1524 278 1519 269 q 1530 295 1528 286 q 1532 310 1532 304 m 867 860 q 852 888 864 876 q 824 906 840 899 q 823 894 822 903 q 824 875 824 886 l 824 849 q 844 850 835 847 q 867 860 854 853 m 794 849 l 793 906 q 747 858 758 894 q 794 849 767 849 m 858 815 q 808 828 839 828 q 782 825 796 828 q 757 815 768 822 q 782 795 765 801 q 810 789 799 789 q 836 797 821 789 q 858 815 851 804 m 1449 -8 q 1444 16 1449 -1 q 1433 44 1439 33 l 1390 1 l 1417 -56 q 1437 -29 1425 -43 q 1449 -8 1449 -15 m 1328 54 q 1319 73 1328 65 q 1300 81 1311 81 q 1281 73 1289 81 q 1274 54 1274 65 q 1282 35 1274 43 q 1301 26 1290 26 q 1320 35 1313 26 q 1328 54 1328 43 m 1306 -21 q 1297 -1 1306 -10 q 1276 7 1288 7 q 1257 -1 1265 7 q 1249 -21 1249 -10 q 1258 -40 1249 -32 q 1278 -49 1267 -49 q 1297 -40 1289 -49 q 1306 -21 1306 -32 m 1200 50 q 1182 100 1204 78 q 1124 129 1160 122 q 1059 120 1088 135 q 1026 78 1031 106 q 1044 29 1022 51 q 1103 0 1067 7 q 1167 8 1139 -7 q 1200 50 1196 24 m 832 365 q 825 382 832 375 q 807 389 818 389 q 791 382 797 389 q 785 365 785 375 q 792 349 785 356 q 808 342 799 342 q 825 349 818 342 q 832 365 832 356 m 971 113 q 963 131 971 124 q 943 139 954 139 q 924 131 932 139 q 917 113 917 124 q 925 93 917 101 q 944 85 933 85 q 963 93 956 85 q 971 113 971 101 m 963 35 q 953 54 963 46 q 933 63 944 63 q 913 54 921 63 q 906 35 906 46 q 914 14 906 22 q 933 6 922 6 q 954 14 946 6 q 963 35 963 22 m 850 96 l 831 126 q 816 148 824 138 q 806 158 808 158 q 794 148 801 158 q 781 126 788 138 q 764 96 772 113 q 782 64 774 78 q 796 42 789 51 q 807 32 803 32 q 818 42 811 32 q 832 64 825 51 q 850 96 840 78 m 693 113 q 685 131 693 124 q 665 139 676 139 q 647 131 654 139 q 639 113 639 124 q 647 93 639 101 q 667 85 656 85 q 685 93 678 85 q 693 113 693 101 m 703 33 q 694 53 703 44 q 674 61 685 61 q 654 53 663 61 q 646 33 646 44 q 655 13 646 21 q 675 4 664 4 q 694 13 686 4 q 703 33 703 21 m 576 79 q 544 121 572 106 q 481 129 517 136 q 422 101 444 124 q 404 51 400 78 q 436 9 408 24 q 500 0 464 -6 q 559 29 536 7 q 576 79 582 51 m 114 281 q 111 295 114 286 q 104 313 108 304 q 94 327 100 321 q 82 333 89 333 q 74 325 75 333 q 72 311 72 317 q 74 297 72 306 q 81 281 76 289 q 90 267 85 272 q 103 261 96 261 q 112 268 110 261 q 114 281 114 275 m 319 50 q 311 69 319 61 q 292 78 303 78 q 273 69 281 78 q 265 50 265 61 q 274 31 265 39 q 293 24 282 24 q 319 50 319 24 m 347 -24 q 338 -4 347 -12 q 318 4 329 4 q 299 -4 307 4 q 290 -24 290 -12 q 299 -43 290 -35 q 319 -51 308 -51 q 339 -43 331 -51 q 347 -24 347 -35 m 206 1 l 160 39 q 155 4 157 24 q 153 -18 153 -15 q 170 -40 153 -25 q 201 -65 188 -54 q 206 -26 206 -53 l 206 1 z "},"_":{"ha":771,"x_min":-35,"x_max":806,"o":"m 806 -226 l -35 -226 l -35 -92 l 806 -92 l 806 -226 z "},"`":{"ha":806,"x_min":165,"x_max":513,"o":"m 513 903 l 365 903 l 165 1171 l 389 1171 l 513 903 z "},"a":{"ha":806,"x_min":42,"x_max":736,"o":"m 736 0 l 535 0 l 535 43 q 423 -7 482 7 q 301 -21 364 -21 q 196 -3 243 -21 q 114 47 149 14 q 60 124 79 79 q 42 222 42 168 q 72 341 42 290 q 153 426 101 392 q 273 476 204 460 q 421 493 342 493 l 536 493 q 490 606 536 564 q 358 647 444 647 q 272 632 317 647 q 183 576 228 617 l 65 696 q 213 790 129 757 q 386 824 297 824 q 535 797 469 824 q 640 729 600 771 q 715 611 693 676 q 736 444 736 546 l 736 0 m 535 200 l 535 349 l 443 349 q 365 343 401 349 q 301 324 328 338 q 258 290 274 311 q 242 240 242 269 q 274 172 242 199 q 358 146 307 146 q 447 160 403 146 q 535 200 490 174 z "},"b":{"ha":897,"x_min":83,"x_max":856,"o":"m 856 401 q 827 240 856 317 q 747 106 799 164 q 625 15 696 49 q 469 -19 554 -19 q 371 -5 417 -19 q 285 42 325 10 l 285 0 l 83 0 l 83 1153 l 286 1153 l 286 764 q 369 808 321 792 q 469 825 417 825 q 613 792 543 825 q 736 703 682 760 q 823 569 790 646 q 856 401 856 492 m 653 401 q 636 503 653 457 q 590 581 619 549 q 519 631 560 614 q 428 649 478 649 q 354 635 396 649 q 285 601 313 622 l 285 215 q 432 156 350 156 q 520 174 479 156 q 590 224 561 192 q 636 302 619 257 q 653 401 653 347 z "},"c":{"ha":822,"x_min":56,"x_max":808,"o":"m 808 121 q 661 15 747 51 q 481 -21 575 -21 q 315 11 393 -21 q 180 99 238 43 q 89 233 122 156 q 56 401 56 311 q 89 567 56 490 q 179 701 122 644 q 314 791 236 758 q 481 824 392 824 q 655 790 572 824 q 799 689 738 757 l 664 551 q 590 618 633 592 q 483 644 546 644 q 397 625 438 644 q 324 573 356 606 q 275 496 293 540 q 257 401 257 451 q 275 307 257 351 q 324 230 293 263 q 396 178 354 197 q 483 158 438 158 q 592 187 543 158 q 669 260 640 215 l 808 121 z "},"d":{"ha":911,"x_min":56,"x_max":828,"o":"m 828 0 l 624 0 l 624 42 q 539 -5 585 10 q 442 -19 493 -19 q 286 15 357 -19 q 164 106 215 49 q 84 240 113 164 q 56 401 56 317 q 88 569 56 492 q 175 703 121 646 q 299 792 229 760 q 442 825 368 825 q 542 811 493 825 q 625 772 590 797 l 625 1153 l 828 1153 l 828 0 m 626 215 l 626 601 q 594 620 613 611 q 557 635 576 629 q 518 645 538 642 q 483 649 499 649 q 392 631 433 649 q 321 581 351 614 q 274 503 290 549 q 257 401 257 457 q 274 302 257 347 q 319 224 290 257 q 390 174 349 192 q 479 156 431 156 q 626 215 558 156 z "},"e":{"ha":954,"x_min":56,"x_max":913,"o":"m 913 403 q 910 363 913 383 q 906 319 908 342 l 264 319 q 295 253 275 285 q 344 199 315 222 q 410 163 374 176 q 492 150 447 150 q 600 169 546 150 q 690 219 654 188 l 817 93 q 653 5 733 31 q 485 -21 574 -21 q 316 13 394 -21 q 180 103 238 46 q 89 237 122 160 q 56 401 56 314 q 89 566 56 489 q 181 700 122 643 q 317 790 239 757 q 483 824 394 824 q 646 792 568 824 q 783 706 724 761 q 878 573 843 650 q 913 403 913 496 m 703 481 q 619 603 679 557 q 482 650 558 650 q 347 603 407 650 q 264 481 288 557 l 703 481 z "},"f":{"ha":510,"x_min":28,"x_max":531,"o":"m 531 969 q 479 984 501 981 q 431 988 457 988 q 348 961 372 988 q 324 865 324 935 l 324 801 l 450 801 l 450 626 l 324 626 l 324 0 l 125 0 l 125 626 l 28 626 l 28 801 l 125 801 l 125 863 q 181 1093 125 1014 q 379 1172 238 1172 q 531 1153 460 1172 l 531 969 z "},"g":{"ha":835,"x_min":49,"x_max":821,"o":"m 821 644 l 736 644 q 768 511 768 582 q 748 406 768 457 q 690 314 728 356 q 599 243 653 272 q 479 204 546 214 q 410 183 433 197 q 388 153 388 168 q 410 126 388 139 q 479 110 433 114 q 720 32 635 96 q 806 -137 806 -32 q 779 -237 806 -192 q 703 -317 753 -283 q 585 -368 654 -350 q 429 -386 515 -386 q 272 -368 342 -386 q 151 -317 201 -350 q 75 -239 101 -285 q 49 -137 49 -193 q 97 2 49 -54 q 253 86 144 58 q 205 120 219 99 q 192 164 190 142 q 210 206 193 186 q 260 238 228 226 q 191 281 224 254 q 132 342 158 307 q 90 419 106 376 q 75 511 75 463 q 103 633 75 576 q 178 733 131 690 q 288 799 225 775 q 419 824 350 824 q 546 803 488 824 l 821 803 l 821 644 m 569 511 q 558 568 569 542 q 526 615 546 594 q 478 647 506 635 q 421 658 451 658 q 364 647 390 658 q 317 615 338 635 q 285 568 297 594 q 274 511 274 542 q 285 453 274 481 q 317 406 297 426 q 364 374 338 386 q 421 363 390 363 q 478 374 451 363 q 526 406 506 386 q 558 453 546 426 q 569 511 569 481 m 606 -137 q 556 -67 606 -89 q 429 -44 507 -44 q 298 -68 346 -44 q 250 -137 250 -92 q 300 -208 250 -185 q 429 -232 350 -232 q 558 -209 510 -232 q 606 -137 606 -186 z "},"h":{"ha":879,"x_min":83,"x_max":810,"o":"m 810 0 l 610 0 l 610 481 q 597 556 610 524 q 562 610 583 589 q 512 642 540 632 q 453 653 483 653 q 365 639 407 653 q 285 600 324 625 l 285 0 l 83 0 l 83 1151 l 285 1151 l 285 757 q 388 808 329 792 q 500 825 446 825 q 618 805 563 825 q 717 744 674 785 q 785 641 760 703 q 810 494 810 579 l 810 0 z "},"i":{"ha":389,"x_min":83,"x_max":292,"o":"m 292 943 l 83 943 l 83 1151 l 292 1151 l 292 943 m 289 0 l 86 0 l 86 804 l 289 804 l 289 0 z "},"j":{"ha":406,"x_min":-69,"x_max":308,"o":"m 308 943 l 100 943 l 100 1151 l 308 1151 l 308 943 m 306 -42 q 284 -183 306 -121 q 223 -284 263 -244 q 126 -340 183 -324 q -3 -343 68 -356 l -69 -156 q -8 -167 -39 -165 q 48 -156 24 -168 q 88 -117 72 -144 q 103 -39 103 -89 l 103 804 l 306 804 l 306 -42 z "},"k":{"ha":833,"x_min":83,"x_max":847,"o":"m 847 0 l 610 0 l 288 360 l 288 0 l 83 0 l 83 1151 l 288 1151 l 288 463 l 568 803 l 801 803 l 472 413 l 847 0 z "},"l":{"ha":436,"x_min":83,"x_max":422,"o":"m 422 4 q 369 -14 399 -7 q 307 -21 339 -21 q 222 -9 263 -21 q 150 29 181 3 q 101 98 119 56 q 83 200 83 140 l 83 1153 l 288 1153 l 288 235 q 308 166 288 185 q 356 147 328 147 q 422 168 390 147 l 422 4 z "},"m":{"ha":1340,"x_min":83,"x_max":1271,"o":"m 1271 0 l 1072 0 l 1072 479 q 1031 608 1072 564 q 931 651 990 651 q 844 637 885 651 q 764 589 803 622 q 776 479 776 540 l 776 0 l 576 0 l 576 479 q 535 608 576 564 q 436 651 494 651 q 356 635 390 651 q 283 585 321 619 l 283 0 l 83 0 l 83 803 l 283 803 l 283 743 q 372 801 321 779 q 475 824 422 824 q 592 797 533 824 q 696 721 651 771 q 822 800 758 776 q 963 824 886 824 q 1081 805 1025 824 q 1179 745 1138 786 q 1246 641 1221 704 q 1271 489 1271 578 l 1271 0 z "},"n":{"ha":883,"x_min":83,"x_max":814,"o":"m 814 0 l 614 0 l 614 479 q 601 555 614 522 q 565 609 588 588 q 515 641 543 631 q 456 651 486 651 q 365 635 410 651 q 285 585 321 619 l 285 0 l 83 0 l 83 803 l 285 803 l 285 743 q 329 776 303 761 q 384 802 356 792 q 442 818 413 813 q 500 824 472 824 q 617 804 561 824 q 717 744 674 785 q 788 640 761 704 q 814 489 814 576 l 814 0 z "},"o":{"ha":954,"x_min":56,"x_max":913,"o":"m 913 401 q 879 234 913 311 q 788 101 846 157 q 651 12 729 44 q 483 -21 572 -21 q 317 12 394 -21 q 181 101 239 44 q 89 235 122 158 q 56 401 56 313 q 90 566 56 489 q 182 701 124 643 q 318 791 240 758 q 483 824 396 824 q 651 791 572 824 q 788 702 729 758 q 879 568 846 646 q 913 401 913 490 m 713 401 q 694 497 713 453 q 645 575 676 542 q 572 627 614 608 q 483 646 531 646 q 394 627 436 646 q 322 575 353 608 q 272 497 290 542 q 254 401 254 453 q 272 306 254 350 q 322 228 290 261 q 394 176 353 194 q 483 157 436 157 q 572 176 531 157 q 645 228 614 194 q 694 306 676 261 q 713 401 713 350 z "},"p":{"ha":897,"x_min":83,"x_max":856,"o":"m 856 400 q 827 239 856 315 q 747 105 799 163 q 625 13 696 47 q 469 -21 554 -21 q 371 -6 417 -21 q 285 40 325 8 l 286 -349 l 83 -349 l 83 804 l 286 804 l 286 763 q 369 807 321 790 q 469 824 417 824 q 613 791 543 824 q 736 701 682 758 q 823 567 790 644 q 856 400 856 490 m 651 399 q 635 501 651 456 q 588 580 618 547 q 517 630 558 613 q 426 647 476 647 q 353 634 394 647 q 285 599 313 621 l 285 214 q 431 154 350 154 q 519 172 478 154 q 589 223 560 190 q 635 301 618 256 q 651 399 651 346 z "},"q":{"ha":910,"x_min":56,"x_max":826,"o":"m 826 -349 l 625 -349 l 625 40 q 540 -6 586 8 q 442 -21 493 -21 q 286 13 357 -21 q 164 105 215 47 q 84 239 113 163 q 56 400 56 315 q 88 567 56 490 q 175 701 121 644 q 299 791 229 758 q 442 824 368 824 q 542 810 493 824 q 625 771 590 796 l 625 804 l 826 804 l 826 -349 m 626 214 l 626 599 q 557 634 599 621 q 483 647 515 647 q 392 630 433 647 q 321 580 351 613 q 274 501 290 547 q 257 399 257 456 q 274 301 257 346 q 319 223 290 256 q 390 172 349 190 q 479 154 431 154 q 626 214 558 154 z "},"r":{"ha":647,"x_min":83,"x_max":661,"o":"m 661 719 l 554 550 q 490 606 525 582 q 418 631 454 631 q 376 622 399 631 q 333 592 353 613 q 299 537 313 571 q 285 453 285 503 l 285 0 l 83 0 l 83 803 l 285 803 l 285 717 q 365 796 321 768 q 463 824 408 824 q 566 795 515 824 q 661 719 617 767 z "},"s":{"ha":713,"x_min":56,"x_max":671,"o":"m 671 225 q 643 119 671 165 q 571 41 615 72 q 471 -6 526 10 q 361 -22 415 -22 q 192 12 269 -22 q 57 121 115 46 l 178 243 q 261 172 214 197 q 363 146 308 146 q 441 163 410 146 q 472 215 472 181 q 428 276 472 251 q 303 324 383 300 q 211 359 256 338 q 132 412 167 381 q 76 483 97 443 q 56 576 56 524 q 83 681 56 635 q 153 759 110 728 q 253 807 197 790 q 365 824 308 824 q 665 685 549 824 l 546 564 q 467 632 511 607 q 369 657 422 657 q 331 652 351 657 q 294 638 311 647 q 265 615 276 629 q 254 582 254 600 q 297 526 254 550 q 418 479 339 503 q 515 440 469 464 q 596 385 561 417 q 651 315 631 354 q 671 225 671 275 z "},"t":{"ha":565,"x_min":21,"x_max":531,"o":"m 531 18 q 460 -11 500 -1 q 379 -21 419 -21 q 260 -3 308 -21 q 182 50 211 14 q 140 142 153 86 q 126 272 126 197 l 126 624 l 21 624 l 21 714 q 178 833 118 754 q 261 1039 239 913 l 326 1039 l 326 804 l 529 804 l 529 624 l 326 624 l 326 258 q 334 208 326 228 q 354 178 342 189 q 383 163 367 167 q 417 158 399 158 q 474 167 440 158 q 531 194 507 175 l 531 18 z "},"u":{"ha":878,"x_min":69,"x_max":794,"o":"m 794 0 l 594 0 l 594 61 q 549 27 575 42 q 495 2 524 13 q 437 -14 467 -8 q 381 -19 407 -19 q 263 0 319 -19 q 164 60 207 19 q 95 164 121 100 q 69 315 69 228 l 69 803 l 269 803 l 269 325 q 283 249 269 282 q 317 195 296 217 q 367 163 339 174 q 426 153 396 153 q 594 219 524 153 l 594 803 l 794 803 l 794 0 z "},"v":{"ha":829,"x_min":21,"x_max":822,"o":"m 822 803 l 521 -1 l 324 -1 l 21 803 l 240 803 l 422 264 l 604 803 l 822 803 z "},"w":{"ha":1235,"x_min":21,"x_max":1228,"o":"m 1228 804 l 958 -1 l 785 -1 l 625 478 l 465 -1 l 292 -1 l 21 804 l 232 804 l 383 301 l 535 804 l 713 804 l 865 301 l 1017 804 l 1228 804 z "},"x":{"ha":821,"x_min":21,"x_max":814,"o":"m 814 -1 l 585 -1 l 418 256 l 250 -1 l 21 -1 l 307 419 l 44 804 l 271 804 l 418 579 l 564 804 l 792 804 l 528 419 l 814 -1 z "},"y":{"ha":819,"x_min":21,"x_max":813,"o":"m 813 804 l 451 -150 q 346 -304 411 -257 q 190 -351 281 -351 q 160 -349 176 -351 q 128 -343 143 -347 l 61 -157 q 110 -174 85 -168 q 157 -181 135 -181 q 243 -159 204 -181 q 303 -79 282 -137 l 331 1 l 21 804 l 239 804 l 424 288 l 597 804 l 813 804 z "},"z":{"ha":774,"x_min":28,"x_max":753,"o":"m 753 804 l 354 179 l 738 179 l 738 0 l 28 0 l 418 625 l 65 625 l 65 804 l 753 804 z "},"{":{"ha":561,"x_min":42,"x_max":540,"o":"m 540 -383 l 457 -383 q 315 -353 367 -383 q 239 -272 264 -322 q 207 -159 214 -222 q 200 -29 200 -96 q 200 101 200 38 q 186 214 200 164 q 140 294 172 264 q 42 324 107 324 l 42 481 q 138 510 106 481 q 182 590 169 540 q 195 703 194 640 q 197 833 196 767 q 206 963 199 899 q 241 1076 214 1026 q 322 1156 268 1125 q 468 1186 375 1186 l 540 1186 l 540 1001 l 486 1001 q 405 941 424 1001 q 386 769 386 881 q 385 665 386 719 q 372 560 383 611 q 335 468 361 510 q 261 403 310 426 q 335 345 308 382 q 372 262 361 308 q 385 162 383 215 q 388 54 388 108 q 408 -134 388 -71 q 486 -197 429 -197 l 540 -197 l 540 -383 z "},"|":{"ha":371,"x_min":114,"x_max":285,"o":"m 285 -271 l 114 -271 l 114 1210 l 285 1210 l 285 -271 z "},"}":{"ha":561,"x_min":21,"x_max":519,"o":"m 519 324 q 422 294 454 324 q 375 214 389 264 q 361 101 361 164 q 361 -29 361 38 q 354 -159 361 -96 q 322 -272 347 -222 q 246 -353 297 -322 q 104 -383 194 -383 l 21 -383 l 21 -197 l 75 -197 q 153 -134 132 -197 q 174 54 174 -71 q 176 162 174 108 q 189 262 178 215 q 226 345 200 308 q 300 403 251 382 q 226 468 251 426 q 189 560 200 510 q 176 665 178 611 q 175 769 175 719 q 156 941 175 881 q 75 1001 138 1001 l 21 1001 l 21 1186 l 93 1186 q 240 1156 186 1186 q 320 1076 293 1125 q 355 963 347 1026 q 364 833 363 899 q 366 703 365 767 q 379 590 367 640 q 424 510 392 540 q 519 481 456 481 l 519 324 z "},"~":{"ha":904,"x_min":35,"x_max":869,"o":"m 869 475 q 761 404 817 431 q 631 378 706 378 q 524 394 572 378 q 431 429 475 410 q 346 465 388 449 q 261 481 304 481 q 195 471 225 481 q 138 446 165 461 q 86 410 111 431 q 35 368 61 390 l 35 585 q 275 688 135 688 q 376 672 328 688 q 471 637 425 656 q 560 603 517 618 q 644 588 603 588 q 709 597 679 588 q 767 624 739 607 q 819 661 794 640 q 869 703 844 682 l 869 475 z "},"":{"ha":446,"x_min":0,"x_max":0,"o":""},"Ä":{"ha":1232,"x_min":14,"x_max":1232,"o":"m 872 1210 l 692 1210 l 692 1390 l 872 1390 l 872 1210 m 553 1210 l 372 1210 l 372 1390 l 553 1390 l 553 1210 m 1232 0 l 996 0 l 893 222 l 354 222 l 250 0 l 14 0 l 539 1111 l 707 1111 l 1232 0 m 808 401 l 624 801 l 436 401 l 808 401 z "},"Å":{"ha":1232,"x_min":14,"x_max":1232,"o":"m 789 1375 q 776 1310 789 1340 q 740 1258 763 1281 q 688 1223 718 1236 q 624 1210 657 1210 q 560 1223 590 1210 q 508 1258 531 1236 q 473 1310 486 1281 q 460 1375 460 1340 q 473 1438 460 1408 q 508 1490 486 1468 q 560 1526 531 1513 q 624 1539 590 1539 q 688 1526 657 1539 q 740 1490 718 1513 q 776 1438 763 1468 q 789 1375 789 1408 m 1232 0 l 996 0 l 893 222 l 354 222 l 250 0 l 14 0 l 539 1111 l 707 1111 l 1232 0 m 685 1375 q 667 1417 685 1400 q 624 1435 649 1435 q 581 1417 599 1435 q 563 1375 563 1400 q 581 1331 563 1349 q 624 1314 599 1314 q 667 1331 649 1314 q 685 1375 685 1349 m 808 401 l 624 801 l 436 401 l 808 401 z "},"Ç":{"ha":1128,"x_min":69,"x_max":1128,"o":"m 1128 200 q 947 51 1051 108 q 715 -18 842 -7 l 701 -79 q 803 -132 771 -90 q 836 -222 836 -174 q 826 -269 836 -246 q 795 -312 815 -293 q 748 -344 775 -332 q 688 -357 721 -357 q 612 -347 644 -357 q 550 -314 579 -337 l 560 -267 q 586 -278 571 -274 q 615 -283 601 -283 q 675 -262 651 -283 q 699 -212 699 -240 q 676 -158 699 -181 q 615 -136 653 -136 q 598 -137 607 -136 q 582 -140 589 -139 l 606 -18 q 394 40 492 -8 q 224 166 296 89 q 110 343 151 243 q 69 556 69 443 q 116 781 69 676 q 243 965 163 886 q 432 1088 324 1043 q 664 1132 540 1132 q 926 1072 807 1132 q 1124 917 1044 1013 l 975 764 q 842 883 924 838 q 664 928 761 928 q 517 898 586 928 q 397 817 449 868 q 316 699 346 767 q 286 556 286 632 q 316 413 286 481 q 397 295 346 346 q 517 215 449 244 q 664 185 586 185 q 846 231 767 185 q 978 354 925 278 l 1128 200 z "},"É":{"ha":900,"x_min":111,"x_max":844,"o":"m 718 1478 l 518 1210 l 371 1210 l 496 1478 l 718 1478 m 844 0 l 111 0 l 111 1110 l 844 1110 l 844 932 l 322 932 l 322 667 l 838 667 l 838 493 l 322 493 l 322 188 l 844 188 l 844 0 z "},"Ñ":{"ha":1132,"x_min":111,"x_max":1035,"o":"m 860 1447 q 849 1362 858 1404 q 817 1285 839 1319 q 760 1231 794 1251 q 676 1210 726 1210 q 617 1219 644 1210 q 563 1240 589 1229 q 512 1261 538 1251 q 461 1271 486 1271 q 424 1251 436 1271 q 408 1210 411 1232 l 289 1210 q 299 1294 289 1251 q 331 1370 310 1336 q 388 1426 353 1404 q 471 1447 422 1447 q 530 1438 501 1447 q 585 1417 558 1428 q 635 1396 611 1406 q 681 1386 660 1386 q 722 1404 708 1386 q 740 1447 736 1422 l 860 1447 m 1035 0 l 824 0 l 322 779 l 322 0 l 111 0 l 111 1111 l 353 1111 l 824 386 l 824 1111 l 1035 1111 l 1035 0 z "},"Ö":{"ha":1304,"x_min":69,"x_max":1249,"o":"m 904 1210 l 724 1210 l 724 1390 l 904 1390 l 904 1210 m 585 1210 l 404 1210 l 404 1390 l 585 1390 l 585 1210 m 1249 556 q 1202 331 1249 436 q 1075 147 1156 225 q 888 24 994 69 q 660 -21 781 -21 q 431 24 539 -21 q 243 147 324 69 q 116 330 163 225 q 69 556 69 435 q 116 782 69 676 q 243 965 163 888 q 431 1088 324 1043 q 660 1132 539 1132 q 888 1088 781 1132 q 1075 965 994 1043 q 1202 781 1156 886 q 1249 556 1249 676 m 1032 556 q 1003 699 1032 632 q 923 817 974 767 q 804 898 872 868 q 660 928 736 928 q 514 898 582 928 q 395 817 446 868 q 315 699 344 767 q 286 556 286 632 q 315 413 286 481 q 395 294 344 344 q 514 213 446 243 q 660 183 582 183 q 804 213 736 183 q 923 294 872 243 q 1003 413 974 344 q 1032 556 1032 481 z "},"Ü":{"ha":1154,"x_min":97,"x_max":1085,"o":"m 839 1210 l 658 1210 l 658 1390 l 839 1390 l 839 1210 m 519 1210 l 339 1210 l 339 1390 l 519 1390 l 519 1210 m 1085 1111 l 1085 508 q 1051 301 1085 397 q 955 134 1018 206 q 801 22 892 63 q 593 -19 710 -19 q 388 21 479 -19 q 231 131 296 61 q 132 297 167 201 q 97 501 97 392 l 97 1111 l 313 1111 l 313 500 q 331 380 313 436 q 383 282 349 324 q 470 216 418 240 q 589 192 522 192 q 712 215 660 192 q 798 278 764 238 q 849 375 832 319 q 867 497 867 431 l 867 1111 l 1085 1111 z "},"á":{"ha":806,"x_min":42,"x_max":736,"o":"m 633 1171 l 433 903 l 286 903 l 411 1171 l 633 1171 m 736 0 l 535 0 l 535 43 q 423 -7 482 7 q 301 -21 364 -21 q 196 -3 243 -21 q 114 47 149 14 q 60 124 79 79 q 42 222 42 168 q 72 341 42 290 q 153 426 101 392 q 273 476 204 460 q 421 493 342 493 l 536 493 q 490 606 536 564 q 358 647 444 647 q 272 632 317 647 q 183 576 228 617 l 65 696 q 213 790 129 757 q 386 824 297 824 q 535 797 469 824 q 640 729 600 771 q 715 611 693 676 q 736 444 736 546 l 736 0 m 535 200 l 535 349 l 443 349 q 365 343 401 349 q 301 324 328 338 q 258 290 274 311 q 242 240 242 269 q 274 172 242 199 q 358 146 307 146 q 447 160 403 146 q 535 200 490 174 z "},"à":{"ha":806,"x_min":42,"x_max":736,"o":"m 513 903 l 365 903 l 165 1171 l 389 1171 l 513 903 m 736 0 l 535 0 l 535 43 q 423 -7 482 7 q 301 -21 364 -21 q 196 -3 243 -21 q 114 47 149 14 q 60 124 79 79 q 42 222 42 168 q 72 341 42 290 q 153 426 101 392 q 273 476 204 460 q 421 493 342 493 l 536 493 q 490 606 536 564 q 358 647 444 647 q 272 632 317 647 q 183 576 228 617 l 65 696 q 213 790 129 757 q 386 824 297 824 q 535 797 469 824 q 640 729 600 771 q 715 611 693 676 q 736 444 736 546 l 736 0 m 535 200 l 535 349 l 443 349 q 365 343 401 349 q 301 324 328 338 q 258 290 274 311 q 242 240 242 269 q 274 172 242 199 q 358 146 307 146 q 447 160 403 146 q 535 200 490 174 z "},"â":{"ha":806,"x_min":42,"x_max":736,"o":"m 664 903 l 514 903 l 396 1021 l 276 903 l 126 903 l 306 1171 l 485 1171 l 664 903 m 736 0 l 535 0 l 535 43 q 423 -7 482 7 q 301 -21 364 -21 q 196 -3 243 -21 q 114 47 149 14 q 60 124 79 79 q 42 222 42 168 q 72 342 42 290 q 153 427 101 393 q 273 478 204 461 q 421 493 342 494 l 536 493 q 491 606 536 565 q 358 647 446 647 q 272 632 317 647 q 183 576 228 617 l 65 696 q 213 790 129 757 q 386 824 297 824 q 535 797 469 824 q 640 729 600 771 q 715 611 693 676 q 736 444 736 546 l 736 0 m 535 200 l 535 349 l 443 349 q 365 343 401 349 q 301 324 328 338 q 258 290 274 311 q 242 240 242 269 q 274 172 242 199 q 358 146 307 146 q 447 160 403 146 q 535 200 490 174 z "},"ä":{"ha":806,"x_min":42,"x_max":736,"o":"m 642 903 l 461 903 l 461 1083 l 642 1083 l 642 903 m 322 903 l 142 903 l 142 1083 l 322 1083 l 322 903 m 736 0 l 535 0 l 535 43 q 423 -7 482 7 q 301 -21 364 -21 q 196 -3 243 -21 q 114 47 149 14 q 60 124 79 79 q 42 222 42 168 q 72 341 42 290 q 153 426 101 392 q 273 476 204 460 q 421 493 342 493 l 536 493 q 490 606 536 564 q 358 647 444 647 q 272 632 317 647 q 183 576 228 617 l 65 696 q 213 790 129 757 q 386 824 297 824 q 535 797 469 824 q 640 729 600 771 q 715 611 693 676 q 736 444 736 546 l 736 0 m 535 200 l 535 349 l 443 349 q 365 343 401 349 q 301 324 328 338 q 258 290 274 311 q 242 240 242 269 q 274 172 242 199 q 358 146 307 146 q 447 160 403 146 q 535 200 490 174 z "},"ã":{"ha":806,"x_min":42,"x_max":736,"o":"m 692 1140 q 681 1055 690 1097 q 649 978 671 1013 q 592 924 626 944 q 508 903 558 903 q 449 913 476 903 q 394 933 421 922 q 343 954 368 944 q 293 964 318 964 q 256 944 268 964 q 240 903 243 925 l 121 903 q 131 987 121 944 q 163 1063 142 1029 q 219 1119 185 1097 q 303 1140 254 1140 q 362 1131 333 1140 q 417 1110 390 1121 q 467 1089 443 1099 q 513 1079 492 1079 q 554 1097 540 1079 q 572 1140 568 1115 l 692 1140 m 736 0 l 535 0 l 535 43 q 423 -7 482 7 q 301 -21 364 -21 q 196 -3 243 -21 q 114 47 149 14 q 60 124 79 79 q 42 222 42 168 q 72 341 42 290 q 153 426 101 392 q 273 476 204 460 q 421 493 342 493 l 536 493 q 490 606 536 564 q 358 647 444 647 q 272 632 317 647 q 183 576 228 617 l 65 696 q 213 790 129 757 q 386 824 297 824 q 535 797 469 824 q 640 729 600 771 q 715 611 693 676 q 736 444 736 546 l 736 0 m 535 200 l 535 349 l 443 349 q 365 343 401 349 q 301 324 328 338 q 258 290 274 311 q 242 240 242 269 q 274 172 242 199 q 358 146 307 146 q 447 160 403 146 q 535 200 490 174 z "},"å":{"ha":806,"x_min":42,"x_max":736,"o":"m 564 1068 q 551 1003 564 1033 q 515 951 538 974 q 463 916 493 929 q 399 903 432 903 q 335 916 365 903 q 283 951 306 929 q 248 1003 261 974 q 235 1068 235 1033 q 248 1131 235 1101 q 283 1183 261 1161 q 335 1219 306 1206 q 399 1232 365 1232 q 463 1219 432 1232 q 515 1183 493 1206 q 551 1131 538 1161 q 564 1068 564 1101 m 736 0 l 535 0 l 535 43 q 423 -7 482 7 q 301 -21 364 -21 q 196 -3 243 -21 q 114 47 149 14 q 60 124 79 79 q 42 222 42 168 q 72 342 42 290 q 153 427 101 393 q 273 478 204 461 q 421 493 342 494 l 536 493 q 491 606 536 565 q 358 647 446 647 q 272 632 317 647 q 183 576 228 617 l 65 696 q 213 790 129 757 q 386 824 297 824 q 535 797 469 824 q 640 729 600 771 q 715 611 693 676 q 736 444 736 546 l 736 0 m 460 1068 q 442 1110 460 1093 q 399 1128 424 1128 q 356 1110 374 1128 q 338 1068 338 1093 q 356 1024 338 1042 q 399 1007 374 1007 q 442 1024 424 1007 q 460 1068 460 1042 m 535 200 l 535 349 l 443 349 q 365 343 401 349 q 301 324 328 338 q 258 290 274 311 q 242 240 242 269 q 274 172 242 199 q 358 146 307 146 q 447 160 403 146 q 535 200 490 174 z "},"ç":{"ha":822,"x_min":56,"x_max":808,"o":"m 808 121 q 685 27 756 63 q 535 -18 614 -8 l 521 -79 q 623 -132 590 -90 q 656 -222 656 -174 q 645 -269 656 -246 q 615 -312 635 -293 q 567 -344 594 -332 q 507 -357 540 -357 q 431 -347 464 -357 q 369 -314 399 -337 l 379 -267 q 406 -278 390 -274 q 435 -283 421 -283 q 494 -262 471 -283 q 518 -212 518 -240 q 495 -158 518 -181 q 435 -136 472 -136 q 417 -137 426 -136 q 401 -140 408 -139 l 425 -18 q 280 27 347 -8 q 163 118 213 63 q 84 246 113 174 q 56 401 56 318 q 89 567 56 490 q 179 701 122 644 q 314 791 236 758 q 481 824 392 824 q 655 790 572 824 q 799 689 738 757 l 664 551 q 590 618 633 592 q 483 644 546 644 q 397 625 438 644 q 324 573 356 606 q 275 496 293 540 q 257 401 257 451 q 275 307 257 351 q 324 230 293 263 q 396 178 354 197 q 483 158 438 158 q 592 187 543 158 q 669 260 640 215 l 808 121 z "},"é":{"ha":954,"x_min":56,"x_max":913,"o":"m 704 1171 l 504 903 l 357 903 l 482 1171 l 704 1171 m 913 403 q 910 363 913 383 q 906 319 908 342 l 264 319 q 295 253 275 285 q 344 199 315 222 q 410 163 374 176 q 492 150 447 150 q 600 169 546 150 q 690 219 654 188 l 817 93 q 653 5 733 31 q 485 -21 574 -21 q 316 13 394 -21 q 180 103 238 46 q 89 237 122 160 q 56 401 56 314 q 89 566 56 489 q 181 700 122 643 q 317 790 239 757 q 483 824 394 824 q 646 792 568 824 q 783 706 724 761 q 878 573 843 650 q 913 403 913 496 m 703 481 q 619 603 679 557 q 482 650 558 650 q 347 603 407 650 q 264 481 288 557 l 703 481 z "},"è":{"ha":954,"x_min":56,"x_max":913,"o":"m 606 903 l 458 903 l 258 1171 l 482 1171 l 606 903 m 913 403 q 910 363 913 383 q 906 319 908 342 l 264 319 q 295 253 275 285 q 344 199 315 222 q 410 163 374 176 q 492 150 447 150 q 600 169 546 150 q 690 219 654 188 l 817 93 q 653 5 733 31 q 485 -21 574 -21 q 316 13 394 -21 q 180 103 238 46 q 89 237 122 160 q 56 401 56 314 q 89 566 56 489 q 181 700 122 643 q 317 790 239 757 q 483 824 394 824 q 646 792 568 824 q 783 706 724 761 q 878 573 843 650 q 913 403 913 496 m 703 481 q 619 603 679 557 q 482 650 558 650 q 347 603 407 650 q 264 481 288 557 l 703 481 z "},"ê":{"ha":954,"x_min":56,"x_max":913,"o":"m 750 903 l 600 903 l 482 1021 l 363 903 l 213 903 l 392 1171 l 571 1171 l 750 903 m 913 403 q 910 363 913 383 q 906 319 908 342 l 264 319 q 295 253 275 285 q 344 199 315 222 q 410 163 374 176 q 492 150 447 150 q 600 169 546 150 q 690 219 654 188 l 817 93 q 653 5 733 31 q 485 -21 574 -21 q 316 13 394 -21 q 180 103 238 46 q 89 237 122 160 q 56 401 56 314 q 89 566 56 489 q 181 700 122 643 q 317 790 239 757 q 483 824 394 824 q 646 792 568 824 q 783 706 724 761 q 878 573 843 650 q 913 403 913 496 m 703 481 q 619 603 679 557 q 482 650 558 650 q 347 603 407 650 q 264 481 288 557 l 703 481 z "},"ë":{"ha":954,"x_min":56,"x_max":913,"o":"m 729 903 l 549 903 l 549 1083 l 729 1083 l 729 903 m 410 903 l 229 903 l 229 1083 l 410 1083 l 410 903 m 913 403 q 910 363 913 383 q 906 319 908 342 l 264 319 q 295 253 275 285 q 344 199 315 222 q 410 163 374 176 q 492 150 447 150 q 600 169 546 150 q 690 219 654 188 l 817 93 q 653 5 733 31 q 485 -21 574 -21 q 316 13 394 -21 q 180 103 238 46 q 89 237 122 160 q 56 401 56 314 q 89 566 56 489 q 181 700 122 643 q 317 790 239 757 q 483 824 394 824 q 646 792 568 824 q 783 706 724 761 q 878 573 843 650 q 913 403 913 496 m 703 481 q 619 603 679 557 q 482 650 558 650 q 347 603 407 650 q 264 481 288 557 l 703 481 z "},"í":{"ha":389,"x_min":42,"x_max":389,"o":"m 389 1171 l 189 903 l 42 903 l 167 1171 l 389 1171 m 289 0 l 86 0 l 86 804 l 289 804 l 289 0 z "},"ì":{"ha":389,"x_min":-14,"x_max":333,"o":"m 333 903 l 186 903 l -14 1171 l 210 1171 l 333 903 m 289 0 l 86 0 l 86 804 l 289 804 l 289 0 z "},"î":{"ha":389,"x_min":-82,"x_max":456,"o":"m 456 903 l 306 903 l 188 1021 l 68 903 l -82 903 l 97 1171 l 276 1171 l 456 903 m 289 0 l 86 0 l 86 804 l 289 804 l 289 0 z "},"ï":{"ha":389,"x_min":-61,"x_max":439,"o":"m 439 903 l 258 903 l 258 1083 l 439 1083 l 439 903 m 119 903 l -61 903 l -61 1083 l 119 1083 l 119 903 m 289 0 l 86 0 l 86 804 l 289 804 l 289 0 z "},"ñ":{"ha":883,"x_min":83,"x_max":814,"o":"m 739 1140 q 728 1055 738 1097 q 696 978 718 1013 q 640 924 674 944 q 556 903 606 903 q 496 913 524 903 q 442 933 468 922 q 390 954 415 944 q 340 964 365 964 q 303 944 315 964 q 288 903 290 925 l 168 903 q 178 987 168 944 q 210 1063 189 1029 q 267 1119 232 1097 q 350 1140 301 1140 q 409 1131 381 1140 q 464 1110 438 1121 q 515 1089 490 1099 q 560 1079 539 1079 q 601 1097 588 1079 q 619 1140 615 1115 l 739 1140 m 814 0 l 614 0 l 614 479 q 601 555 614 522 q 565 609 588 588 q 515 641 543 631 q 456 651 486 651 q 365 635 410 651 q 285 585 321 619 l 285 0 l 83 0 l 83 803 l 285 803 l 285 743 q 329 776 303 761 q 384 802 356 792 q 442 818 413 813 q 500 824 472 824 q 617 804 561 824 q 717 744 674 785 q 788 640 761 704 q 814 489 814 576 l 814 0 z "},"ó":{"ha":954,"x_min":56,"x_max":913,"o":"m 703 1171 l 503 903 l 356 903 l 481 1171 l 703 1171 m 913 401 q 879 234 913 311 q 788 101 846 157 q 651 12 729 44 q 483 -21 572 -21 q 317 12 394 -21 q 181 101 239 44 q 89 235 122 158 q 56 401 56 313 q 90 566 56 489 q 182 701 124 643 q 318 791 240 758 q 483 824 396 824 q 651 791 572 824 q 788 702 729 758 q 879 568 846 646 q 913 401 913 490 m 713 401 q 694 497 713 453 q 645 575 676 542 q 572 627 614 608 q 483 646 531 646 q 394 627 436 646 q 322 575 353 608 q 272 497 290 542 q 254 401 254 453 q 272 306 254 350 q 322 228 290 261 q 394 176 353 194 q 483 157 436 157 q 572 176 531 157 q 645 228 614 194 q 694 306 676 261 q 713 401 713 350 z "},"ò":{"ha":954,"x_min":56,"x_max":913,"o":"m 615 903 l 468 903 l 268 1171 l 492 1171 l 615 903 m 913 401 q 879 234 913 311 q 788 101 846 157 q 651 12 729 44 q 483 -21 572 -21 q 317 12 394 -21 q 181 101 239 44 q 89 235 122 158 q 56 401 56 313 q 90 566 56 489 q 182 701 124 643 q 318 791 240 758 q 483 824 396 824 q 651 791 572 824 q 788 702 729 758 q 879 568 846 646 q 913 401 913 490 m 713 401 q 694 497 713 453 q 645 575 676 542 q 572 627 614 608 q 483 646 531 646 q 394 627 436 646 q 322 575 353 608 q 272 497 290 542 q 254 401 254 453 q 272 306 254 350 q 322 228 290 261 q 394 176 353 194 q 483 157 436 157 q 572 176 531 157 q 645 228 614 194 q 694 306 676 261 q 713 401 713 350 z "},"ô":{"ha":954,"x_min":56,"x_max":913,"o":"m 753 903 l 603 903 l 485 1021 l 365 903 l 215 903 l 394 1171 l 574 1171 l 753 903 m 913 401 q 879 234 913 311 q 788 101 846 157 q 651 12 729 44 q 483 -21 572 -21 q 317 12 394 -21 q 181 101 239 44 q 89 235 122 158 q 56 401 56 313 q 90 566 56 489 q 182 701 124 643 q 318 791 240 758 q 483 824 396 824 q 651 791 572 824 q 788 702 729 758 q 879 568 846 646 q 913 401 913 490 m 713 401 q 694 497 713 453 q 645 575 676 542 q 572 627 614 608 q 483 646 531 646 q 394 627 436 646 q 322 575 353 608 q 272 497 290 542 q 254 401 254 453 q 272 306 254 350 q 322 228 290 261 q 394 176 353 194 q 483 157 436 157 q 572 176 531 157 q 645 228 614 194 q 694 306 676 261 q 713 401 713 350 z "},"ö":{"ha":954,"x_min":56,"x_max":913,"o":"m 733 903 l 553 903 l 553 1083 l 733 1083 l 733 903 m 414 903 l 233 903 l 233 1083 l 414 1083 l 414 903 m 913 401 q 879 234 913 311 q 788 101 846 157 q 651 12 729 44 q 483 -21 572 -21 q 317 12 394 -21 q 181 101 239 44 q 89 235 122 158 q 56 401 56 313 q 90 566 56 489 q 182 701 124 643 q 318 791 240 758 q 483 824 396 824 q 651 791 572 824 q 788 702 729 758 q 879 568 846 646 q 913 401 913 490 m 713 401 q 694 497 713 453 q 645 575 676 542 q 572 627 614 608 q 483 646 531 646 q 394 627 436 646 q 322 575 353 608 q 272 497 290 542 q 254 401 254 453 q 272 306 254 350 q 322 228 290 261 q 394 176 353 194 q 483 157 436 157 q 572 176 531 157 q 645 228 614 194 q 694 306 676 261 q 713 401 713 350 z "},"õ":{"ha":954,"x_min":56,"x_max":913,"o":"m 771 1140 q 760 1055 769 1097 q 728 978 750 1013 q 672 924 706 944 q 588 903 638 903 q 528 913 556 903 q 474 933 500 922 q 422 954 447 944 q 372 964 397 964 q 335 944 347 964 q 319 903 322 925 l 200 903 q 210 987 200 944 q 242 1063 221 1029 q 299 1119 264 1097 q 382 1140 333 1140 q 441 1131 413 1140 q 496 1110 469 1121 q 547 1089 522 1099 q 592 1079 571 1079 q 633 1097 619 1079 q 651 1140 647 1115 l 771 1140 m 913 401 q 879 234 913 311 q 788 101 846 157 q 651 12 729 44 q 483 -21 572 -21 q 317 12 394 -21 q 181 101 239 44 q 89 235 122 158 q 56 401 56 313 q 90 566 56 489 q 182 701 124 643 q 318 791 240 758 q 483 824 396 824 q 651 791 572 824 q 788 702 729 758 q 879 568 846 646 q 913 401 913 490 m 713 401 q 694 497 713 453 q 645 575 676 542 q 572 627 614 608 q 483 646 531 646 q 394 627 436 646 q 322 575 353 608 q 272 497 290 542 q 254 401 254 453 q 272 306 254 350 q 322 228 290 261 q 394 176 353 194 q 483 157 436 157 q 572 176 531 157 q 645 228 614 194 q 694 306 676 261 q 713 401 713 350 z "},"ú":{"ha":878,"x_min":69,"x_max":794,"o":"m 640 1171 l 440 903 l 293 903 l 418 1171 l 640 1171 m 794 0 l 594 0 l 594 61 q 549 27 575 42 q 495 2 524 13 q 437 -14 467 -8 q 381 -19 407 -19 q 263 0 319 -19 q 164 60 207 19 q 95 164 121 100 q 69 315 69 228 l 69 803 l 269 803 l 269 325 q 283 249 269 282 q 317 195 296 217 q 367 163 339 174 q 426 153 396 153 q 594 219 524 153 l 594 803 l 794 803 l 794 0 z "},"ù":{"ha":878,"x_min":69,"x_max":794,"o":"m 568 903 l 421 903 l 221 1171 l 444 1171 l 568 903 m 794 0 l 594 0 l 594 61 q 549 27 575 42 q 495 2 524 13 q 437 -14 467 -8 q 381 -19 407 -19 q 263 0 319 -19 q 164 60 207 19 q 95 164 121 100 q 69 315 69 228 l 69 803 l 269 803 l 269 325 q 283 249 269 282 q 317 195 296 217 q 367 163 339 174 q 426 153 396 153 q 594 219 524 153 l 594 803 l 794 803 l 794 0 z "},"û":{"ha":878,"x_min":69,"x_max":794,"o":"m 697 903 l 547 903 l 429 1021 l 310 903 l 160 903 l 339 1171 l 518 1171 l 697 903 m 794 0 l 594 0 l 594 61 q 549 27 575 42 q 495 2 524 13 q 437 -14 467 -8 q 381 -19 407 -19 q 263 0 319 -19 q 164 60 207 19 q 95 164 121 100 q 69 315 69 228 l 69 803 l 269 803 l 269 325 q 283 249 269 282 q 317 195 296 217 q 367 163 339 174 q 426 153 396 153 q 594 219 524 153 l 594 803 l 794 803 l 794 0 z "},"ü":{"ha":878,"x_min":69,"x_max":794,"o":"m 676 903 l 496 903 l 496 1083 l 676 1083 l 676 903 m 357 903 l 176 903 l 176 1083 l 357 1083 l 357 903 m 794 0 l 594 0 l 594 61 q 549 27 575 42 q 495 2 524 13 q 437 -14 467 -8 q 381 -19 407 -19 q 263 0 319 -19 q 164 60 207 19 q 95 164 121 100 q 69 315 69 228 l 69 803 l 269 803 l 269 325 q 283 249 269 282 q 317 195 296 217 q 367 163 339 174 q 426 153 396 153 q 594 219 524 153 l 594 803 l 794 803 l 794 0 z "},"†":{"ha":565,"x_min":21,"x_max":531,"o":"m 531 18 q 460 -11 501 -1 q 379 -21 419 -21 q 260 -3 308 -21 q 182 49 211 14 q 140 140 153 85 q 126 271 126 196 l 126 629 l 21 629 l 21 804 l 126 804 l 126 1018 l 326 1018 l 326 804 l 529 804 l 529 629 l 326 629 l 326 264 q 352 180 326 201 q 418 158 378 158 q 475 168 442 158 q 531 194 508 178 l 531 18 z "},"°":{"ha":606,"x_min":69,"x_max":550,"o":"m 550 865 q 531 771 550 815 q 480 694 513 726 q 403 642 447 661 q 310 624 360 624 q 217 642 261 624 q 141 694 174 661 q 89 771 108 726 q 69 865 69 815 q 88 959 69 915 q 140 1035 107 1003 q 216 1085 172 1067 q 310 1104 260 1104 q 403 1085 360 1104 q 480 1034 447 1067 q 531 958 513 1001 q 550 865 550 915 m 408 865 q 379 935 408 906 q 310 964 350 964 q 239 935 268 964 q 210 865 210 906 q 240 794 210 824 q 310 765 269 765 q 379 794 350 765 q 408 865 408 824 z "},"¢":{"ha":829,"x_min":56,"x_max":788,"o":"m 788 121 q 674 30 739 65 q 533 -17 608 -6 l 533 -146 l 407 -146 l 407 -15 q 268 34 332 -3 q 157 126 204 71 q 83 252 110 182 q 56 401 56 322 q 83 551 56 481 q 157 676 110 621 q 268 769 204 732 q 407 818 332 806 l 407 908 l 533 908 l 533 819 q 669 775 607 808 q 779 690 732 742 l 649 560 q 595 610 626 589 q 526 642 564 632 l 526 161 q 600 196 567 172 q 656 253 633 219 l 788 121 m 414 163 l 414 640 q 347 606 378 629 q 294 552 317 583 q 258 483 271 521 q 244 401 244 444 q 257 319 244 358 q 292 249 269 281 q 347 195 315 218 q 414 163 378 172 z "},"£":{"ha":883,"x_min":69,"x_max":814,"o":"m 814 7 q 728 -10 771 -4 q 622 -15 685 -15 q 518 -6 574 -15 q 418 11 463 3 q 385 16 404 14 q 345 19 365 18 q 308 22 325 21 q 279 22 290 22 q 228 19 256 22 q 172 9 200 15 q 117 -5 143 3 q 69 -22 90 -12 q 155 174 122 72 q 203 406 188 276 l 92 406 l 93 594 l 222 594 q 224 612 222 599 q 228 640 226 625 q 231 667 229 654 q 233 686 233 681 q 245 785 239 746 q 257 851 251 824 q 268 897 263 878 q 281 936 274 917 q 323 1019 296 983 q 385 1081 350 1056 q 460 1119 419 1106 q 546 1132 501 1132 q 695 1100 629 1132 q 808 1007 761 1068 l 671 872 q 561 939 631 939 q 499 920 525 939 q 458 874 472 901 q 440 808 447 850 q 428 725 433 765 q 420 661 425 697 q 413 594 415 625 l 649 594 l 650 406 l 393 406 q 386 358 390 385 q 376 303 382 331 q 363 249 369 275 q 350 206 357 224 q 376 208 361 207 q 401 210 390 210 q 457 206 426 210 q 511 199 488 203 q 573 187 549 192 q 639 182 597 182 q 688 184 667 182 q 729 191 710 186 q 769 203 749 196 q 814 222 789 211 l 814 7 z "},"§":{"ha":1619,"x_min":28,"x_max":1592,"o":"m 1475 536 q 1468 519 1475 526 q 1451 513 1461 513 q 1435 519 1442 513 q 1428 536 1428 526 q 1434 553 1428 546 q 1450 560 1440 560 q 1467 553 1460 560 q 1475 536 1475 546 m 1422 590 q 1414 571 1422 579 q 1394 563 1406 563 q 1375 571 1383 563 q 1367 590 1367 579 q 1375 610 1367 601 q 1394 618 1383 618 q 1414 610 1406 618 q 1422 590 1422 601 m 1353 640 q 1344 619 1353 628 q 1325 611 1336 611 q 1305 619 1314 611 q 1296 640 1296 628 q 1304 660 1296 651 q 1324 668 1313 668 q 1344 660 1335 668 q 1353 640 1353 651 m 1281 689 q 1272 665 1281 675 q 1249 656 1263 656 q 1225 665 1235 656 q 1215 689 1215 675 q 1224 711 1215 701 q 1247 721 1233 721 q 1270 711 1260 721 q 1281 689 1281 701 m 1200 731 q 1190 705 1200 715 q 1165 694 1181 694 q 1139 705 1150 694 q 1128 731 1128 715 q 1138 756 1128 746 q 1164 767 1149 767 q 1190 756 1179 767 q 1200 731 1200 746 m 1104 769 q 1093 743 1104 754 q 1067 732 1082 732 q 1040 743 1051 732 q 1029 769 1029 754 q 1040 796 1029 785 q 1065 807 1050 807 q 1092 796 1081 807 q 1104 769 1104 785 m 1000 799 q 989 772 1000 783 q 963 760 978 760 q 935 772 947 760 q 922 799 922 783 q 933 826 922 814 q 961 838 944 838 q 988 826 976 838 q 1000 799 1000 814 m 1431 490 q 1429 487 1431 490 q 1426 480 1428 483 q 1421 474 1424 476 q 1417 472 1418 471 q 1393 489 1406 479 q 1171 627 1289 571 q 929 715 1053 683 q 899 635 913 681 q 882 558 886 589 q 869 551 881 551 q 856 552 858 551 q 856 558 854 553 q 864 604 858 578 q 876 657 869 631 q 892 708 883 683 q 907 751 900 733 q 1056 707 989 731 q 1181 654 1122 683 q 1294 590 1240 625 q 1406 513 1349 556 q 1419 501 1411 508 q 1431 490 1426 494 m 900 1040 l 899 954 l 824 981 l 824 931 q 874 903 853 928 q 894 847 894 878 q 869 788 894 813 q 810 764 844 764 q 747 788 772 764 q 721 849 721 813 q 742 903 721 879 q 793 931 763 926 l 793 981 l 719 954 l 715 1040 l 783 1022 l 754 1113 l 860 1113 l 833 1022 l 900 1040 m 843 713 q 833 687 843 697 q 807 676 822 676 q 783 687 793 676 q 772 713 772 697 q 783 738 772 728 q 808 749 793 749 q 833 738 822 749 q 843 713 843 726 m 688 803 q 676 776 688 788 q 650 764 665 764 q 622 776 635 764 q 610 803 610 788 q 621 830 610 818 q 649 842 632 842 q 676 830 664 842 q 688 803 688 818 m 838 633 q 828 613 838 621 q 808 604 819 604 q 787 613 797 604 q 776 633 776 621 q 786 654 776 646 q 807 663 796 663 q 828 654 818 663 q 838 633 838 646 m 833 567 q 826 549 833 556 q 808 542 818 542 q 790 549 799 542 q 782 567 782 556 q 790 583 782 576 q 807 590 797 590 q 825 583 817 590 q 833 567 833 576 m 585 775 q 574 749 585 760 q 547 738 563 738 q 521 749 532 738 q 510 775 510 760 q 520 801 510 790 q 546 813 531 813 q 573 801 561 813 q 585 775 585 790 m 485 736 q 475 710 485 721 q 450 700 465 700 q 424 710 435 700 q 413 736 413 721 q 423 762 413 751 q 449 772 433 772 q 474 762 464 772 q 485 736 485 751 m 757 558 q 746 551 758 551 q 732 554 733 551 q 713 634 725 589 q 683 714 700 679 q 565 680 625 701 q 446 631 504 658 q 334 570 388 603 q 238 503 281 538 q 222 490 231 497 q 208 479 214 482 q 199 487 206 478 q 194 499 193 496 q 207 513 197 504 q 222 526 217 522 q 326 599 274 567 q 438 659 379 632 q 562 708 496 686 q 707 750 628 731 q 722 708 714 733 q 736 657 729 683 q 749 605 743 631 q 757 558 754 579 m 400 694 q 391 671 400 681 q 368 661 382 661 q 344 671 354 661 q 335 694 335 681 q 344 717 335 707 q 367 726 353 726 q 390 717 379 726 q 400 694 400 707 m 1592 444 q 1580 412 1586 431 q 1567 375 1574 393 q 1551 332 1560 354 q 1552 288 1557 308 q 1540 257 1547 268 q 1531 244 1538 251 q 1514 231 1525 236 l 1454 90 q 1466 43 1460 72 q 1475 -4 1472 14 q 1467 -35 1478 -22 l 1388 -133 q 1248 -82 1321 -103 q 1101 -49 1175 -61 q 955 -31 1028 -36 q 814 -25 882 -25 q 672 -31 749 -25 q 517 -49 594 -36 q 367 -83 439 -62 q 238 -132 294 -103 q 208 -106 224 -121 q 176 -79 192 -92 q 140 -50 160 -64 q 126 -29 129 -40 q 125 -22 125 -26 q 125 -14 125 -17 q 126 10 125 -7 q 129 44 128 26 q 133 78 131 63 q 135 103 135 94 l 93 236 q 75 250 82 242 q 51 297 56 268 q 60 351 46 325 l 28 444 q 85 460 49 451 q 147 474 122 469 q 136 444 143 463 q 122 406 129 425 q 110 371 115 386 q 104 353 104 356 q 107 349 104 346 q 149 374 125 353 q 186 413 174 396 q 203 325 196 368 q 221 238 211 282 q 189 257 206 250 q 150 271 172 264 q 132 274 139 274 q 154 217 140 244 q 188 169 168 190 q 233 136 207 149 q 293 124 258 124 q 342 132 318 124 q 387 156 367 140 q 419 194 407 171 q 431 244 431 217 q 413 296 431 271 q 367 321 396 321 q 315 300 331 321 q 300 246 300 279 q 304 214 300 231 q 255 250 269 219 q 240 311 240 281 q 270 394 240 360 q 351 429 300 429 q 383 424 371 429 q 410 407 394 418 q 390 450 394 431 q 385 497 385 469 q 397 553 385 526 q 424 601 408 579 q 478 544 460 576 q 497 468 497 513 q 494 439 497 453 q 486 410 490 425 q 524 441 503 426 q 571 456 546 456 q 630 426 606 456 q 654 364 654 397 q 601 276 654 307 q 603 285 603 279 q 586 328 603 310 q 542 347 569 347 q 499 327 514 347 q 485 281 485 307 q 498 236 485 256 q 531 203 511 217 q 576 182 551 189 q 621 175 600 175 q 677 182 649 175 q 728 204 706 189 q 765 244 751 219 q 779 303 779 268 q 778 315 779 310 q 776 326 778 319 q 733 307 757 318 q 686 285 708 296 l 681 454 q 725 425 706 438 q 767 401 744 413 q 771 406 772 399 q 749 468 761 440 q 724 528 738 496 l 885 528 q 858 459 868 492 q 840 404 847 426 q 843 399 838 396 q 886 425 863 410 q 929 456 910 440 l 925 285 q 883 306 903 297 q 840 326 864 315 l 840 301 q 874 206 840 240 q 968 172 908 172 q 1017 179 993 172 q 1060 199 1040 186 q 1091 233 1079 213 q 1103 281 1103 253 q 1088 322 1103 304 q 1049 339 1074 339 q 1013 319 1028 339 q 992 285 999 300 q 967 319 976 300 q 957 360 957 339 q 977 428 957 400 q 1042 456 997 456 q 1087 439 1065 456 q 1124 406 1108 422 q 1119 454 1119 431 q 1140 533 1119 499 q 1193 593 1161 568 q 1222 547 1211 571 q 1232 496 1232 524 q 1223 438 1232 465 q 1199 383 1214 410 q 1232 408 1214 397 q 1272 419 1250 419 q 1336 392 1308 419 q 1364 329 1364 365 q 1356 290 1364 310 q 1333 253 1347 271 q 1302 224 1319 236 q 1267 206 1285 211 q 1278 233 1275 215 q 1282 263 1282 251 q 1233 311 1282 311 q 1208 303 1218 311 q 1190 283 1197 296 q 1180 257 1183 271 q 1176 231 1176 243 q 1206 156 1176 178 q 1279 122 1235 133 q 1299 118 1289 119 q 1318 118 1308 117 q 1419 159 1386 121 q 1472 276 1453 197 q 1422 258 1446 267 q 1374 236 1399 250 q 1398 328 1385 276 q 1422 418 1411 381 q 1454 382 1438 400 q 1489 349 1471 364 q 1496 354 1496 343 q 1492 400 1494 378 q 1487 438 1489 419 q 1482 471 1485 457 q 1541 460 1513 467 q 1592 444 1569 454 m 319 646 q 311 625 319 633 q 292 617 303 617 q 272 625 281 617 q 263 646 263 633 q 271 665 263 657 q 290 674 279 674 q 310 665 301 674 q 319 646 319 657 m 251 596 q 243 576 251 585 q 224 568 235 568 q 204 576 213 568 q 196 596 196 585 q 203 615 196 607 q 222 624 211 624 q 242 615 233 624 q 251 596 251 607 m 193 542 q 186 525 193 532 q 169 518 179 518 q 153 525 160 518 q 146 542 146 532 q 152 558 146 551 q 168 565 158 565 q 185 558 178 565 q 193 542 193 551 m 1344 -157 q 1326 -174 1344 -168 q 1092 -234 1207 -219 q 844 -249 978 -249 q 562 -233 696 -249 q 289 -169 428 -217 q 274 -157 274 -165 q 288 -144 274 -150 q 412 -104 344 -121 q 549 -77 479 -87 q 687 -62 618 -67 q 815 -58 756 -58 q 938 -63 872 -58 q 1072 -78 1004 -68 q 1203 -103 1139 -87 q 1324 -140 1268 -118 q 1344 -157 1344 -147 m 1532 310 q 1530 322 1532 315 q 1521 328 1528 328 q 1508 322 1514 328 q 1499 307 1503 315 q 1492 290 1494 299 q 1490 275 1490 281 q 1492 263 1490 269 q 1501 257 1494 257 q 1514 263 1508 257 q 1524 278 1519 269 q 1530 295 1528 286 q 1532 310 1532 304 m 867 860 q 852 888 864 876 q 824 906 840 899 q 823 894 822 903 q 824 875 824 886 l 824 849 q 844 850 835 847 q 867 860 854 853 m 794 849 l 793 906 q 747 858 758 894 q 794 849 767 849 m 858 815 q 808 828 839 828 q 782 825 796 828 q 757 815 768 822 q 782 795 765 801 q 810 789 799 789 q 836 797 821 789 q 858 815 851 804 m 1449 -8 q 1444 16 1449 -1 q 1433 44 1439 33 l 1390 1 l 1417 -56 q 1437 -29 1425 -43 q 1449 -8 1449 -15 m 1328 54 q 1319 73 1328 65 q 1300 81 1311 81 q 1281 73 1289 81 q 1274 54 1274 65 q 1282 35 1274 43 q 1301 26 1290 26 q 1320 35 1313 26 q 1328 54 1328 43 m 1306 -21 q 1297 -1 1306 -10 q 1276 7 1288 7 q 1257 -1 1265 7 q 1249 -21 1249 -10 q 1258 -40 1249 -32 q 1278 -49 1267 -49 q 1297 -40 1289 -49 q 1306 -21 1306 -32 m 1200 50 q 1182 100 1204 78 q 1124 129 1160 122 q 1059 120 1088 135 q 1026 78 1031 106 q 1044 29 1022 51 q 1103 0 1067 7 q 1167 8 1139 -7 q 1200 50 1196 24 m 832 365 q 825 382 832 375 q 807 389 818 389 q 791 382 797 389 q 785 365 785 375 q 792 349 785 356 q 808 342 799 342 q 825 349 818 342 q 832 365 832 356 m 971 113 q 963 131 971 124 q 943 139 954 139 q 924 131 932 139 q 917 113 917 124 q 925 93 917 101 q 944 85 933 85 q 963 93 956 85 q 971 113 971 101 m 963 35 q 953 54 963 46 q 933 63 944 63 q 913 54 921 63 q 906 35 906 46 q 914 14 906 22 q 933 6 922 6 q 954 14 946 6 q 963 35 963 22 m 850 96 l 831 126 q 816 148 824 138 q 806 158 808 158 q 794 148 801 158 q 781 126 788 138 q 764 96 772 113 q 782 64 774 78 q 796 42 789 51 q 807 32 803 32 q 818 42 811 32 q 832 64 825 51 q 850 96 840 78 m 693 113 q 685 131 693 124 q 665 139 676 139 q 647 131 654 139 q 639 113 639 124 q 647 93 639 101 q 667 85 656 85 q 685 93 678 85 q 693 113 693 101 m 703 33 q 694 53 703 44 q 674 61 685 61 q 654 53 663 61 q 646 33 646 44 q 655 13 646 21 q 675 4 664 4 q 694 13 686 4 q 703 33 703 21 m 576 79 q 544 121 572 106 q 481 129 517 136 q 422 101 444 124 q 404 51 400 78 q 436 9 408 24 q 500 0 464 -6 q 559 29 536 7 q 576 79 582 51 m 114 281 q 111 295 114 286 q 104 313 108 304 q 94 327 100 321 q 82 333 89 333 q 74 325 75 333 q 72 311 72 317 q 74 297 72 306 q 81 281 76 289 q 90 267 85 272 q 103 261 96 261 q 112 268 110 261 q 114 281 114 275 m 319 50 q 311 69 319 61 q 292 78 303 78 q 273 69 281 78 q 265 50 265 61 q 274 31 265 39 q 293 24 282 24 q 319 50 319 24 m 347 -24 q 338 -4 347 -12 q 318 4 329 4 q 299 -4 307 4 q 290 -24 290 -12 q 299 -43 290 -35 q 319 -51 308 -51 q 339 -43 331 -51 q 347 -24 347 -35 m 206 1 l 160 39 q 155 4 157 24 q 153 -18 153 -15 q 170 -40 153 -25 q 201 -65 188 -54 q 206 -26 206 -53 l 206 1 z "},"•":{"ha":529,"x_min":0,"x_max":418,"o":"m 418 314 l 0 314 l 0 732 l 418 732 l 418 314 z "},"¶":{"ha":876,"x_min":56,"x_max":904,"o":"m 904 996 l 811 996 l 811 -386 l 669 -386 l 669 996 l 567 996 l 567 -386 l 417 -386 l 417 471 q 331 479 363 475 q 274 493 300 483 q 185 539 225 508 q 116 610 144 569 q 72 701 88 651 q 56 804 56 750 q 99 964 56 893 q 217 1071 142 1035 q 450 1111 301 1111 l 904 1111 l 904 996 z "},"ß":{"ha":840,"x_min":83,"x_max":799,"o":"m 799 339 q 713 75 799 171 q 458 -21 626 -21 q 408 -17 432 -21 q 358 -6 385 -14 l 358 171 q 404 158 385 161 q 446 156 424 156 q 513 172 485 156 q 560 214 542 188 q 587 275 578 240 q 596 349 596 310 q 578 441 596 404 q 528 500 560 478 q 455 529 497 522 q 365 531 413 536 l 365 692 q 501 733 460 688 q 542 849 542 778 q 512 952 542 911 q 415 993 482 993 q 311 939 339 993 q 283 769 283 885 l 283 0 l 83 0 l 83 801 q 102 955 83 886 q 163 1071 121 1024 q 269 1144 204 1118 q 426 1169 335 1169 q 547 1149 490 1169 q 648 1089 604 1128 q 717 995 692 1050 q 743 872 743 940 q 703 724 743 785 q 596 631 663 663 q 669 592 633 617 q 734 532 706 568 q 781 447 763 496 q 799 339 799 399 z "},"®":{"ha":1261,"x_min":35,"x_max":1226,"o":"m 1226 576 q 1180 344 1226 453 q 1052 155 1133 236 q 863 27 971 74 q 631 -19 754 -19 q 399 27 507 -19 q 209 155 290 74 q 81 344 128 236 q 35 576 35 453 q 81 808 35 700 q 209 998 128 917 q 399 1126 290 1079 q 631 1172 507 1172 q 863 1126 754 1172 q 1052 998 971 1079 q 1180 808 1133 917 q 1226 576 1226 700 m 1113 576 q 1074 764 1113 676 q 971 917 1036 851 q 818 1020 906 982 q 631 1058 731 1058 q 443 1020 531 1058 q 290 917 356 982 q 187 764 225 851 q 149 576 149 676 q 187 389 149 476 q 290 236 225 301 q 443 133 356 171 q 631 94 531 94 q 818 133 731 94 q 971 236 906 171 q 1074 389 1036 301 q 1113 576 1113 476 m 921 215 l 768 215 l 717 381 q 669 469 700 435 q 572 504 638 504 l 517 504 l 517 215 l 379 215 l 379 940 l 517 940 l 663 940 q 749 925 708 940 q 819 881 789 910 q 866 813 849 853 q 883 722 883 772 q 847 616 883 668 q 751 535 810 564 q 802 499 783 519 q 833 446 821 479 q 857 383 846 414 q 885 303 868 351 q 903 251 896 272 q 921 215 911 231 m 743 722 q 707 805 743 774 q 619 836 671 836 l 517 836 l 517 611 l 619 611 q 707 641 671 611 q 743 722 743 671 z "},"©":{"ha":897,"x_min":56,"x_max":814,"o":"m 814 -7 q 792 -149 814 -90 q 737 -246 771 -207 q 661 -307 703 -285 q 579 -340 619 -329 q 506 -353 539 -350 q 456 -356 472 -356 q 247 -307 338 -356 l 182 -125 q 306 -172 243 -157 q 414 -187 369 -187 q 471 -183 436 -187 q 537 -159 506 -179 q 591 -97 568 -139 q 614 19 614 -56 l 614 101 q 528 56 578 74 q 426 39 479 39 q 283 70 350 39 q 165 155 215 101 q 85 279 114 208 q 56 429 56 350 q 85 577 56 506 q 167 703 115 649 q 285 791 218 758 q 426 824 351 824 q 529 809 479 824 q 614 768 579 794 l 614 804 l 814 804 l 814 -7 m 615 263 l 615 600 q 547 638 586 625 q 474 651 508 651 q 387 634 428 651 q 316 586 346 617 q 269 515 286 556 q 251 428 251 475 q 269 344 251 383 q 317 274 286 304 q 388 227 347 244 q 472 210 428 210 q 549 223 514 210 q 615 263 583 236 z "},"™":{"ha":1158,"x_min":42,"x_max":1089,"o":"m 1089 556 l 983 556 l 983 926 l 808 631 l 640 929 l 640 556 l 535 556 l 535 1111 l 660 1111 l 810 842 l 968 1111 l 1089 1111 l 1089 556 m 458 1017 l 306 1017 l 306 556 l 194 556 l 194 1017 l 42 1017 l 42 1111 l 458 1111 l 458 1017 z "},"´":{"ha":819,"x_min":272,"x_max":619,"o":"m 619 1171 l 419 903 l 272 903 l 397 1171 l 619 1171 z "},"¨":{"ha":806,"x_min":142,"x_max":642,"o":"m 642 903 l 461 903 l 461 1083 l 642 1083 l 642 903 m 322 903 l 142 903 l 142 1083 l 322 1083 l 322 903 z "},"≠":{"ha":989,"x_min":97,"x_max":892,"o":"m 892 263 l 464 263 l 394 75 l 247 75 l 317 263 l 97 263 l 97 449 l 385 449 l 442 601 l 97 601 l 97 788 l 510 788 l 575 964 l 722 964 l 657 788 l 892 788 l 892 601 l 589 601 l 532 449 l 892 449 l 892 263 z "},"Æ":{"ha":1507,"x_min":0,"x_max":1493,"o":"m 1493 0 l 982 0 l 760 0 l 736 222 l 364 222 l 236 0 l 0 0 l 643 1111 l 810 1111 l 810 1110 l 1376 1110 l 1396 932 l 874 932 l 900 667 l 1417 667 l 1435 493 l 919 493 l 951 188 l 1474 188 l 1493 0 m 718 401 l 678 775 l 465 401 l 718 401 z "},"Ø":{"ha":1304,"x_min":69,"x_max":1249,"o":"m 1249 556 q 1202 331 1249 436 q 1075 147 1156 225 q 888 24 994 69 q 660 -21 781 -21 q 509 -2 581 -21 q 374 51 438 17 l 311 -32 l 139 -32 l 260 132 q 121 320 172 211 q 69 556 69 429 q 116 782 69 676 q 243 965 163 888 q 431 1088 324 1043 q 660 1132 539 1132 q 809 1113 738 1132 q 946 1060 881 1094 l 1007 1143 l 1179 1143 l 1060 979 q 1198 792 1147 900 q 1249 556 1249 683 m 1032 556 q 1006 694 1032 629 q 932 808 979 758 l 497 219 q 660 183 574 183 q 804 213 736 183 q 923 294 872 243 q 1003 413 974 344 q 1032 556 1032 481 m 821 892 q 660 928 746 928 q 514 898 582 928 q 395 817 446 868 q 315 699 344 767 q 286 556 286 632 q 313 419 286 483 q 386 303 339 354 l 821 892 z "},"∞":{"ha":950,"x_min":56,"x_max":908,"o":"m 908 296 q 876 176 908 233 q 787 76 843 119 q 656 6 731 32 q 494 -19 581 -19 q 249 39 361 -19 q 56 197 136 97 l 204 347 q 267 281 231 311 q 344 227 303 250 q 429 191 385 204 q 517 178 474 178 q 585 188 554 178 q 640 213 617 197 q 675 250 663 229 q 688 293 688 271 q 672 342 688 319 q 624 385 657 365 q 538 425 590 406 q 413 465 486 444 q 285 513 347 485 q 176 583 224 542 q 99 681 128 625 q 69 813 69 738 q 102 942 69 883 q 190 1044 135 1001 q 319 1110 246 1086 q 475 1133 393 1133 q 715 1081 615 1133 q 885 936 814 1028 l 736 789 q 619 894 692 854 q 451 935 547 935 q 392 926 421 935 q 342 903 364 918 q 306 867 319 888 q 293 821 293 846 q 308 769 293 792 q 356 729 324 747 q 439 694 388 711 q 561 656 490 676 q 824 514 740 603 q 908 296 908 425 z "},"±":{"ha":1619,"x_min":28,"x_max":1592,"o":"m 1475 536 q 1468 519 1475 526 q 1451 513 1461 513 q 1435 519 1442 513 q 1428 536 1428 526 q 1434 553 1428 546 q 1450 560 1440 560 q 1467 553 1460 560 q 1475 536 1475 546 m 1422 590 q 1414 571 1422 579 q 1394 563 1406 563 q 1375 571 1383 563 q 1367 590 1367 579 q 1375 610 1367 601 q 1394 618 1383 618 q 1414 610 1406 618 q 1422 590 1422 601 m 1353 640 q 1344 619 1353 628 q 1325 611 1336 611 q 1305 619 1314 611 q 1296 640 1296 628 q 1304 660 1296 651 q 1324 668 1313 668 q 1344 660 1335 668 q 1353 640 1353 651 m 1281 689 q 1272 665 1281 675 q 1249 656 1263 656 q 1225 665 1235 656 q 1215 689 1215 675 q 1224 711 1215 701 q 1247 721 1233 721 q 1270 711 1260 721 q 1281 689 1281 701 m 1200 731 q 1190 705 1200 715 q 1165 694 1181 694 q 1139 705 1150 694 q 1128 731 1128 715 q 1138 756 1128 746 q 1164 767 1149 767 q 1190 756 1179 767 q 1200 731 1200 746 m 1104 769 q 1093 743 1104 754 q 1067 732 1082 732 q 1040 743 1051 732 q 1029 769 1029 754 q 1040 796 1029 785 q 1065 807 1050 807 q 1092 796 1081 807 q 1104 769 1104 785 m 1000 799 q 989 772 1000 783 q 963 760 978 760 q 935 772 947 760 q 922 799 922 783 q 933 826 922 814 q 961 838 944 838 q 988 826 976 838 q 1000 799 1000 814 m 1431 490 q 1429 487 1431 490 q 1426 480 1428 483 q 1421 474 1424 476 q 1417 472 1418 471 q 1393 489 1406 479 q 1171 627 1289 571 q 929 715 1053 683 q 899 635 913 681 q 882 558 886 589 q 869 551 881 551 q 856 552 858 551 q 856 558 854 553 q 864 604 858 578 q 876 657 869 631 q 892 708 883 683 q 907 751 900 733 q 1056 707 989 731 q 1181 654 1122 683 q 1294 590 1240 625 q 1406 513 1349 556 q 1419 501 1411 508 q 1431 490 1426 494 m 900 1040 l 899 954 l 824 981 l 824 931 q 874 903 853 928 q 894 847 894 878 q 869 788 894 813 q 810 764 844 764 q 747 788 772 764 q 721 849 721 813 q 742 903 721 879 q 793 931 763 926 l 793 981 l 719 954 l 715 1040 l 783 1022 l 754 1113 l 860 1113 l 833 1022 l 900 1040 m 843 713 q 833 687 843 697 q 807 676 822 676 q 783 687 793 676 q 772 713 772 697 q 783 738 772 728 q 808 749 793 749 q 833 738 822 749 q 843 713 843 726 m 688 803 q 676 776 688 788 q 650 764 665 764 q 622 776 635 764 q 610 803 610 788 q 621 830 610 818 q 649 842 632 842 q 676 830 664 842 q 688 803 688 818 m 838 633 q 828 613 838 621 q 808 604 819 604 q 787 613 797 604 q 776 633 776 621 q 786 654 776 646 q 807 663 796 663 q 828 654 818 663 q 838 633 838 646 m 833 567 q 826 549 833 556 q 808 542 818 542 q 790 549 799 542 q 782 567 782 556 q 790 583 782 576 q 807 590 797 590 q 825 583 817 590 q 833 567 833 576 m 585 775 q 574 749 585 760 q 547 738 563 738 q 521 749 532 738 q 510 775 510 760 q 520 801 510 790 q 546 813 531 813 q 573 801 561 813 q 585 775 585 790 m 485 736 q 475 710 485 721 q 450 700 465 700 q 424 710 435 700 q 413 736 413 721 q 423 762 413 751 q 449 772 433 772 q 474 762 464 772 q 485 736 485 751 m 757 558 q 746 551 758 551 q 732 554 733 551 q 713 634 725 589 q 683 714 700 679 q 565 680 625 701 q 446 631 504 658 q 334 570 388 603 q 238 503 281 538 q 222 490 231 497 q 208 479 214 482 q 199 487 206 478 q 194 499 193 496 q 207 513 197 504 q 222 526 217 522 q 326 599 274 567 q 438 659 379 632 q 562 708 496 686 q 707 750 628 731 q 722 708 714 733 q 736 657 729 683 q 749 605 743 631 q 757 558 754 579 m 400 694 q 391 671 400 681 q 368 661 382 661 q 344 671 354 661 q 335 694 335 681 q 344 717 335 707 q 367 726 353 726 q 390 717 379 726 q 400 694 400 707 m 1592 444 q 1580 412 1586 431 q 1567 375 1574 393 q 1551 332 1560 354 q 1552 288 1557 308 q 1540 257 1547 268 q 1531 244 1538 251 q 1514 231 1525 236 l 1454 90 q 1466 43 1460 72 q 1475 -4 1472 14 q 1467 -35 1478 -22 l 1388 -133 q 1248 -82 1321 -103 q 1101 -49 1175 -61 q 955 -31 1028 -36 q 814 -25 882 -25 q 672 -31 749 -25 q 517 -49 594 -36 q 367 -83 439 -62 q 238 -132 294 -103 q 208 -106 224 -121 q 176 -79 192 -92 q 140 -50 160 -64 q 126 -29 129 -40 q 125 -22 125 -26 q 125 -14 125 -17 q 126 10 125 -7 q 129 44 128 26 q 133 78 131 63 q 135 103 135 94 l 93 236 q 75 250 82 242 q 51 297 56 268 q 60 351 46 325 l 28 444 q 85 460 49 451 q 147 474 122 469 q 136 444 143 463 q 122 406 129 425 q 110 371 115 386 q 104 353 104 356 q 107 349 104 346 q 149 374 125 353 q 186 413 174 396 q 203 325 196 368 q 221 238 211 282 q 189 257 206 250 q 150 271 172 264 q 132 274 139 274 q 154 217 140 244 q 188 169 168 190 q 233 136 207 149 q 293 124 258 124 q 342 132 318 124 q 387 156 367 140 q 419 194 407 171 q 431 244 431 217 q 413 296 431 271 q 367 321 396 321 q 315 300 331 321 q 300 246 300 279 q 304 214 300 231 q 255 250 269 219 q 240 311 240 281 q 270 394 240 360 q 351 429 300 429 q 383 424 371 429 q 410 407 394 418 q 390 450 394 431 q 385 497 385 469 q 397 553 385 526 q 424 601 408 579 q 478 544 460 576 q 497 468 497 513 q 494 439 497 453 q 486 410 490 425 q 524 441 503 426 q 571 456 546 456 q 630 426 606 456 q 654 364 654 397 q 601 276 654 307 q 603 285 603 279 q 586 328 603 310 q 542 347 569 347 q 499 327 514 347 q 485 281 485 307 q 498 236 485 256 q 531 203 511 217 q 576 182 551 189 q 621 175 600 175 q 677 182 649 175 q 728 204 706 189 q 765 244 751 219 q 779 303 779 268 q 778 315 779 310 q 776 326 778 319 q 733 307 757 318 q 686 285 708 296 l 681 454 q 725 425 706 438 q 767 401 744 413 q 771 406 772 399 q 749 468 761 440 q 724 528 738 496 l 885 528 q 858 459 868 492 q 840 404 847 426 q 843 399 838 396 q 886 425 863 410 q 929 456 910 440 l 925 285 q 883 306 903 297 q 840 326 864 315 l 840 301 q 874 206 840 240 q 968 172 908 172 q 1017 179 993 172 q 1060 199 1040 186 q 1091 233 1079 213 q 1103 281 1103 253 q 1088 322 1103 304 q 1049 339 1074 339 q 1013 319 1028 339 q 992 285 999 300 q 967 319 976 300 q 957 360 957 339 q 977 428 957 400 q 1042 456 997 456 q 1087 439 1065 456 q 1124 406 1108 422 q 1119 454 1119 431 q 1140 533 1119 499 q 1193 593 1161 568 q 1222 547 1211 571 q 1232 496 1232 524 q 1223 438 1232 465 q 1199 383 1214 410 q 1232 408 1214 397 q 1272 419 1250 419 q 1336 392 1308 419 q 1364 329 1364 365 q 1356 290 1364 310 q 1333 253 1347 271 q 1302 224 1319 236 q 1267 206 1285 211 q 1278 233 1275 215 q 1282 263 1282 251 q 1233 311 1282 311 q 1208 303 1218 311 q 1190 283 1197 296 q 1180 257 1183 271 q 1176 231 1176 243 q 1206 156 1176 178 q 1279 122 1235 133 q 1299 118 1289 119 q 1318 118 1308 117 q 1419 159 1386 121 q 1472 276 1453 197 q 1422 258 1446 267 q 1374 236 1399 250 q 1398 328 1385 276 q 1422 418 1411 381 q 1454 382 1438 400 q 1489 349 1471 364 q 1496 354 1496 343 q 1492 400 1494 378 q 1487 438 1489 419 q 1482 471 1485 457 q 1541 460 1513 467 q 1592 444 1569 454 m 319 646 q 311 625 319 633 q 292 617 303 617 q 272 625 281 617 q 263 646 263 633 q 271 665 263 657 q 290 674 279 674 q 310 665 301 674 q 319 646 319 657 m 251 596 q 243 576 251 585 q 224 568 235 568 q 204 576 213 568 q 196 596 196 585 q 203 615 196 607 q 222 624 211 624 q 242 615 233 624 q 251 596 251 607 m 193 542 q 186 525 193 532 q 169 518 179 518 q 153 525 160 518 q 146 542 146 532 q 152 558 146 551 q 168 565 158 565 q 185 558 178 565 q 193 542 193 551 m 1344 -157 q 1326 -174 1344 -168 q 1092 -234 1207 -219 q 844 -249 978 -249 q 562 -233 696 -249 q 289 -169 428 -217 q 274 -157 274 -165 q 288 -144 274 -150 q 412 -104 344 -121 q 549 -77 479 -87 q 687 -62 618 -67 q 815 -58 756 -58 q 938 -63 872 -58 q 1072 -78 1004 -68 q 1203 -103 1139 -87 q 1324 -140 1268 -118 q 1344 -157 1344 -147 m 1532 310 q 1530 322 1532 315 q 1521 328 1528 328 q 1508 322 1514 328 q 1499 307 1503 315 q 1492 290 1494 299 q 1490 275 1490 281 q 1492 263 1490 269 q 1501 257 1494 257 q 1514 263 1508 257 q 1524 278 1519 269 q 1530 295 1528 286 q 1532 310 1532 304 m 867 860 q 852 888 864 876 q 824 906 840 899 q 823 894 822 903 q 824 875 824 886 l 824 849 q 844 850 835 847 q 867 860 854 853 m 794 849 l 793 906 q 747 858 758 894 q 794 849 767 849 m 858 815 q 808 828 839 828 q 782 825 796 828 q 757 815 768 822 q 782 795 765 801 q 810 789 799 789 q 836 797 821 789 q 858 815 851 804 m 1449 -8 q 1444 16 1449 -1 q 1433 44 1439 33 l 1390 1 l 1417 -56 q 1437 -29 1425 -43 q 1449 -8 1449 -15 m 1328 54 q 1319 73 1328 65 q 1300 81 1311 81 q 1281 73 1289 81 q 1274 54 1274 65 q 1282 35 1274 43 q 1301 26 1290 26 q 1320 35 1313 26 q 1328 54 1328 43 m 1306 -21 q 1297 -1 1306 -10 q 1276 7 1288 7 q 1257 -1 1265 7 q 1249 -21 1249 -10 q 1258 -40 1249 -32 q 1278 -49 1267 -49 q 1297 -40 1289 -49 q 1306 -21 1306 -32 m 1200 50 q 1182 100 1204 78 q 1124 129 1160 122 q 1059 120 1088 135 q 1026 78 1031 106 q 1044 29 1022 51 q 1103 0 1067 7 q 1167 8 1139 -7 q 1200 50 1196 24 m 832 365 q 825 382 832 375 q 807 389 818 389 q 791 382 797 389 q 785 365 785 375 q 792 349 785 356 q 808 342 799 342 q 825 349 818 342 q 832 365 832 356 m 971 113 q 963 131 971 124 q 943 139 954 139 q 924 131 932 139 q 917 113 917 124 q 925 93 917 101 q 944 85 933 85 q 963 93 956 85 q 971 113 971 101 m 963 35 q 953 54 963 46 q 933 63 944 63 q 913 54 921 63 q 906 35 906 46 q 914 14 906 22 q 933 6 922 6 q 954 14 946 6 q 963 35 963 22 m 850 96 l 831 126 q 816 148 824 138 q 806 158 808 158 q 794 148 801 158 q 781 126 788 138 q 764 96 772 113 q 782 64 774 78 q 796 42 789 51 q 807 32 803 32 q 818 42 811 32 q 832 64 825 51 q 850 96 840 78 m 693 113 q 685 131 693 124 q 665 139 676 139 q 647 131 654 139 q 639 113 639 124 q 647 93 639 101 q 667 85 656 85 q 685 93 678 85 q 693 113 693 101 m 703 33 q 694 53 703 44 q 674 61 685 61 q 654 53 663 61 q 646 33 646 44 q 655 13 646 21 q 675 4 664 4 q 694 13 686 4 q 703 33 703 21 m 576 79 q 544 121 572 106 q 481 129 517 136 q 422 101 444 124 q 404 51 400 78 q 436 9 408 24 q 500 0 464 -6 q 559 29 536 7 q 576 79 582 51 m 114 281 q 111 295 114 286 q 104 313 108 304 q 94 327 100 321 q 82 333 89 333 q 74 325 75 333 q 72 311 72 317 q 74 297 72 306 q 81 281 76 289 q 90 267 85 272 q 103 261 96 261 q 112 268 110 261 q 114 281 114 275 m 319 50 q 311 69 319 61 q 292 78 303 78 q 273 69 281 78 q 265 50 265 61 q 274 31 265 39 q 293 24 282 24 q 319 50 319 24 m 347 -24 q 338 -4 347 -12 q 318 4 329 4 q 299 -4 307 4 q 290 -24 290 -12 q 299 -43 290 -35 q 319 -51 308 -51 q 339 -43 331 -51 q 347 -24 347 -35 m 206 1 l 160 39 q 155 4 157 24 q 153 -18 153 -15 q 170 -40 153 -25 q 201 -65 188 -54 q 206 -26 206 -53 l 206 1 z "},"≤":{"ha":843,"x_min":69,"x_max":774,"o":"m 774 226 l 69 542 l 69 686 l 774 1001 l 774 801 l 338 614 l 774 425 l 774 226 m 774 0 l 69 0 l 69 186 l 774 186 l 774 0 z "},"≥":{"ha":843,"x_min":69,"x_max":774,"o":"m 774 540 l 69 226 l 69 426 l 504 614 l 69 801 l 69 1001 l 774 686 l 774 540 m 774 0 l 69 0 l 69 186 l 774 186 l 774 0 z "},"¥":{"ha":1081,"x_min":21,"x_max":1067,"o":"m 1067 1106 l 825 731 l 942 731 l 942 546 l 706 546 l 651 463 l 651 421 l 942 421 l 942 236 l 651 236 l 651 -4 l 438 -4 l 438 236 l 144 236 l 144 421 l 438 421 l 438 461 l 382 546 l 144 546 l 144 731 l 263 731 l 21 1106 l 279 1106 l 544 678 l 814 1106 l 1067 1106 z "},"µ":{"ha":885,"x_min":69,"x_max":801,"o":"m 801 0 l 603 0 l 603 67 q 557 30 583 46 q 501 3 531 14 q 441 -14 472 -8 q 383 -19 410 -19 q 268 -1 322 -19 l 268 -349 l 69 -349 l 69 804 l 269 804 l 269 325 q 280 256 269 288 q 311 200 290 224 q 362 163 332 176 q 431 149 392 149 q 603 217 531 149 l 603 804 l 801 804 l 801 0 z "},"∂":{"ha":1261,"x_min":35,"x_max":1226,"o":"m 1226 576 q 1180 344 1226 453 q 1052 155 1133 236 q 863 27 971 74 q 631 -19 754 -19 q 399 27 507 -19 q 209 155 290 74 q 81 344 128 236 q 35 576 35 453 q 81 808 35 700 q 209 998 128 917 q 399 1126 290 1079 q 631 1172 507 1172 q 863 1126 754 1172 q 1052 998 971 1079 q 1180 808 1133 917 q 1226 576 1226 700 m 1113 576 q 1074 764 1113 676 q 971 917 1036 851 q 818 1020 906 982 q 631 1058 731 1058 q 443 1020 531 1058 q 290 917 356 982 q 187 764 225 851 q 149 576 149 676 q 187 389 149 476 q 290 236 225 301 q 443 133 356 171 q 631 94 531 94 q 818 133 731 94 q 971 236 906 171 q 1074 389 1036 301 q 1113 576 1113 476 m 922 313 q 792 215 868 250 q 628 179 715 179 q 474 210 546 179 q 350 296 403 242 q 266 422 297 350 q 235 576 235 494 q 266 731 235 658 q 350 857 297 803 q 474 942 403 911 q 628 974 546 974 q 788 940 714 974 q 915 849 861 907 l 792 725 q 722 785 764 761 q 628 808 679 808 q 544 790 583 808 q 476 740 506 772 q 430 666 447 708 q 413 576 413 624 q 429 486 413 528 q 475 413 446 444 q 544 363 504 381 q 628 344 583 344 q 726 370 681 344 q 799 436 771 396 l 922 313 z "},"∑":{"ha":997,"x_min":7,"x_max":969,"o":"m 969 -385 l 7 -385 l 511 371 l 39 1113 l 950 1113 l 950 919 l 388 919 l 746 374 l 364 -192 l 969 -192 l 969 -385 z "},"∏":{"ha":1031,"x_min":83,"x_max":947,"o":"m 947 -386 l 733 -386 l 733 919 l 297 919 l 297 -386 l 83 -386 l 83 1111 l 947 1111 l 947 -386 z "},"π":{"ha":1000,"x_min":69,"x_max":958,"o":"m 958 22 q 896 -10 932 3 q 807 -22 860 -22 q 698 1 740 -22 q 632 62 656 25 q 600 144 608 99 q 592 235 592 190 l 592 626 l 406 626 l 406 261 q 395 117 406 186 q 361 0 385 49 l 158 0 q 198 138 189 67 q 207 271 207 208 l 207 628 l 69 628 l 69 804 l 938 804 l 938 626 l 789 626 l 789 231 q 795 185 789 203 q 812 158 801 168 q 834 144 822 147 q 857 140 846 140 q 883 144 872 140 q 911 158 894 147 l 958 22 z "},"∫":{"ha":540,"x_min":-42,"x_max":582,"o":"m 582 1157 q 560 1081 569 1115 q 536 994 550 1046 q 488 1013 506 1008 q 456 1017 471 1017 q 397 992 419 1017 q 375 904 375 967 l 375 -78 q 359 -197 375 -142 q 310 -292 343 -251 q 225 -357 276 -333 q 103 -381 174 -381 q 35 -374 74 -381 q -42 -351 -4 -367 l 0 -183 q 49 -199 33 -196 q 82 -203 65 -203 q 142 -178 121 -203 q 163 -92 163 -154 l 163 890 q 179 1010 163 954 q 230 1106 196 1065 q 317 1171 264 1147 q 440 1194 369 1194 q 511 1186 472 1194 q 582 1157 550 1178 z "},"ª":{"ha":544,"x_min":28,"x_max":475,"o":"m 475 610 l 329 610 l 329 626 q 269 603 300 610 q 199 597 238 597 q 76 641 125 597 q 28 757 28 685 q 53 844 28 808 q 122 902 79 881 q 217 931 164 924 q 328 929 271 938 q 233 1001 319 1001 q 185 992 210 1001 q 128 954 160 982 l 40 1043 q 141 1110 88 1088 q 251 1132 194 1132 q 345 1115 304 1132 q 414 1071 386 1099 q 462 995 449 1036 q 475 890 475 954 l 475 610 m 328 750 l 328 818 q 272 821 299 821 q 224 816 244 821 q 190 799 203 811 q 178 768 178 788 q 193 737 178 750 q 233 724 208 724 q 328 750 281 724 z "},"º":{"ha":628,"x_min":28,"x_max":558,"o":"m 558 865 q 538 761 558 810 q 481 676 517 713 q 396 618 444 639 q 293 597 347 597 q 190 618 238 597 q 106 676 142 639 q 49 761 69 713 q 28 865 28 810 q 49 969 28 921 q 106 1054 69 1018 q 190 1111 142 1090 q 293 1132 238 1132 q 396 1111 347 1132 q 481 1054 444 1090 q 538 969 517 1018 q 558 865 558 921 m 418 865 q 408 918 418 893 q 381 961 397 943 q 341 990 364 979 q 293 1000 318 1000 q 205 961 242 1000 q 168 865 168 922 q 178 812 168 836 q 205 769 188 788 q 245 740 222 750 q 293 729 268 729 q 341 740 318 729 q 381 769 364 750 q 408 812 397 788 q 418 865 418 836 z "},"Ω":{"ha":1086,"x_min":69,"x_max":1017,"o":"m 1017 638 q 1002 501 1017 564 q 963 383 988 438 q 907 284 939 329 q 840 204 875 239 l 1014 204 l 1014 0 l 610 0 l 610 188 q 674 257 642 218 q 734 347 707 296 q 778 462 761 397 q 794 608 794 526 q 728 859 794 768 q 547 950 663 950 q 442 926 489 950 q 360 857 394 901 q 308 749 326 813 q 289 607 289 686 q 306 464 289 528 q 349 349 322 400 q 410 259 376 299 q 478 188 443 219 l 478 0 l 72 0 l 72 204 l 243 204 q 181 277 213 235 q 125 372 150 319 q 85 490 100 425 q 69 635 69 556 q 104 830 69 739 q 202 988 139 921 q 353 1094 265 1056 q 550 1132 442 1132 q 748 1095 661 1132 q 894 992 835 1058 q 985 835 954 926 q 1017 638 1017 744 z "},"æ":{"ha":1413,"x_min":42,"x_max":1371,"o":"m 1371 403 q 1369 363 1371 383 q 1364 319 1367 342 l 722 319 q 753 253 733 285 q 803 199 774 222 q 869 163 832 176 q 950 150 906 150 q 1058 169 1004 150 q 1149 219 1113 188 l 1275 93 q 1112 5 1192 31 q 943 -21 1032 -21 q 826 -6 881 -21 q 722 38 771 10 l 722 0 l 535 0 l 535 43 q 427 -7 482 7 q 301 -21 372 -21 q 196 -3 243 -21 q 114 47 149 14 q 60 124 79 79 q 42 222 42 168 q 72 341 42 290 q 153 426 101 392 q 273 476 204 460 q 421 493 342 493 l 536 493 q 358 647 536 647 q 272 632 317 647 q 183 576 228 617 l 65 696 q 213 790 129 757 q 386 824 297 824 q 535 797 469 824 q 640 729 600 771 q 654 714 650 719 q 785 794 713 765 q 942 824 858 824 q 1104 792 1026 824 q 1242 706 1182 761 q 1336 573 1301 650 q 1371 403 1371 496 m 1161 481 q 1077 603 1138 557 q 940 650 1017 650 q 806 603 865 650 q 722 481 746 557 l 1161 481 m 535 200 l 535 349 l 443 349 q 365 343 401 349 q 301 324 328 338 q 258 290 274 311 q 242 240 242 269 q 274 172 242 199 q 358 146 307 146 q 447 160 403 146 q 535 200 490 174 z "},"ø":{"ha":954,"x_min":56,"x_max":913,"o":"m 913 401 q 879 234 913 311 q 788 101 846 157 q 651 12 729 44 q 483 -21 572 -21 q 286 26 376 -21 l 242 -32 l 86 -32 l 183 100 q 90 235 124 158 q 56 401 56 311 q 90 566 56 489 q 182 701 124 643 q 318 791 240 758 q 483 824 396 824 q 683 776 592 824 l 725 835 l 882 835 l 786 704 q 878 569 844 646 q 913 401 913 493 m 713 401 q 701 478 713 442 q 668 546 689 515 l 396 175 q 483 157 439 157 q 572 176 531 157 q 645 228 614 194 q 694 306 676 261 q 713 401 713 350 m 572 626 q 483 646 529 646 q 394 627 436 646 q 322 575 353 608 q 272 497 290 542 q 254 401 254 453 q 266 324 254 361 q 299 257 278 288 l 572 626 z "},"¿":{"ha":783,"x_min":56,"x_max":728,"o":"m 604 904 l 397 904 l 397 1111 l 604 1111 l 604 904 m 728 101 q 589 11 671 44 q 404 -22 507 -22 q 267 -1 331 -22 q 157 61 204 21 q 83 157 110 101 q 56 282 56 213 q 114 467 56 389 q 260 586 172 546 l 332 619 q 384 660 367 635 q 401 736 401 685 l 401 803 l 600 803 l 600 735 q 592 626 600 669 q 567 553 583 583 q 524 503 550 522 q 461 467 497 483 l 397 438 q 292 362 318 401 q 265 283 265 322 q 276 238 265 260 q 307 200 288 217 q 355 173 326 183 q 418 163 383 163 q 519 181 471 163 q 607 242 567 199 l 728 101 z "},"¡":{"ha":379,"x_min":56,"x_max":296,"o":"m 279 904 l 72 904 l 72 1111 l 279 1111 l 279 904 m 296 0 l 56 0 l 114 803 l 238 803 l 296 0 z "},"¬":{"ha":933,"x_min":56,"x_max":850,"o":"m 850 268 l 664 268 l 664 607 l 56 607 l 56 793 l 850 793 l 850 268 z "},"√":{"ha":938,"x_min":0,"x_max":903,"o":"m 903 997 l 751 997 l 522 -61 l 322 -61 l 106 535 l 0 535 l 0 713 l 261 713 l 407 314 l 592 1175 l 903 1175 l 903 997 z "},"ƒ":{"ha":676,"x_min":-208,"x_max":725,"o":"m 725 1317 l 689 1150 q 643 1163 664 1160 q 594 1167 622 1167 q 504 1135 535 1167 q 458 1032 474 1103 l 446 971 l 569 971 l 532 794 l 408 794 l 244 28 q 142 -158 219 -94 q -64 -221 65 -221 q -140 -215 -104 -221 q -208 -200 -176 -210 l -174 -33 q -127 -47 -149 -43 q -79 -50 -106 -50 q 12 -18 -19 -50 q 58 85 43 14 l 208 794 l 111 794 l 149 971 l 247 971 l 260 1031 q 365 1260 292 1182 q 579 1338 438 1338 q 656 1332 619 1338 q 725 1317 693 1326 z "},"≈":{"ha":915,"x_min":97,"x_max":832,"o":"m 832 300 l 686 154 l 465 375 l 257 165 l 108 311 l 318 522 l 97 743 l 243 889 l 465 668 l 675 878 l 821 732 l 613 522 l 832 300 z "},"∆":{"ha":1008,"x_min":14,"x_max":994,"o":"m 994 -29 l 14 -29 l 388 1111 l 626 1111 l 994 -29 m 711 157 l 500 838 l 289 157 l 711 157 z "},"«":{"ha":856,"x_min":28,"x_max":828,"o":"m 828 757 l 578 379 l 828 0 l 621 0 l 374 379 l 621 757 l 828 757 m 485 757 l 235 379 l 483 0 l 278 0 l 28 379 l 278 757 l 485 757 z "},"»":{"ha":856,"x_min":28,"x_max":828,"o":"m 828 379 l 578 0 l 371 0 l 621 379 l 371 757 l 578 757 l 828 379 m 482 379 l 235 0 l 28 0 l 278 379 l 28 757 l 235 757 l 482 379 z "},"…":{"ha":1068,"x_min":83,"x_max":985,"o":"m 985 0 l 778 0 l 778 207 l 985 207 l 985 0 m 638 0 l 431 0 l 431 207 l 638 207 l 638 0 m 290 0 l 83 0 l 83 207 l 290 207 l 290 0 z "}," ":{"ha":438,"x_min":0,"x_max":0,"o":""},"À":{"ha":1232,"x_min":14,"x_max":1232,"o":"m 753 1210 l 606 1210 l 406 1478 l 629 1478 l 753 1210 m 1232 0 l 996 0 l 893 222 l 354 222 l 250 0 l 14 0 l 539 1111 l 707 1111 l 1232 0 m 808 401 l 624 801 l 436 401 l 808 401 z "},"Ã":{"ha":1232,"x_min":14,"x_max":1232,"o":"m 910 1447 q 899 1362 908 1404 q 867 1285 889 1319 q 810 1231 844 1251 q 726 1210 776 1210 q 667 1219 694 1210 q 613 1240 639 1229 q 562 1261 588 1251 q 511 1271 536 1271 q 474 1251 486 1271 q 458 1210 461 1232 l 339 1210 q 349 1294 339 1251 q 381 1370 360 1336 q 438 1426 403 1404 q 521 1447 472 1447 q 580 1438 551 1447 q 635 1417 608 1428 q 685 1396 661 1406 q 731 1386 710 1386 q 772 1404 758 1386 q 790 1447 786 1422 l 910 1447 m 1232 0 l 996 0 l 893 222 l 354 222 l 250 0 l 14 0 l 539 1111 l 707 1111 l 1232 0 m 808 401 l 624 801 l 436 401 l 808 401 z "},"Õ":{"ha":1304,"x_min":69,"x_max":1249,"o":"m 944 1447 q 933 1362 943 1404 q 901 1285 924 1319 q 845 1231 879 1251 q 761 1210 811 1210 q 701 1219 729 1210 q 648 1240 674 1229 q 597 1261 622 1251 q 546 1271 571 1271 q 508 1251 521 1271 q 493 1210 496 1232 l 374 1210 q 384 1294 374 1251 q 416 1370 394 1336 q 472 1426 438 1404 q 556 1447 507 1447 q 615 1438 586 1447 q 669 1417 643 1428 q 720 1396 696 1406 q 765 1386 744 1386 q 807 1404 793 1386 q 825 1447 821 1422 l 944 1447 m 1249 556 q 1202 331 1249 436 q 1075 147 1156 225 q 888 24 994 69 q 660 -21 781 -21 q 431 24 539 -21 q 243 147 324 69 q 116 330 163 225 q 69 556 69 435 q 116 782 69 676 q 243 965 163 888 q 431 1088 324 1043 q 660 1132 539 1132 q 888 1088 781 1132 q 1075 965 994 1043 q 1202 781 1156 886 q 1249 556 1249 676 m 1032 556 q 1003 699 1032 632 q 923 817 974 767 q 804 898 872 868 q 660 928 736 928 q 514 898 582 928 q 395 817 446 868 q 315 699 344 767 q 286 556 286 632 q 315 413 286 481 q 395 294 344 344 q 514 213 446 243 q 660 183 582 183 q 804 213 736 183 q 923 294 872 243 q 1003 413 974 344 q 1032 556 1032 481 z "},"Œ":{"ha":1821,"x_min":69,"x_max":1765,"o":"m 1765 0 l 1032 0 l 1032 110 q 860 13 956 47 q 660 -21 765 -21 q 431 24 539 -21 q 243 147 324 69 q 116 330 163 225 q 69 556 69 435 q 116 782 69 676 q 243 965 163 888 q 431 1088 324 1043 q 660 1132 539 1132 q 860 1098 765 1132 q 1032 1003 956 1064 l 1032 1110 l 1765 1110 l 1765 932 l 1243 932 l 1243 667 l 1758 667 l 1758 493 l 1243 493 l 1243 188 l 1765 188 l 1765 0 m 1032 556 q 1003 699 1032 632 q 923 817 974 767 q 804 898 872 868 q 660 928 736 928 q 514 898 582 928 q 395 817 446 868 q 315 699 344 767 q 286 556 286 632 q 315 413 286 481 q 395 294 344 344 q 514 213 446 243 q 660 183 582 183 q 804 213 736 183 q 923 294 872 243 q 1003 413 974 344 q 1032 556 1032 481 z "},"œ":{"ha":1585,"x_min":56,"x_max":1543,"o":"m 1543 403 q 1541 363 1543 383 q 1536 319 1539 342 l 894 319 q 926 253 906 285 q 975 199 946 222 q 1041 163 1004 176 q 1122 150 1078 150 q 1231 169 1176 150 q 1321 219 1285 188 l 1447 93 q 1284 5 1364 31 q 1115 -21 1204 -21 q 939 15 1019 -21 q 800 113 858 50 q 660 15 742 50 q 483 -21 579 -21 q 317 12 394 -21 q 181 101 239 44 q 89 235 122 158 q 56 401 56 313 q 90 566 56 489 q 182 701 124 643 q 318 791 240 758 q 483 824 396 824 q 660 788 579 824 q 800 689 742 751 q 940 788 858 751 q 1114 824 1021 824 q 1276 792 1199 824 q 1414 706 1354 761 q 1508 573 1474 650 q 1543 403 1543 496 m 1333 481 q 1249 603 1310 557 q 1113 650 1189 650 q 978 603 1038 650 q 894 481 918 557 l 1333 481 m 713 401 q 694 497 713 453 q 645 575 676 542 q 572 627 614 608 q 483 646 531 646 q 394 627 436 646 q 322 575 353 608 q 272 497 290 542 q 254 401 254 453 q 272 306 254 350 q 322 228 290 261 q 394 176 353 194 q 483 157 436 157 q 572 176 531 157 q 645 228 614 194 q 694 306 676 261 q 713 401 713 350 z "},"–":{"ha":815,"x_min":42,"x_max":774,"o":"m 774 361 l 42 361 l 42 547 l 774 547 l 774 361 z "},"—":{"ha":1276,"x_min":42,"x_max":1235,"o":"m 1235 361 l 42 361 l 42 547 l 1235 547 l 1235 361 z "},"“":{"ha":561,"x_min":42,"x_max":526,"o":"m 526 781 l 319 781 l 319 988 q 329 1051 319 1021 q 358 1103 339 1081 q 405 1140 376 1126 q 471 1153 433 1153 q 498 1150 485 1153 q 522 1144 511 1147 l 522 1129 q 457 1092 482 1122 q 432 1021 432 1061 q 433 1004 432 1014 q 438 988 435 994 l 526 988 l 526 781 m 249 781 l 42 781 l 42 988 q 51 1051 42 1021 q 80 1103 61 1081 q 127 1140 99 1126 q 193 1153 156 1153 q 220 1150 207 1153 q 244 1144 233 1147 l 244 1129 q 179 1092 204 1122 q 154 1021 154 1061 q 156 1004 154 1014 q 160 988 157 994 l 249 988 l 249 781 z "},"”":{"ha":561,"x_min":42,"x_max":526,"o":"m 526 946 q 517 883 526 913 q 488 830 507 853 q 441 794 469 807 q 375 781 413 781 q 348 783 361 781 q 324 789 335 786 l 324 804 q 389 842 364 811 q 414 913 414 872 q 413 929 414 919 q 408 946 411 939 l 319 946 l 319 1153 l 526 1153 l 526 946 m 249 946 q 239 883 249 913 q 210 830 229 853 q 163 794 192 807 q 97 781 135 781 q 70 783 83 781 q 46 789 57 786 l 46 804 q 111 842 86 811 q 136 913 136 872 q 135 929 136 919 q 131 946 133 939 l 42 946 l 42 1153 l 249 1153 l 249 946 z "},"‘":{"ha":269,"x_min":35,"x_max":242,"o":"m 242 781 l 35 781 l 35 988 q 44 1051 35 1021 q 73 1103 54 1081 q 120 1140 92 1126 q 186 1153 149 1153 q 213 1150 200 1153 q 238 1144 226 1147 l 238 1129 q 172 1092 197 1122 q 147 1021 147 1061 q 149 1004 147 1014 q 153 988 150 994 l 242 988 l 242 781 z "},"’":{"ha":269,"x_min":35,"x_max":242,"o":"m 242 946 q 232 883 242 913 q 203 830 222 853 q 156 794 185 807 q 90 781 128 781 q 63 783 76 781 q 39 789 50 786 l 39 804 q 104 842 79 811 q 129 913 129 872 q 128 929 129 919 q 124 946 126 939 l 35 946 l 35 1153 l 242 1153 l 242 946 z "},"÷":{"ha":890,"x_min":83,"x_max":821,"o":"m 554 726 l 347 726 l 347 933 l 554 933 l 554 726 m 821 418 l 83 418 l 83 628 l 821 628 l 821 418 m 554 115 l 347 115 l 347 322 l 554 322 l 554 115 z "},"◊":{"ha":1151,"x_min":28,"x_max":1124,"o":"m 1124 556 l 576 -132 l 28 556 l 576 1244 l 1124 556 m 867 556 l 576 919 l 285 556 l 576 194 l 867 556 z "},"ÿ":{"ha":819,"x_min":21,"x_max":813,"o":"m 668 903 l 488 903 l 488 1083 l 668 1083 l 668 903 m 349 903 l 168 903 l 168 1083 l 349 1083 l 349 903 m 813 804 l 451 -150 q 346 -304 411 -257 q 190 -351 281 -351 q 160 -349 176 -351 q 128 -343 143 -347 l 61 -157 q 110 -174 85 -168 q 157 -181 135 -181 q 243 -159 204 -181 q 303 -79 282 -137 l 331 1 l 21 804 l 239 804 l 424 288 l 597 804 l 813 804 z "},"Ÿ":{"ha":1128,"x_min":21,"x_max":1121,"o":"m 811 1210 l 631 1210 l 631 1390 l 811 1390 l 811 1210 m 492 1210 l 311 1210 l 311 1390 l 492 1390 l 492 1210 m 1121 1110 l 668 454 l 668 -1 l 450 -1 l 450 457 l 21 1110 l 271 1110 l 560 643 l 861 1110 l 1121 1110 z "},"⁄":{"ha":863,"x_min":-28,"x_max":890,"o":"m 890 1104 l 146 -71 l -28 -71 l 717 1104 l 890 1104 z "},"¤":{"ha":1121,"x_min":42,"x_max":1065,"o":"m 1065 56 q 926 -1 1001 19 q 765 -21 850 -21 q 576 8 665 -21 q 413 87 486 36 q 283 207 339 138 q 197 358 228 276 l 42 358 l 124 499 l 165 499 q 163 526 164 513 q 163 551 163 539 q 163 576 163 564 q 164 601 163 589 l 42 601 l 124 742 l 193 742 q 276 900 222 828 q 405 1024 331 972 q 571 1103 479 1075 q 765 1132 663 1132 q 923 1111 849 1132 q 1064 1054 997 1090 l 961 875 q 869 914 918 900 q 765 928 819 928 q 565 878 653 928 q 428 742 476 828 l 893 742 l 811 601 l 382 601 q 381 579 381 590 q 381 556 381 568 q 385 499 381 525 l 758 497 l 678 357 l 436 357 q 570 231 485 278 q 765 185 656 185 q 869 197 817 185 q 963 236 922 210 l 1065 56 z "},"‹":{"ha":513,"x_min":28,"x_max":485,"o":"m 485 757 l 235 379 l 483 0 l 278 0 l 28 379 l 278 757 l 485 757 z "},"›":{"ha":510,"x_min":28,"x_max":482,"o":"m 482 379 l 235 0 l 28 0 l 278 379 l 28 757 l 235 757 l 482 379 z "},"ﬁ":{"ha":899,"x_min":28,"x_max":801,"o":"m 801 943 l 593 943 l 593 1151 l 801 1151 l 801 943 m 799 0 l 596 0 l 596 804 l 799 804 l 799 0 m 531 969 q 479 984 501 981 q 431 988 457 988 q 348 961 372 988 q 324 865 324 935 l 324 806 l 449 806 l 450 803 l 450 628 l 449 625 l 324 625 l 324 0 l 125 0 l 125 625 l 28 625 l 28 806 l 125 806 l 125 863 q 181 1093 125 1014 q 379 1172 238 1172 q 531 1153 460 1172 l 531 969 z "},"ﬂ":{"ha":946,"x_min":28,"x_max":932,"o":"m 932 4 q 878 -14 908 -7 q 817 -21 849 -21 q 731 -9 772 -21 q 660 29 690 3 q 611 98 629 56 q 593 200 593 140 l 593 1153 l 797 1153 l 797 235 q 817 166 797 185 q 865 147 838 147 q 932 168 900 147 l 932 4 m 531 969 q 479 984 501 981 q 431 988 457 988 q 348 961 372 988 q 324 865 324 935 l 324 806 l 449 806 l 450 803 l 450 628 l 449 625 l 324 625 l 324 0 l 125 0 l 125 625 l 28 625 l 28 806 l 125 806 l 125 863 q 181 1093 125 1014 q 379 1172 238 1172 q 531 1153 460 1172 l 531 969 z "},"‡":{"ha":1261,"x_min":35,"x_max":1226,"o":"m 1226 576 q 1180 344 1226 453 q 1052 155 1133 236 q 863 27 971 74 q 631 -19 754 -19 q 399 27 507 -19 q 209 155 290 74 q 81 344 128 236 q 35 576 35 453 q 81 808 35 700 q 209 998 128 917 q 399 1126 290 1079 q 631 1172 507 1172 q 863 1126 754 1172 q 1052 998 971 1079 q 1180 808 1133 917 q 1226 576 1226 700 m 1113 576 q 1074 764 1113 676 q 971 917 1036 851 q 818 1020 906 982 q 631 1058 731 1058 q 443 1020 531 1058 q 290 917 356 982 q 187 764 225 851 q 149 576 149 676 q 187 389 149 476 q 290 236 225 301 q 443 133 356 171 q 631 94 531 94 q 818 133 731 94 q 971 236 906 171 q 1074 389 1036 301 q 1113 576 1113 476 m 932 694 q 913 597 932 642 q 858 517 893 551 q 778 463 824 482 q 681 443 732 443 l 556 443 l 556 201 l 414 201 l 414 946 l 681 946 q 778 926 732 946 q 858 872 824 907 q 913 792 893 838 q 932 694 932 746 m 793 697 q 782 752 793 726 q 752 797 771 778 q 708 826 733 815 q 653 838 682 838 l 556 838 l 556 556 l 653 556 q 708 567 682 556 q 752 597 733 578 q 782 642 771 617 q 793 697 793 668 z "},"·":{"ha":372,"x_min":83,"x_max":296,"o":"m 296 417 l 83 417 l 83 629 l 296 629 l 296 417 z "},"‚":{"ha":276,"x_min":35,"x_max":242,"o":"m 242 0 q 232 -63 242 -33 q 203 -116 222 -93 q 156 -152 185 -139 q 90 -165 128 -165 q 63 -162 76 -165 q 39 -157 50 -160 l 39 -142 q 104 -104 79 -135 q 129 -33 129 -74 q 128 -17 129 -26 q 124 0 126 -7 l 35 0 l 35 207 l 242 207 l 242 0 z "},"„":{"ha":554,"x_min":35,"x_max":519,"o":"m 519 0 q 510 -63 519 -33 q 481 -116 500 -93 q 434 -152 463 -139 q 368 -165 406 -165 q 341 -162 354 -165 q 317 -157 328 -160 l 317 -142 q 382 -104 357 -135 q 407 -33 407 -74 q 406 -17 407 -26 q 401 0 404 -7 l 313 0 l 313 207 l 519 207 l 519 0 m 242 0 q 232 -63 242 -33 q 203 -116 222 -93 q 156 -152 185 -139 q 90 -165 128 -165 q 63 -162 76 -165 q 39 -157 50 -160 l 39 -142 q 104 -104 79 -135 q 129 -33 129 -74 q 128 -17 129 -26 q 124 0 126 -7 l 35 0 l 35 207 l 242 207 l 242 0 z "},"‰":{"ha":1922,"x_min":56,"x_max":1867,"o":"m 1867 253 q 1844 145 1867 196 q 1785 57 1822 94 q 1697 -3 1747 19 q 1589 -25 1646 -25 q 1480 -3 1531 -25 q 1392 57 1429 19 q 1333 145 1354 94 q 1311 253 1311 196 q 1333 362 1311 311 q 1392 450 1354 413 q 1480 509 1429 488 q 1589 531 1531 531 q 1697 509 1646 531 q 1785 450 1747 488 q 1844 362 1822 413 q 1867 253 1867 311 m 1242 253 q 1219 145 1242 196 q 1160 57 1197 94 q 1072 -3 1122 19 q 964 -25 1021 -25 q 855 -3 906 -25 q 767 57 804 19 q 708 145 729 94 q 686 253 686 196 q 708 362 686 311 q 767 450 729 413 q 855 509 804 488 q 964 531 906 531 q 1072 509 1021 531 q 1160 450 1122 488 q 1219 362 1197 413 q 1242 253 1242 311 m 611 856 q 589 748 611 799 q 529 660 567 697 q 441 600 492 622 q 333 578 390 578 q 226 600 276 578 q 138 660 175 622 q 78 748 100 697 q 56 856 56 799 q 78 963 56 913 q 138 1051 100 1014 q 226 1111 175 1089 q 333 1133 276 1133 q 441 1111 390 1133 q 529 1051 492 1089 q 589 963 567 1014 q 611 856 611 913 m 1088 1111 l 343 -64 l 169 -64 l 914 1111 l 1088 1111 m 1700 253 q 1667 331 1700 299 q 1589 364 1635 364 q 1510 331 1543 364 q 1478 253 1478 299 q 1510 174 1478 207 q 1589 142 1543 142 q 1667 174 1635 142 q 1700 253 1700 207 m 1075 253 q 1042 331 1075 299 q 964 364 1010 364 q 885 331 918 364 q 853 253 853 299 q 885 174 853 207 q 964 142 918 142 q 1042 174 1010 142 q 1075 253 1075 207 m 444 856 q 412 934 444 901 q 333 967 379 967 q 255 934 288 967 q 222 856 222 901 q 255 777 222 810 q 333 744 288 744 q 412 777 379 744 q 444 856 444 810 z "},"Â":{"ha":1232,"x_min":14,"x_max":1232,"o":"m 892 1210 l 742 1210 l 624 1328 l 504 1210 l 354 1210 l 533 1478 l 713 1478 l 892 1210 m 1232 0 l 996 0 l 893 222 l 354 222 l 250 0 l 14 0 l 539 1111 l 707 1111 l 1232 0 m 808 401 l 624 801 l 436 401 l 808 401 z "},"Ê":{"ha":900,"x_min":111,"x_max":844,"o":"m 750 1210 l 600 1210 l 482 1328 l 363 1210 l 213 1210 l 392 1478 l 571 1478 l 750 1210 m 844 0 l 111 0 l 111 1110 l 844 1110 l 844 932 l 322 932 l 322 667 l 838 667 l 838 493 l 322 493 l 322 188 l 844 188 l 844 0 z "},"Á":{"ha":1232,"x_min":14,"x_max":1232,"o":"m 833 1478 l 633 1210 l 486 1210 l 611 1478 l 833 1478 m 1232 0 l 996 0 l 893 222 l 354 222 l 250 0 l 14 0 l 539 1111 l 707 1111 l 1232 0 m 808 401 l 624 801 l 436 401 l 808 401 z "},"Ë":{"ha":900,"x_min":111,"x_max":844,"o":"m 725 1210 l 544 1210 l 544 1390 l 725 1390 l 725 1210 m 406 1210 l 225 1210 l 225 1390 l 406 1390 l 406 1210 m 844 0 l 111 0 l 111 1110 l 844 1110 l 844 932 l 322 932 l 322 667 l 838 667 l 838 493 l 322 493 l 322 188 l 844 188 l 844 0 z "},"È":{"ha":900,"x_min":111,"x_max":844,"o":"m 600 1210 l 453 1210 l 253 1478 l 476 1478 l 600 1210 m 844 0 l 111 0 l 111 1110 l 844 1110 l 844 932 l 322 932 l 322 667 l 838 667 l 838 493 l 322 493 l 322 188 l 844 188 l 844 0 z "},"Í":{"ha":424,"x_min":69,"x_max":417,"o":"m 417 1478 l 217 1210 l 69 1210 l 194 1478 l 417 1478 m 326 0 l 111 0 l 111 1110 l 326 1110 l 326 0 z "},"Î":{"ha":424,"x_min":-49,"x_max":489,"o":"m 489 1210 l 339 1210 l 221 1328 l 101 1210 l -49 1210 l 131 1478 l 310 1478 l 489 1210 m 326 0 l 111 0 l 111 1110 l 326 1110 l 326 0 z "},"Ï":{"ha":424,"x_min":-32,"x_max":468,"o":"m 468 1210 l 288 1210 l 288 1390 l 468 1390 l 468 1210 m 149 1210 l -32 1210 l -32 1390 l 149 1390 l 149 1210 m 326 0 l 111 0 l 111 1110 l 326 1110 l 326 0 z "},"Ì":{"ha":424,"x_min":3,"x_max":350,"o":"m 350 1210 l 203 1210 l 3 1478 l 226 1478 l 350 1210 m 326 0 l 111 0 l 111 1110 l 326 1110 l 326 0 z "},"Ó":{"ha":1304,"x_min":69,"x_max":1249,"o":"m 882 1478 l 682 1210 l 535 1210 l 660 1478 l 882 1478 m 1249 556 q 1202 331 1249 436 q 1075 147 1156 225 q 888 24 994 69 q 660 -21 781 -21 q 431 24 539 -21 q 243 147 324 69 q 116 330 163 225 q 69 556 69 435 q 116 782 69 676 q 243 965 163 888 q 431 1088 324 1043 q 660 1132 539 1132 q 888 1088 781 1132 q 1075 965 994 1043 q 1202 781 1156 886 q 1249 556 1249 676 m 1032 556 q 1003 699 1032 632 q 923 817 974 767 q 804 898 872 868 q 660 928 736 928 q 514 898 582 928 q 395 817 446 868 q 315 699 344 767 q 286 556 286 632 q 315 413 286 481 q 395 294 344 344 q 514 213 446 243 q 660 183 582 183 q 804 213 736 183 q 923 294 872 243 q 1003 413 974 344 q 1032 556 1032 481 z "},"Ô":{"ha":1304,"x_min":69,"x_max":1249,"o":"m 928 1210 l 778 1210 l 660 1328 l 540 1210 l 390 1210 l 569 1478 l 749 1478 l 928 1210 m 1249 556 q 1202 331 1249 436 q 1075 147 1156 225 q 888 24 994 69 q 660 -21 781 -21 q 431 24 539 -21 q 243 147 324 69 q 116 330 163 225 q 69 556 69 435 q 116 782 69 676 q 243 965 163 888 q 431 1088 324 1043 q 660 1132 539 1132 q 888 1088 781 1132 q 1075 965 994 1043 q 1202 781 1156 886 q 1249 556 1249 676 m 1032 556 q 1003 699 1032 632 q 923 817 974 767 q 804 898 872 868 q 660 928 736 928 q 514 898 582 928 q 395 817 446 868 q 315 699 344 767 q 286 556 286 632 q 315 413 286 481 q 395 294 344 344 q 514 213 446 243 q 660 183 582 183 q 804 213 736 183 q 923 294 872 243 q 1003 413 974 344 q 1032 556 1032 481 z "},"":{"ha":1222,"x_min":0,"x_max":1222,"o":"m 1222 1 l 956 1 l 538 558 l 951 1111 l 1222 1111 l 1222 1 m 456 1 l 0 1 l 0 1111 l 451 1111 l 38 560 l 456 1 z "},"Ò":{"ha":1304,"x_min":69,"x_max":1249,"o":"m 788 1210 l 640 1210 l 440 1478 l 664 1478 l 788 1210 m 1249 556 q 1202 331 1249 436 q 1075 147 1156 225 q 888 24 994 69 q 660 -21 781 -21 q 431 24 539 -21 q 243 147 324 69 q 116 330 163 225 q 69 556 69 435 q 116 782 69 676 q 243 965 163 888 q 431 1088 324 1043 q 660 1132 539 1132 q 888 1088 781 1132 q 1075 965 994 1043 q 1202 781 1156 886 q 1249 556 1249 676 m 1032 556 q 1003 699 1032 632 q 923 817 974 767 q 804 898 872 868 q 660 928 736 928 q 514 898 582 928 q 395 817 446 868 q 315 699 344 767 q 286 556 286 632 q 315 413 286 481 q 395 294 344 344 q 514 213 446 243 q 660 183 582 183 q 804 213 736 183 q 923 294 872 243 q 1003 413 974 344 q 1032 556 1032 481 z "},"Ú":{"ha":1154,"x_min":97,"x_max":1085,"o":"m 806 1478 l 606 1210 l 458 1210 l 583 1478 l 806 1478 m 1085 1111 l 1085 508 q 1051 301 1085 397 q 955 134 1018 206 q 801 22 892 63 q 593 -19 710 -19 q 388 21 479 -19 q 231 131 296 61 q 132 297 167 201 q 97 501 97 392 l 97 1111 l 313 1111 l 313 500 q 331 380 313 436 q 383 282 349 324 q 470 216 418 240 q 589 192 522 192 q 712 215 660 192 q 798 278 764 238 q 849 375 832 319 q 867 497 867 431 l 867 1111 l 1085 1111 z "},"Û":{"ha":1154,"x_min":97,"x_max":1085,"o":"m 860 1210 l 710 1210 l 592 1328 l 472 1210 l 322 1210 l 501 1478 l 681 1478 l 860 1210 m 1085 1111 l 1085 508 q 1051 301 1085 397 q 955 134 1018 206 q 801 22 892 63 q 593 -19 710 -19 q 388 21 479 -19 q 231 131 296 61 q 132 297 167 201 q 97 501 97 392 l 97 1111 l 313 1111 l 313 500 q 331 380 313 436 q 383 282 349 324 q 470 216 418 240 q 589 192 522 192 q 712 215 660 192 q 798 278 764 238 q 849 375 832 319 q 867 497 867 431 l 867 1111 l 1085 1111 z "},"Ù":{"ha":1154,"x_min":97,"x_max":1085,"o":"m 719 1210 l 572 1210 l 372 1478 l 596 1478 l 719 1210 m 1085 1111 l 1085 508 q 1051 301 1085 397 q 955 134 1018 206 q 801 22 892 63 q 593 -19 710 -19 q 388 21 479 -19 q 231 131 296 61 q 132 297 167 201 q 97 501 97 392 l 97 1111 l 313 1111 l 313 500 q 331 380 313 436 q 383 282 349 324 q 470 216 418 240 q 589 192 522 192 q 712 215 660 192 q 798 278 764 238 q 849 375 832 319 q 867 497 867 431 l 867 1111 l 1085 1111 z "},"ı":{"ha":389,"x_min":86,"x_max":289,"o":"m 289 0 l 86 0 l 86 804 l 289 804 l 289 0 z "},"ˆ":{"ha":806,"x_min":126,"x_max":664,"o":"m 664 903 l 514 903 l 396 1021 l 276 903 l 126 903 l 306 1171 l 485 1171 l 664 903 z "},"˜":{"ha":806,"x_min":121,"x_max":692,"o":"m 692 1140 q 681 1055 690 1097 q 649 978 671 1013 q 592 924 626 944 q 508 903 558 903 q 449 913 476 903 q 394 933 421 922 q 343 954 368 944 q 293 964 318 964 q 256 944 268 964 q 240 903 243 925 l 121 903 q 131 987 121 944 q 163 1063 142 1029 q 219 1119 185 1097 q 303 1140 254 1140 q 362 1131 333 1140 q 417 1110 390 1121 q 467 1089 443 1099 q 513 1079 492 1079 q 554 1097 540 1079 q 572 1140 568 1115 l 692 1140 z "},"¯":{"ha":878,"x_min":131,"x_max":733,"o":"m 733 903 l 131 903 l 131 1063 l 733 1063 l 733 903 z "},"˘":{"ha":835,"x_min":161,"x_max":669,"o":"m 669 1151 q 638 1040 661 1088 q 579 963 614 993 q 502 917 544 932 q 415 903 460 903 q 327 918 369 903 q 251 964 285 933 q 193 1041 217 994 q 161 1151 169 1088 l 322 1151 q 362 1077 332 1097 q 418 1057 392 1057 q 471 1077 443 1057 q 508 1151 499 1097 l 669 1151 z "},"˙":{"ha":426,"x_min":440,"x_max":642,"o":"m 642 903 l 440 903 l 440 1104 l 642 1104 l 642 903 z "},"˚":{"ha":806,"x_min":235,"x_max":564,"o":"m 564 1068 q 551 1003 564 1033 q 515 951 538 974 q 463 916 493 929 q 399 903 432 903 q 335 916 365 903 q 283 951 306 929 q 248 1003 261 974 q 235 1068 235 1033 q 248 1131 235 1101 q 283 1183 261 1161 q 335 1219 306 1206 q 399 1232 365 1232 q 463 1219 432 1232 q 515 1183 493 1206 q 551 1131 538 1161 q 564 1068 564 1101 m 460 1068 q 442 1110 460 1093 q 399 1128 424 1128 q 356 1110 374 1128 q 338 1068 338 1093 q 356 1024 338 1042 q 399 1007 374 1007 q 442 1024 424 1007 q 460 1068 460 1042 z "},"¸":{"ha":894,"x_min":363,"x_max":649,"o":"m 649 -222 q 638 -269 649 -246 q 608 -312 628 -293 q 560 -344 588 -332 q 500 -357 533 -357 q 424 -347 457 -357 q 363 -314 392 -337 l 372 -267 q 399 -278 383 -274 q 428 -283 414 -283 q 488 -262 464 -283 q 511 -212 511 -240 q 488 -158 511 -181 q 428 -136 465 -136 q 410 -137 419 -136 q 394 -140 401 -139 l 421 -6 l 531 -6 l 514 -79 q 616 -132 583 -90 q 649 -222 649 -174 z "},"˝":{"ha":1100,"x_min":249,"x_max":903,"o":"m 903 1169 l 696 903 l 553 903 l 669 1169 l 903 1169 m 599 1169 l 392 903 l 249 903 l 365 1169 l 599 1169 z "},"˛":{"ha":1232,"x_min":697,"x_max":1089,"o":"m 1089 -253 l 1053 -357 q 989 -378 1022 -371 q 907 -386 956 -386 q 845 -376 881 -386 q 778 -345 810 -367 q 723 -289 746 -324 q 699 -204 700 -254 q 713 -135 697 -167 q 753 -76 728 -103 q 811 -30 778 -50 q 881 4 844 -10 l 1086 4 q 1017 -23 1051 -8 q 963 -49 982 -37 q 894 -109 914 -79 q 875 -181 875 -139 q 883 -220 875 -203 q 906 -249 892 -237 q 935 -267 919 -261 q 967 -274 951 -274 q 1027 -269 999 -274 q 1089 -253 1056 -264 z "},"ˇ":{"ha":806,"x_min":126,"x_max":664,"o":"m 664 1171 l 485 903 l 307 903 l 126 1171 l 276 1171 l 396 1053 l 515 1171 l 664 1171 z "},"Ć":{"ha":1128,"x_min":69,"x_max":1128,"o":"m 857 1478 l 657 1210 l 510 1210 l 635 1478 l 857 1478 m 1128 200 q 926 39 1044 99 q 664 -21 807 -21 q 432 24 540 -21 q 243 147 324 69 q 116 330 163 225 q 69 556 69 435 q 116 781 69 676 q 243 965 163 886 q 432 1088 324 1043 q 664 1132 540 1132 q 926 1072 807 1132 q 1124 917 1044 1013 l 975 764 q 842 883 924 838 q 664 928 761 928 q 517 898 586 928 q 397 817 449 868 q 316 699 346 767 q 286 556 286 632 q 316 413 286 481 q 397 295 346 346 q 517 215 449 244 q 664 185 586 185 q 846 231 767 185 q 978 354 925 278 l 1128 200 z "},"ć":{"ha":822,"x_min":56,"x_max":808,"o":"m 672 1171 l 472 903 l 325 903 l 450 1171 l 672 1171 m 808 121 q 661 15 747 51 q 481 -21 575 -21 q 315 11 393 -21 q 180 99 238 43 q 89 233 122 156 q 56 401 56 311 q 89 567 56 490 q 179 701 122 644 q 314 791 236 758 q 481 824 392 824 q 655 790 572 824 q 799 689 738 757 l 664 551 q 590 618 633 592 q 483 644 546 644 q 397 625 438 644 q 324 573 356 606 q 275 496 293 540 q 257 401 257 451 q 275 307 257 351 q 324 230 293 263 q 396 178 354 197 q 483 158 438 158 q 592 187 543 158 q 669 260 640 215 l 808 121 z "},"Č":{"ha":1128,"x_min":69,"x_max":1128,"o":"m 918 1478 l 739 1210 l 560 1210 l 381 1478 l 531 1478 l 649 1360 l 768 1478 l 918 1478 m 1128 200 q 926 39 1044 99 q 664 -21 807 -21 q 432 24 540 -21 q 243 147 324 69 q 116 330 163 225 q 69 556 69 435 q 116 781 69 676 q 243 965 163 886 q 432 1088 324 1043 q 664 1132 540 1132 q 926 1072 807 1132 q 1124 917 1044 1013 l 975 764 q 842 883 924 838 q 664 928 761 928 q 517 898 586 928 q 397 817 449 868 q 316 699 346 767 q 286 556 286 632 q 316 413 286 481 q 397 295 346 346 q 517 215 449 244 q 664 185 586 185 q 846 231 767 185 q 978 354 925 278 l 1128 200 z "},"č":{"ha":822,"x_min":56,"x_max":808,"o":"m 735 1171 l 556 903 l 378 903 l 197 1171 l 347 1171 l 467 1053 l 586 1171 l 735 1171 m 808 121 q 661 15 747 51 q 481 -21 575 -21 q 315 11 393 -21 q 180 99 238 43 q 89 233 122 156 q 56 401 56 311 q 89 567 56 490 q 179 701 122 644 q 314 791 236 758 q 481 824 392 824 q 655 790 572 824 q 799 689 738 757 l 664 551 q 590 618 633 592 q 483 644 546 644 q 397 625 438 644 q 324 573 356 606 q 275 496 293 540 q 257 401 257 451 q 275 307 257 351 q 324 230 293 263 q 396 178 354 197 q 483 158 438 158 q 592 187 543 158 q 669 260 640 215 l 808 121 z "},"€":{"ha":1121,"x_min":42,"x_max":1065,"o":"m 1065 56 q 926 -1 1001 19 q 765 -21 850 -21 q 576 8 665 -21 q 413 87 486 36 q 283 207 339 138 q 197 358 228 276 l 42 358 l 124 499 l 165 499 q 163 526 164 513 q 163 551 163 539 q 163 576 163 564 q 164 601 163 589 l 42 601 l 124 742 l 193 742 q 276 900 222 828 q 405 1024 331 972 q 571 1103 479 1075 q 765 1132 663 1132 q 923 1111 849 1132 q 1064 1054 997 1090 l 961 875 q 869 914 918 900 q 765 928 819 928 q 565 878 653 928 q 428 742 476 828 l 893 742 l 811 601 l 382 601 q 381 579 381 590 q 381 556 381 568 q 385 499 381 525 l 758 497 l 678 357 l 436 357 q 570 231 485 278 q 765 185 656 185 q 869 197 817 185 q 963 236 922 210 l 1065 56 z "},"Ą":{"ha":1232,"x_min":14,"x_max":1232,"o":"m 1232 0 q 1169 -10 1196 0 q 1128 -27 1150 -17 q 1088 -49 1106 -37 q 1019 -109 1039 -79 q 1000 -181 1000 -139 q 1008 -220 1000 -203 q 1031 -249 1017 -237 q 1060 -267 1044 -261 q 1092 -274 1076 -274 q 1152 -269 1124 -274 q 1214 -253 1181 -264 l 1178 -357 q 1114 -378 1147 -371 q 1032 -386 1081 -386 q 970 -376 1006 -386 q 903 -345 935 -367 q 848 -289 871 -324 q 824 -204 825 -254 q 836 -137 822 -168 q 874 -80 850 -106 q 930 -34 899 -54 q 996 0 961 -14 l 893 222 l 354 222 l 250 0 l 14 0 l 539 1111 l 707 1111 l 1232 0 m 808 401 l 624 801 l 436 401 l 808 401 z "},"ą":{"ha":806,"x_min":42,"x_max":739,"o":"m 739 -253 l 703 -357 q 646 -378 678 -371 q 571 -386 614 -386 q 509 -376 544 -386 q 442 -345 474 -367 q 387 -289 410 -324 q 363 -204 364 -254 q 375 -137 361 -168 q 413 -79 389 -106 q 469 -33 438 -53 q 535 0 500 -14 l 535 43 q 427 -7 482 7 q 301 -21 372 -21 q 196 -3 243 -21 q 114 47 149 14 q 60 124 79 79 q 42 222 42 168 q 72 341 42 290 q 153 426 101 392 q 273 476 204 460 q 421 493 342 493 l 536 493 q 358 647 536 647 q 272 632 317 647 q 183 576 228 617 l 65 696 q 213 790 129 757 q 386 824 297 824 q 535 797 469 824 q 640 729 600 771 q 715 611 693 676 q 736 444 736 546 l 736 0 q 674 -25 701 -12 q 626 -49 646 -37 q 558 -109 578 -79 q 539 -181 539 -139 q 548 -220 539 -203 q 570 -249 557 -237 q 600 -267 583 -261 q 632 -274 617 -274 q 685 -269 660 -274 q 739 -253 710 -264 m 535 200 l 535 349 l 443 349 q 365 343 401 349 q 301 324 328 338 q 258 290 274 311 q 242 240 242 269 q 274 172 242 199 q 358 146 307 146 q 447 160 403 146 q 535 200 490 174 z "},"Ę":{"ha":900,"x_min":111,"x_max":844,"o":"m 844 0 q 828 -2 839 0 q 808 -7 818 -4 q 713 -49 746 -29 q 644 -109 664 -79 q 625 -181 625 -139 q 633 -220 625 -203 q 656 -249 642 -237 q 685 -267 669 -261 q 717 -274 701 -274 q 777 -269 749 -274 q 839 -253 806 -264 l 803 -357 q 739 -378 772 -371 q 657 -386 706 -386 q 595 -376 631 -386 q 528 -345 560 -367 q 473 -289 496 -324 q 449 -204 450 -254 q 461 -137 447 -168 q 499 -80 475 -106 q 555 -34 524 -54 q 621 0 586 -14 l 111 0 l 111 1110 l 844 1110 l 844 932 l 322 932 l 322 667 l 838 667 l 838 493 l 322 493 l 322 188 l 844 188 l 844 0 z "},"ę":{"ha":954,"x_min":56,"x_max":913,"o":"m 913 403 q 910 363 913 383 q 906 319 908 342 l 264 319 q 295 253 275 285 q 344 199 315 222 q 410 163 374 176 q 492 150 447 150 q 600 169 546 150 q 690 219 654 188 l 817 93 q 767 59 790 74 q 721 33 743 44 q 667 5 693 18 q 614 -33 640 -8 q 558 -106 574 -72 q 542 -181 542 -139 q 570 -249 542 -225 q 633 -274 599 -274 q 694 -269 665 -274 q 756 -253 722 -264 l 719 -357 q 656 -378 689 -371 q 574 -386 622 -386 q 512 -376 547 -386 q 444 -345 476 -367 q 390 -289 413 -324 q 365 -204 367 -254 q 375 -147 364 -174 q 405 -97 386 -119 q 449 -55 424 -74 q 504 -21 475 -36 q 335 3 417 -26 q 192 90 254 33 q 92 227 129 147 q 56 401 56 307 q 89 566 56 489 q 181 700 122 643 q 317 790 239 757 q 483 824 394 824 q 646 792 568 824 q 783 706 724 761 q 878 573 843 650 q 913 403 913 496 m 703 481 q 619 603 679 557 q 482 650 558 650 q 347 603 407 650 q 264 481 288 557 l 703 481 z "},"Ė":{"ha":900,"x_min":111,"x_max":844,"o":"m 575 1211 l 374 1211 l 374 1413 l 575 1413 l 575 1211 m 844 0 l 111 0 l 111 1110 l 844 1110 l 844 932 l 322 932 l 322 667 l 838 667 l 838 493 l 322 493 l 322 188 l 844 188 l 844 0 z "},"ė":{"ha":954,"x_min":56,"x_max":913,"o":"m 583 906 l 382 906 l 382 1107 l 583 1107 l 583 906 m 913 403 q 910 363 913 383 q 906 319 908 342 l 264 319 q 295 253 275 285 q 344 199 315 222 q 410 163 374 176 q 492 150 447 150 q 600 169 546 150 q 690 219 654 188 l 817 93 q 653 5 733 31 q 485 -21 574 -21 q 316 13 394 -21 q 180 103 238 46 q 89 237 122 160 q 56 401 56 314 q 89 566 56 489 q 181 700 122 643 q 317 790 239 757 q 483 824 394 824 q 646 792 568 824 q 783 706 724 761 q 878 573 843 650 q 913 403 913 496 m 703 481 q 619 603 679 557 q 482 650 558 650 q 347 603 407 650 q 264 481 288 557 l 703 481 z "},"Į":{"ha":424,"x_min":-53,"x_max":326,"o":"m 326 0 q 259 -24 286 -11 q 213 -49 232 -37 q 144 -109 164 -79 q 125 -181 125 -139 q 133 -220 125 -203 q 156 -249 142 -237 q 185 -267 169 -261 q 217 -274 201 -274 q 326 -253 269 -274 l 290 -357 q 231 -379 258 -372 q 157 -386 204 -386 q 95 -376 131 -386 q 28 -345 60 -367 q -27 -289 -4 -324 q -51 -204 -50 -254 q -37 -135 -53 -167 q 1 -76 -22 -103 q 54 -31 25 -50 q 111 0 83 -11 l 111 1110 l 326 1110 l 326 0 z "},"į":{"ha":389,"x_min":-85,"x_max":293,"o":"m 292 943 l 83 943 l 83 1151 l 292 1151 l 292 943 m 293 -253 l 257 -357 q 199 -379 228 -372 q 125 -386 171 -386 q 63 -376 99 -386 q -4 -345 28 -367 q -59 -289 -36 -324 q -83 -204 -82 -254 q -71 -137 -85 -168 q -33 -80 -57 -106 q 22 -35 -10 -54 q 86 -1 53 -15 l 86 803 l 289 804 l 289 0 q 227 -24 254 -10 q 181 -49 200 -37 q 113 -109 132 -79 q 93 -181 93 -139 q 101 -220 93 -203 q 124 -249 110 -237 q 153 -267 138 -261 q 185 -274 169 -274 q 237 -269 213 -274 q 293 -253 261 -265 z "},"Ų":{"ha":1154,"x_min":97,"x_max":1085,"o":"m 1085 1111 l 1085 508 q 1063 342 1085 421 q 1001 197 1042 263 q 901 83 961 132 q 765 8 842 35 q 703 -18 733 -3 q 658 -44 674 -33 q 590 -108 610 -76 q 569 -181 569 -139 q 578 -220 569 -203 q 600 -249 586 -237 q 630 -267 614 -261 q 661 -274 646 -274 q 722 -269 693 -274 q 783 -253 750 -264 l 747 -357 q 683 -378 717 -371 q 601 -386 650 -386 q 540 -376 575 -386 q 472 -345 504 -367 q 417 -289 440 -324 q 393 -204 394 -254 q 403 -144 392 -172 q 433 -93 414 -117 q 476 -50 451 -69 q 531 -15 501 -31 q 350 40 431 -4 q 213 152 269 83 q 127 310 157 221 q 97 501 97 400 l 97 1111 l 313 1111 l 313 500 q 331 380 313 436 q 383 282 349 324 q 470 216 418 240 q 589 192 522 192 q 712 215 660 192 q 798 278 764 238 q 849 375 832 319 q 867 497 867 431 l 867 1111 l 1085 1111 z "},"ų":{"ha":878,"x_min":69,"x_max":797,"o":"m 797 -253 l 761 -357 q 701 -379 732 -372 q 629 -386 671 -386 q 567 -376 603 -386 q 500 -345 532 -367 q 445 -289 468 -324 q 421 -204 422 -254 q 434 -137 419 -168 q 472 -79 449 -106 q 528 -33 496 -53 q 594 1 560 -12 l 594 61 q 549 27 575 42 q 495 2 524 13 q 437 -14 467 -8 q 381 -19 407 -19 q 263 0 319 -19 q 164 60 207 19 q 95 164 121 100 q 69 315 69 228 l 69 803 l 269 803 l 269 325 q 283 249 269 282 q 317 195 296 217 q 367 163 339 174 q 426 153 396 153 q 594 219 524 153 l 594 803 l 794 803 l 794 0 q 732 -25 760 -12 q 685 -49 704 -37 q 617 -109 636 -79 q 597 -181 597 -139 q 606 -220 597 -203 q 628 -249 614 -237 q 658 -267 642 -261 q 689 -274 674 -274 q 740 -269 717 -274 q 797 -253 764 -265 z "},"Ū":{"ha":1154,"x_min":97,"x_max":1085,"o":"m 890 1210 l 288 1210 l 288 1369 l 890 1369 l 890 1210 m 1085 1111 l 1085 508 q 1051 301 1085 397 q 955 134 1018 206 q 801 22 892 63 q 593 -19 710 -19 q 388 21 479 -19 q 231 131 296 61 q 132 297 167 201 q 97 501 97 392 l 97 1111 l 313 1111 l 313 500 q 331 380 313 436 q 383 282 349 324 q 470 216 418 240 q 589 192 522 192 q 712 215 660 192 q 798 278 764 238 q 849 375 832 319 q 867 497 867 431 l 867 1111 l 1085 1111 z "},"ū":{"ha":878,"x_min":69,"x_max":794,"o":"m 733 903 l 131 903 l 131 1063 l 733 1063 l 733 903 m 794 0 l 594 0 l 594 61 q 549 27 575 42 q 495 2 524 13 q 437 -14 467 -8 q 381 -19 407 -19 q 263 0 319 -19 q 164 60 207 19 q 95 164 121 100 q 69 315 69 228 l 69 803 l 269 803 l 269 325 q 283 249 269 282 q 317 195 296 217 q 367 163 339 174 q 426 153 396 153 q 594 219 524 153 l 594 803 l 794 803 l 794 0 z "},"Ş":{"ha":894,"x_min":56,"x_max":853,"o":"m 853 292 q 829 181 853 233 q 763 85 806 128 q 660 15 719 43 q 528 -19 600 -12 l 514 -79 q 616 -132 583 -90 q 649 -222 649 -174 q 638 -269 649 -246 q 608 -312 628 -293 q 560 -344 588 -332 q 500 -357 533 -357 q 424 -347 457 -357 q 363 -314 392 -337 l 372 -267 q 399 -278 383 -274 q 428 -283 414 -283 q 488 -262 464 -283 q 511 -212 511 -240 q 488 -158 511 -181 q 428 -136 465 -136 q 410 -137 419 -136 q 394 -140 401 -139 l 418 -18 q 314 -5 361 -15 q 224 24 267 6 q 140 67 181 42 q 56 129 99 93 l 208 283 q 339 205 275 228 q 478 182 403 182 q 535 191 508 182 q 583 215 563 200 q 615 251 603 231 q 626 297 626 272 q 617 344 626 324 q 582 385 607 365 q 513 424 557 404 q 399 469 468 444 q 281 520 338 492 q 183 589 225 549 q 115 683 140 629 q 89 811 89 738 q 117 942 89 882 q 195 1044 146 1001 q 310 1110 244 1086 q 453 1133 376 1133 q 668 1100 581 1133 q 824 1003 756 1067 l 674 851 q 581 913 632 892 q 460 935 529 935 q 401 925 428 935 q 354 899 374 915 q 323 862 335 883 q 311 817 311 840 q 322 769 311 790 q 360 727 333 747 q 430 687 386 707 q 539 643 474 667 q 682 579 622 614 q 780 503 742 544 q 835 409 818 461 q 853 292 853 357 z "},"ş":{"ha":713,"x_min":56,"x_max":671,"o":"m 671 225 q 651 135 671 175 q 600 65 632 94 q 526 15 568 35 q 438 -15 483 -6 l 424 -79 q 526 -132 493 -90 q 558 -222 558 -174 q 548 -269 558 -246 q 517 -312 538 -293 q 470 -344 497 -332 q 410 -357 443 -357 q 334 -347 367 -357 q 272 -314 301 -337 l 282 -267 q 308 -278 293 -274 q 338 -283 324 -283 q 397 -262 374 -283 q 421 -212 421 -240 q 398 -158 421 -181 q 338 -136 375 -136 q 320 -137 329 -136 q 304 -140 311 -139 l 326 -21 q 178 19 246 -15 q 57 121 110 53 l 178 243 q 261 172 214 197 q 363 146 308 146 q 441 163 410 146 q 472 215 472 181 q 428 276 472 251 q 303 324 383 300 q 211 359 256 338 q 132 412 167 381 q 76 483 97 443 q 56 576 56 524 q 83 681 56 635 q 153 759 110 728 q 253 807 197 790 q 365 824 308 824 q 665 685 549 824 l 546 564 q 467 632 511 607 q 369 657 422 657 q 331 652 351 657 q 294 638 311 647 q 265 615 276 629 q 254 582 254 600 q 297 526 254 550 q 418 479 339 503 q 515 440 469 464 q 596 385 561 417 q 651 315 631 354 q 671 225 671 275 z "},"Ţ":{"ha":901,"x_min":42,"x_max":874,"o":"m 874 918 l 568 918 l 568 0 l 518 0 l 500 -79 q 602 -132 569 -90 q 635 -222 635 -174 q 624 -269 635 -246 q 594 -312 614 -293 q 547 -344 574 -332 q 486 -357 519 -357 q 411 -347 443 -357 q 349 -314 379 -337 l 358 -267 q 385 -278 369 -274 q 414 -283 400 -283 q 474 -262 450 -283 q 497 -212 497 -240 q 474 -158 497 -181 q 414 -136 451 -136 q 397 -137 406 -136 q 381 -142 388 -139 l 408 0 l 349 0 l 349 918 l 42 918 l 42 1110 l 874 1110 l 874 918 z "},"ţ":{"ha":565,"x_min":21,"x_max":531,"o":"m 531 18 q 460 -11 500 -1 q 379 -21 419 -21 l 367 -79 q 469 -132 436 -90 q 501 -222 501 -174 q 491 -269 501 -246 q 460 -312 481 -293 q 413 -344 440 -332 q 353 -357 386 -357 q 278 -347 310 -357 q 215 -314 246 -337 l 225 -267 q 251 -278 236 -274 q 281 -283 267 -283 q 340 -262 317 -283 q 364 -212 364 -240 q 341 -158 364 -181 q 281 -136 318 -136 q 263 -137 272 -136 q 247 -142 254 -139 l 272 -8 q 159 84 192 15 q 126 272 126 153 l 126 624 l 21 624 l 21 714 q 183 842 122 754 q 261 1039 244 929 l 326 1039 l 326 804 l 529 804 l 529 624 l 326 624 l 326 258 q 334 208 326 228 q 354 178 342 189 q 383 163 367 167 q 417 158 399 158 q 473 167 440 158 q 531 194 506 175 l 531 18 z "},"Ğ":{"ha":1189,"x_min":69,"x_max":1133,"o":"m 906 1457 q 874 1346 899 1393 q 816 1268 850 1299 q 740 1223 782 1238 q 653 1208 697 1208 q 565 1224 607 1208 q 488 1269 522 1239 q 431 1347 454 1300 q 399 1457 407 1393 l 560 1457 q 599 1383 569 1403 q 656 1363 629 1363 q 708 1383 681 1363 q 746 1457 736 1403 l 906 1457 m 1133 204 q 1031 103 1086 146 q 915 33 975 61 q 791 -8 854 6 q 665 -21 728 -21 q 433 24 542 -21 q 244 146 325 68 q 117 329 164 224 q 69 557 69 435 q 116 781 69 676 q 244 964 163 886 q 433 1087 325 1042 q 665 1132 542 1132 q 926 1074 808 1132 q 1125 918 1043 1015 l 979 769 q 839 891 917 854 q 665 928 761 928 q 517 899 586 928 q 395 819 447 869 q 313 701 343 768 q 283 557 283 633 q 313 412 283 479 q 395 293 343 344 q 517 213 447 242 q 665 183 586 183 q 807 211 740 183 q 926 285 874 239 l 926 392 l 699 392 l 699 575 l 1133 575 l 1133 204 z "},"ğ":{"ha":835,"x_min":49,"x_max":821,"o":"m 669 1151 q 638 1040 661 1088 q 579 963 614 993 q 502 917 544 932 q 415 903 460 903 q 327 918 369 903 q 251 964 285 933 q 193 1041 217 994 q 161 1151 169 1088 l 322 1151 q 362 1077 332 1097 q 418 1057 392 1057 q 471 1077 443 1057 q 508 1151 499 1097 l 669 1151 m 821 644 l 736 644 q 768 511 768 582 q 748 406 768 457 q 690 314 728 356 q 599 243 653 272 q 479 204 546 214 q 410 183 433 197 q 388 153 388 168 q 410 126 388 139 q 479 110 433 114 q 720 32 635 96 q 806 -137 806 -32 q 779 -237 806 -192 q 703 -317 753 -283 q 585 -368 654 -350 q 429 -386 515 -386 q 272 -368 342 -386 q 151 -317 201 -350 q 75 -239 101 -285 q 49 -137 49 -193 q 97 2 49 -54 q 253 86 144 58 q 205 120 219 99 q 192 164 190 142 q 210 206 193 186 q 260 238 228 226 q 191 281 224 254 q 132 342 158 307 q 90 419 106 376 q 75 511 75 463 q 103 633 75 576 q 178 733 131 690 q 288 799 225 775 q 419 824 350 824 q 546 803 488 824 l 821 803 l 821 644 m 569 511 q 558 568 569 542 q 526 615 546 594 q 478 647 506 635 q 421 658 451 658 q 364 647 390 658 q 317 615 338 635 q 285 568 297 594 q 274 511 274 542 q 285 453 274 481 q 317 406 297 426 q 364 374 338 386 q 421 363 390 363 q 478 374 451 363 q 526 406 506 386 q 558 453 546 426 q 569 511 569 481 m 606 -137 q 556 -67 606 -89 q 429 -44 507 -44 q 298 -68 346 -44 q 250 -137 250 -92 q 300 -208 250 -185 q 429 -232 350 -232 q 558 -209 510 -232 q 606 -137 606 -186 z "},"Ń":{"ha":1132,"x_min":111,"x_max":1035,"o":"m 781 1478 l 581 1210 l 433 1210 l 558 1478 l 781 1478 m 1035 0 l 824 0 l 322 779 l 322 0 l 111 0 l 111 1111 l 353 1111 l 824 386 l 824 1111 l 1035 1111 l 1035 0 z "},"ń":{"ha":883,"x_min":83,"x_max":814,"o":"m 665 1171 l 465 903 l 318 903 l 443 1171 l 665 1171 m 814 0 l 614 0 l 614 479 q 601 555 614 522 q 565 609 588 588 q 515 641 543 631 q 456 651 486 651 q 365 635 410 651 q 285 585 321 619 l 285 0 l 83 0 l 83 803 l 285 803 l 285 743 q 329 776 303 761 q 384 802 356 792 q 442 818 413 813 q 500 824 472 824 q 617 804 561 824 q 717 744 674 785 q 788 640 761 704 q 814 489 814 576 l 814 0 z "},"Ś":{"ha":894,"x_min":56,"x_max":853,"o":"m 679 1478 l 479 1210 l 332 1210 l 457 1478 l 679 1478 m 853 292 q 826 173 853 229 q 750 74 799 117 q 635 5 701 31 q 488 -21 568 -21 q 358 -12 415 -21 q 249 14 300 -4 q 152 60 199 32 q 56 129 106 89 l 208 283 q 339 205 275 228 q 478 182 403 182 q 535 191 508 182 q 583 215 563 200 q 615 251 603 231 q 626 297 626 272 q 617 344 626 324 q 582 385 607 365 q 513 424 557 404 q 399 469 468 444 q 281 520 338 492 q 183 589 225 549 q 115 683 140 629 q 89 811 89 738 q 117 942 89 882 q 195 1044 146 1001 q 310 1110 244 1086 q 453 1133 376 1133 q 668 1100 581 1133 q 824 1003 756 1067 l 674 851 q 581 913 632 892 q 460 935 529 935 q 401 925 428 935 q 354 899 374 915 q 323 862 335 883 q 311 817 311 840 q 322 769 311 790 q 360 727 333 747 q 430 687 386 707 q 539 643 474 667 q 682 579 622 614 q 780 503 742 544 q 835 409 818 461 q 853 292 853 357 z "},"ś":{"ha":713,"x_min":56,"x_max":671,"o":"m 567 1171 l 367 903 l 219 903 l 344 1171 l 567 1171 m 671 225 q 643 119 671 165 q 571 41 615 72 q 471 -6 526 10 q 361 -22 415 -22 q 192 12 269 -22 q 57 121 115 46 l 178 243 q 261 172 214 197 q 363 146 308 146 q 441 163 410 146 q 472 215 472 181 q 428 276 472 251 q 303 324 383 300 q 211 359 256 338 q 132 412 167 381 q 76 483 97 443 q 56 576 56 524 q 83 681 56 635 q 153 759 110 728 q 253 807 197 790 q 365 824 308 824 q 665 685 549 824 l 546 564 q 467 632 511 607 q 369 657 422 657 q 331 652 351 657 q 294 638 311 647 q 265 615 276 629 q 254 582 254 600 q 297 526 254 550 q 418 479 339 503 q 515 440 469 464 q 596 385 561 417 q 651 315 631 354 q 671 225 671 275 z "},"Ź":{"ha":1006,"x_min":56,"x_max":964,"o":"m 746 1478 l 546 1210 l 399 1210 l 524 1478 l 746 1478 m 964 1111 l 426 213 l 960 213 l 960 0 l 56 0 l 606 919 l 76 918 l 76 1111 l 964 1111 z "},"ź":{"ha":774,"x_min":28,"x_max":753,"o":"m 617 1171 l 417 903 l 269 903 l 394 1171 l 617 1171 m 753 804 l 354 179 l 738 179 l 738 0 l 28 0 l 418 625 l 65 625 l 65 804 l 753 804 z "},"Ż":{"ha":1006,"x_min":56,"x_max":964,"o":"m 604 1211 l 403 1211 l 403 1413 l 604 1413 l 604 1211 m 964 1111 l 426 213 l 960 213 l 960 0 l 56 0 l 606 919 l 76 918 l 76 1111 l 964 1111 z "},"ż":{"ha":774,"x_min":28,"x_max":753,"o":"m 500 906 l 299 906 l 299 1107 l 500 1107 l 500 906 m 753 804 l 354 179 l 738 179 l 738 0 l 28 0 l 418 625 l 65 625 l 65 804 l 753 804 z "},"­":{"ha":519,"x_min":42,"x_max":478,"o":"m 478 361 l 42 361 l 42 547 l 478 547 l 478 361 z "},"İ":{"ha":424,"x_min":111,"x_max":326,"o":"m 319 1210 l 118 1210 l 118 1411 l 319 1411 l 319 1210 m 326 0 l 111 0 l 111 1110 l 326 1110 l 326 0 z "},"₹":{"ha":935,"x_min":83,"x_max":914,"o":"m 914 854 l 857 694 l 713 694 q 642 578 690 632 q 528 489 594 524 q 604 437 576 468 q 651 354 632 406 q 669 307 661 331 q 687 258 678 283 q 706 202 696 232 q 729 136 717 172 q 758 58 744 90 q 786 0 771 25 l 550 0 l 471 253 q 441 329 458 294 q 398 389 424 364 q 336 428 372 414 q 250 442 300 442 l 118 442 l 118 583 l 322 583 q 423 615 378 583 q 492 694 468 646 l 83 694 l 140 854 l 493 854 q 425 937 471 904 q 322 969 379 969 l 83 969 l 85 969 l 83 969 l 133 1110 l 914 1110 l 864 969 l 671 969 q 718 854 706 917 l 914 854 z "},"Ș":{"ha":894,"x_min":56,"x_max":853,"o":"m 853 292 q 826 173 853 229 q 750 74 799 117 q 635 5 701 31 q 488 -21 568 -21 q 358 -12 415 -21 q 249 14 300 -4 q 152 60 199 32 q 56 129 106 89 l 208 283 q 339 205 275 228 q 478 182 403 182 q 535 191 508 182 q 583 215 563 200 q 615 251 603 231 q 626 297 626 272 q 617 344 626 324 q 582 385 607 365 q 513 424 557 404 q 399 469 468 444 q 281 520 338 492 q 183 589 225 549 q 115 683 140 629 q 89 811 89 738 q 117 942 89 882 q 195 1044 146 1001 q 310 1110 244 1086 q 453 1133 376 1133 q 668 1100 581 1133 q 824 1003 756 1067 l 674 851 q 581 913 632 892 q 460 935 529 935 q 401 925 428 935 q 354 899 374 915 q 323 862 335 883 q 311 817 311 840 q 322 769 311 790 q 360 727 333 747 q 430 687 386 707 q 539 643 474 667 q 682 579 622 614 q 780 503 742 544 q 835 409 818 461 q 853 292 853 357 m 578 -278 q 569 -334 578 -307 q 542 -382 560 -361 q 499 -415 525 -403 q 440 -428 474 -428 q 417 -425 429 -428 q 394 -419 404 -422 l 394 -406 q 453 -372 431 -399 q 476 -308 476 -344 q 475 -294 476 -303 q 471 -278 474 -285 l 390 -278 l 390 -92 l 578 -92 l 578 -278 z "},"ș":{"ha":713,"x_min":56,"x_max":671,"o":"m 671 225 q 643 119 671 165 q 571 41 615 72 q 471 -6 526 10 q 361 -22 415 -22 q 192 12 269 -22 q 57 121 115 46 l 178 243 q 261 172 214 197 q 363 146 308 146 q 441 163 410 146 q 472 215 472 181 q 428 276 472 251 q 303 324 383 300 q 211 359 256 338 q 132 412 167 381 q 76 483 97 443 q 56 576 56 524 q 83 681 56 635 q 153 759 110 728 q 253 807 197 790 q 365 824 308 824 q 665 685 549 824 l 546 564 q 467 632 511 607 q 369 657 422 657 q 331 652 351 657 q 294 638 311 647 q 265 615 276 629 q 254 582 254 600 q 297 526 254 550 q 418 479 339 503 q 515 440 469 464 q 596 385 561 417 q 651 315 631 354 q 671 225 671 275 m 461 -278 q 452 -334 461 -307 q 426 -382 443 -361 q 383 -415 408 -403 q 324 -428 357 -428 q 300 -425 313 -428 q 278 -419 288 -422 l 278 -406 q 337 -372 314 -399 q 360 -308 360 -344 q 358 -294 360 -303 q 354 -278 357 -285 l 274 -278 l 274 -92 l 461 -92 l 461 -278 z "},"Ț":{"ha":901,"x_min":42,"x_max":874,"o":"m 874 918 l 567 918 l 567 0 l 349 0 l 349 918 l 42 918 l 42 1110 l 874 1110 l 874 918 m 551 -278 q 542 -334 551 -307 q 516 -382 533 -361 q 473 -415 499 -403 q 414 -428 447 -428 q 390 -425 403 -428 q 368 -419 378 -422 l 368 -406 q 427 -372 404 -399 q 450 -308 450 -344 q 449 -294 450 -303 q 444 -278 447 -285 l 364 -278 l 364 -92 l 551 -92 l 551 -278 z "},"ț":{"ha":565,"x_min":21,"x_max":531,"o":"m 531 18 q 460 -11 500 -1 q 379 -21 419 -21 q 260 -3 308 -21 q 182 50 211 14 q 140 142 153 86 q 126 272 126 197 l 126 624 l 21 624 l 21 714 q 178 833 118 754 q 261 1039 239 913 l 326 1039 l 326 804 l 529 804 l 529 624 l 326 624 l 326 258 q 334 208 326 228 q 354 178 342 189 q 383 163 367 167 q 417 158 399 158 q 474 167 440 158 q 531 194 507 175 l 531 18 m 440 -278 q 431 -334 440 -307 q 405 -382 422 -361 q 362 -415 388 -403 q 303 -428 336 -428 q 279 -425 292 -428 q 257 -419 267 -422 l 257 -406 q 316 -372 293 -399 q 339 -308 339 -344 q 338 -294 339 -303 q 333 -278 336 -285 l 253 -278 l 253 -92 l 440 -92 l 440 -278 z "},"Ă":{"ha":1232,"x_min":14,"x_max":1232,"o":"m 876 1457 q 845 1346 869 1393 q 787 1268 821 1299 q 710 1223 753 1238 q 624 1208 668 1208 q 535 1224 578 1208 q 459 1269 493 1239 q 401 1347 425 1300 q 369 1457 378 1393 l 531 1457 q 570 1383 540 1403 q 626 1363 600 1363 q 679 1383 651 1363 q 717 1457 707 1403 l 876 1457 m 1232 0 l 996 0 l 893 222 l 354 222 l 250 0 l 14 0 l 539 1111 l 707 1111 l 1232 0 m 808 401 l 624 801 l 436 401 l 808 401 z "},"ă":{"ha":806,"x_min":42,"x_max":736,"o":"m 642 1151 q 610 1040 633 1088 q 551 963 586 993 q 474 917 517 932 q 388 903 432 903 q 299 918 342 903 q 223 964 257 933 q 165 1041 189 994 q 133 1151 142 1088 l 294 1151 q 334 1077 304 1097 q 390 1057 364 1057 q 443 1077 415 1057 q 481 1151 471 1097 l 642 1151 m 736 0 l 535 0 l 535 43 q 423 -7 482 7 q 301 -21 364 -21 q 196 -3 243 -21 q 114 47 149 14 q 60 124 79 79 q 42 222 42 168 q 72 341 42 290 q 153 426 101 392 q 273 476 204 460 q 421 493 342 493 l 536 493 q 490 606 536 564 q 358 647 444 647 q 272 632 317 647 q 183 576 228 617 l 65 696 q 213 790 129 757 q 386 824 297 824 q 535 797 469 824 q 640 729 600 771 q 715 611 693 676 q 736 444 736 546 l 736 0 m 535 200 l 535 349 l 443 349 q 365 343 401 349 q 301 324 328 338 q 258 290 274 311 q 242 240 242 269 q 274 172 242 199 q 358 146 307 146 q 447 160 403 146 q 535 200 490 174 z "},"Ő":{"ha":1304,"x_min":69,"x_max":1249,"o":"m 1057 1478 l 851 1211 l 708 1211 l 824 1478 l 1057 1478 m 753 1478 l 547 1211 l 404 1211 l 519 1478 l 753 1478 m 1249 556 q 1202 331 1249 436 q 1075 147 1156 225 q 888 24 994 69 q 660 -21 781 -21 q 431 24 539 -21 q 243 147 324 69 q 116 330 163 225 q 69 556 69 435 q 116 782 69 676 q 243 965 163 888 q 431 1088 324 1043 q 660 1132 539 1132 q 888 1088 781 1132 q 1075 965 994 1043 q 1202 781 1156 886 q 1249 556 1249 676 m 1032 556 q 1003 699 1032 632 q 923 817 974 767 q 804 898 872 868 q 660 928 736 928 q 514 898 582 928 q 395 817 446 868 q 315 699 344 767 q 286 556 286 632 q 315 413 286 481 q 395 294 344 344 q 514 213 446 243 q 660 183 582 183 q 804 213 736 183 q 923 294 872 243 q 1003 413 974 344 q 1032 556 1032 481 z "},"ő":{"ha":954,"x_min":56,"x_max":913,"o":"m 875 1169 l 668 903 l 525 903 l 642 1169 l 875 1169 m 571 1169 l 364 903 l 221 903 l 338 1169 l 571 1169 m 913 401 q 879 234 913 311 q 788 101 846 157 q 651 12 729 44 q 483 -21 572 -21 q 317 12 394 -21 q 181 101 239 44 q 89 235 122 158 q 56 401 56 313 q 90 566 56 489 q 182 701 124 643 q 318 791 240 758 q 483 824 396 824 q 651 791 572 824 q 788 702 729 758 q 879 568 846 646 q 913 401 913 490 m 713 401 q 694 497 713 453 q 645 575 676 542 q 572 627 614 608 q 483 646 531 646 q 394 627 436 646 q 322 575 353 608 q 272 497 290 542 q 254 401 254 453 q 272 306 254 350 q 322 228 290 261 q 394 176 353 194 q 483 157 436 157 q 572 176 531 157 q 645 228 614 194 q 694 306 676 261 q 713 401 713 350 z "},"Ű":{"ha":1154,"x_min":97,"x_max":1085,"o":"m 990 1476 l 785 1210 l 642 1210 l 757 1476 l 990 1476 m 686 1476 l 481 1210 l 338 1210 l 453 1476 l 686 1476 m 1085 1111 l 1085 508 q 1051 301 1085 397 q 955 134 1018 206 q 801 22 892 63 q 593 -19 710 -19 q 388 21 479 -19 q 231 131 296 61 q 132 297 167 201 q 97 501 97 392 l 97 1111 l 313 1111 l 313 500 q 331 380 313 436 q 383 282 349 324 q 470 216 418 240 q 589 192 522 192 q 712 215 660 192 q 798 278 764 238 q 849 375 832 319 q 867 497 867 431 l 867 1111 l 1085 1111 z "},"ű":{"ha":878,"x_min":69,"x_max":842,"o":"m 842 1169 l 635 903 l 492 903 l 608 1169 l 842 1169 m 538 1169 l 331 903 l 188 903 l 304 1169 l 538 1169 m 794 0 l 594 0 l 594 61 q 549 27 575 42 q 495 2 524 13 q 437 -14 467 -8 q 381 -19 407 -19 q 263 0 319 -19 q 164 60 207 19 q 95 164 121 100 q 69 315 69 228 l 69 803 l 269 803 l 269 325 q 283 249 269 282 q 317 195 296 217 q 367 163 339 174 q 426 153 396 153 q 594 219 524 153 l 594 803 l 794 803 l 794 0 z "},"Ď":{"ha":1154,"x_min":111,"x_max":1099,"o":"m 821 1478 l 642 1210 l 463 1210 l 283 1478 l 433 1478 l 551 1360 l 671 1478 l 821 1478 m 1099 556 q 1060 340 1099 440 q 951 163 1021 239 q 785 44 882 88 q 575 0 689 0 l 111 0 l 111 1111 l 575 1111 q 785 1067 689 1111 q 951 947 882 1022 q 1060 771 1021 872 q 1099 556 1099 669 m 881 561 q 857 708 882 639 q 785 830 832 778 q 669 912 738 882 q 514 942 600 942 l 326 942 l 326 183 l 514 183 q 666 212 599 183 q 781 291 733 240 q 853 410 828 342 q 881 561 879 479 z "},"ď":{"ha":1061,"x_min":56,"x_max":1089,"o":"m 1089 1219 q 1079 1156 1089 1186 q 1051 1103 1069 1126 q 1003 1067 1032 1081 q 938 1054 975 1054 q 910 1057 924 1054 q 886 1063 897 1060 l 886 1078 q 951 1115 926 1085 q 976 1186 976 1146 q 975 1203 976 1193 q 971 1219 974 1213 l 882 1219 l 882 1426 l 1089 1426 l 1089 1219 m 828 0 l 624 0 l 624 42 q 539 -5 585 10 q 442 -19 493 -19 q 286 15 357 -19 q 164 106 215 49 q 84 240 113 164 q 56 401 56 317 q 88 569 56 492 q 175 703 121 646 q 299 792 229 760 q 442 825 368 825 q 542 811 493 825 q 625 772 590 797 l 625 1153 l 828 1153 l 828 0 m 626 215 l 626 601 q 594 620 613 611 q 557 635 576 629 q 518 645 538 642 q 483 649 499 649 q 392 631 433 649 q 321 581 351 614 q 274 503 290 549 q 257 401 257 457 q 274 302 257 347 q 319 224 290 257 q 390 174 349 192 q 479 156 431 156 q 626 215 558 156 z "},"Ĺ":{"ha":876,"x_min":111,"x_max":863,"o":"m 490 1478 l 290 1210 l 143 1210 l 268 1478 l 490 1478 m 863 0 l 111 0 l 111 1110 l 331 1110 l 331 208 l 863 208 l 863 0 z "},"ĺ":{"ha":436,"x_min":83,"x_max":432,"o":"m 432 1478 l 232 1210 l 85 1210 l 210 1478 l 432 1478 m 422 4 q 369 -14 399 -7 q 307 -21 339 -21 q 222 -9 263 -21 q 150 29 181 3 q 101 98 119 56 q 83 200 83 140 l 83 1153 l 288 1153 l 288 235 q 308 166 288 185 q 356 147 328 147 q 422 168 390 147 l 422 4 z "},"Ľ":{"ha":876,"x_min":111,"x_max":863,"o":"m 742 904 q 732 841 742 871 q 703 788 722 811 q 656 752 685 765 q 590 739 628 739 q 563 742 576 739 q 539 747 550 744 l 539 763 q 604 800 579 769 q 629 871 629 831 q 628 888 629 878 q 624 904 626 897 l 535 904 l 535 1111 l 742 1111 l 742 904 m 863 0 l 111 0 l 111 1110 l 331 1110 l 331 208 l 863 208 l 863 0 z "},"ľ":{"ha":561,"x_min":83,"x_max":589,"o":"m 589 946 q 579 883 589 913 q 551 830 569 853 q 503 794 532 807 q 438 781 475 781 q 410 783 424 781 q 386 789 397 786 l 386 804 q 451 842 426 811 q 476 913 476 872 q 475 929 476 919 q 471 946 474 939 l 382 946 l 382 1153 l 589 1153 l 589 946 m 422 4 q 369 -14 399 -7 q 307 -21 339 -21 q 222 -9 263 -21 q 150 29 181 3 q 101 98 119 56 q 83 200 83 140 l 83 1153 l 288 1153 l 288 235 q 308 166 288 185 q 356 147 328 147 q 422 168 390 147 l 422 4 z "},"Ň":{"ha":1132,"x_min":111,"x_max":1035,"o":"m 857 1478 l 678 1210 l 499 1210 l 319 1478 l 469 1478 l 588 1360 l 707 1478 l 857 1478 m 1035 0 l 824 0 l 322 779 l 322 0 l 111 0 l 111 1111 l 353 1111 l 824 386 l 824 1111 l 1035 1111 l 1035 0 z "},"ň":{"ha":883,"x_min":83,"x_max":814,"o":"m 719 1171 l 540 903 l 363 903 l 182 1171 l 332 1171 l 451 1053 l 571 1171 l 719 1171 m 814 0 l 614 0 l 614 479 q 601 555 614 522 q 565 609 588 588 q 515 641 543 631 q 456 651 486 651 q 365 635 410 651 q 285 585 321 619 l 285 0 l 83 0 l 83 803 l 285 803 l 285 743 q 329 776 303 761 q 384 802 356 792 q 442 818 413 813 q 500 824 472 824 q 617 804 561 824 q 717 744 674 785 q 788 640 761 704 q 814 489 814 576 l 814 0 z "},"Ŕ":{"ha":968,"x_min":111,"x_max":947,"o":"m 690 1478 l 490 1210 l 343 1210 l 468 1478 l 690 1478 m 947 0 l 710 0 l 631 253 q 599 329 618 294 q 554 389 581 364 q 491 428 528 414 q 404 442 454 442 l 324 442 l 324 0 l 111 0 l 111 1110 l 550 1111 q 682 1087 621 1111 q 788 1019 743 1063 q 857 918 832 976 q 882 792 882 860 q 867 697 882 743 q 824 613 851 651 q 758 544 796 574 q 674 499 719 514 q 760 442 726 479 q 813 354 793 406 q 831 307 822 331 q 848 258 839 283 q 867 202 857 232 q 890 136 878 172 q 919 58 906 90 q 947 0 932 25 m 665 776 q 651 847 665 815 q 611 903 636 879 q 552 940 586 926 q 479 953 518 953 l 324 953 l 324 607 l 479 607 q 552 619 518 607 q 611 653 586 631 q 651 706 636 675 q 665 776 665 738 z "},"ŕ":{"ha":647,"x_min":83,"x_max":661,"o":"m 564 1171 l 364 903 l 217 903 l 342 1171 l 564 1171 m 661 719 l 554 550 q 490 606 525 582 q 418 631 454 631 q 376 622 399 631 q 333 592 353 613 q 299 537 313 571 q 285 453 285 503 l 285 0 l 83 0 l 83 803 l 285 803 l 285 717 q 365 796 321 768 q 463 824 408 824 q 566 795 515 824 q 661 719 617 767 z "},"Ť":{"ha":901,"x_min":42,"x_max":874,"o":"m 725 1478 l 546 1210 l 367 1210 l 188 1478 l 338 1478 l 456 1360 l 575 1478 l 725 1478 m 874 918 l 567 918 l 567 0 l 349 0 l 349 918 l 42 918 l 42 1110 l 874 1110 l 874 918 z "},"ť":{"ha":742,"x_min":21,"x_max":769,"o":"m 769 946 q 760 883 769 913 q 731 830 750 853 q 684 794 713 807 q 618 781 656 781 q 591 783 604 781 q 567 789 578 786 l 567 804 q 632 842 607 811 q 657 913 657 872 q 656 929 657 919 q 651 946 654 939 l 563 946 l 563 1153 l 769 1153 l 769 946 m 531 18 q 460 -11 500 -1 q 379 -21 419 -21 q 260 -3 308 -21 q 182 50 211 14 q 140 142 153 86 q 126 272 126 197 l 126 624 l 21 624 l 21 714 q 178 833 118 754 q 261 1039 239 913 l 326 1039 l 326 804 l 529 804 l 529 624 l 326 624 l 326 258 q 334 208 326 228 q 354 178 342 189 q 383 163 367 167 q 417 158 399 158 q 474 167 440 158 q 531 194 507 175 l 531 18 z "},"Đ":{"ha":1154,"x_min":28,"x_max":1099,"o":"m 1099 556 q 1060 340 1099 440 q 951 163 1021 239 q 785 44 882 88 q 575 0 689 0 l 111 0 l 111 467 l 28 467 l 28 653 l 111 653 l 111 1111 l 575 1111 q 785 1067 689 1111 q 951 947 882 1022 q 1060 771 1021 872 q 1099 556 1099 669 m 879 561 q 855 708 879 639 q 783 828 831 776 q 669 911 736 881 q 515 942 601 942 l 326 942 l 326 653 l 507 653 l 507 467 l 326 467 l 326 183 l 515 183 q 667 213 600 183 q 782 294 735 243 q 854 415 829 346 q 879 561 879 483 z "},"đ":{"ha":911,"x_min":56,"x_max":911,"o":"m 911 911 l 828 911 l 828 0 l 624 0 l 624 42 q 539 -5 585 10 q 442 -19 493 -19 q 286 15 357 -19 q 164 106 215 49 q 84 240 113 164 q 56 401 56 317 q 88 569 56 492 q 175 703 121 646 q 299 792 229 760 q 442 825 368 825 q 542 811 493 825 q 625 772 590 797 l 625 911 l 446 911 l 446 1083 l 625 1083 l 625 1153 l 828 1153 l 828 1083 l 911 1083 l 911 911 m 626 215 l 626 601 q 594 620 613 611 q 557 635 576 629 q 518 645 538 642 q 483 649 499 649 q 392 631 433 649 q 321 581 351 614 q 274 503 290 549 q 257 401 257 457 q 274 302 257 347 q 319 224 290 257 q 390 174 349 192 q 479 156 431 156 q 626 215 558 156 z "},"Ě":{"ha":900,"x_min":111,"x_max":844,"o":"m 750 1478 l 571 1210 l 392 1210 l 213 1478 l 363 1478 l 481 1360 l 600 1478 l 750 1478 m 844 0 l 111 0 l 111 1110 l 844 1110 l 844 932 l 322 932 l 322 667 l 838 667 l 838 493 l 322 493 l 322 188 l 844 188 l 844 0 z "},"ě":{"ha":954,"x_min":56,"x_max":913,"o":"m 750 1171 l 571 903 l 393 903 l 213 1171 l 363 1171 l 482 1053 l 601 1171 l 750 1171 m 913 403 q 910 363 913 383 q 906 319 908 342 l 264 319 q 295 253 275 285 q 344 199 315 222 q 410 163 374 176 q 492 150 447 150 q 600 169 546 150 q 690 219 654 188 l 817 93 q 653 5 733 31 q 485 -21 574 -21 q 316 13 394 -21 q 180 103 238 46 q 89 237 122 160 q 56 401 56 314 q 89 566 56 489 q 181 700 122 643 q 317 790 239 757 q 483 824 394 824 q 646 792 568 824 q 783 706 724 761 q 878 573 843 650 q 913 403 913 496 m 703 481 q 619 603 679 557 q 482 650 558 650 q 347 603 407 650 q 264 481 288 557 l 703 481 z "},"Ř":{"ha":968,"x_min":111,"x_max":947,"o":"m 733 1476 l 554 1210 l 375 1210 l 196 1476 l 346 1476 l 464 1360 l 583 1476 l 733 1476 m 947 0 l 710 0 l 631 253 q 599 329 618 294 q 554 389 581 364 q 491 428 528 414 q 404 442 454 442 l 324 442 l 324 0 l 111 0 l 111 1110 l 550 1111 q 682 1087 621 1111 q 788 1019 743 1063 q 857 918 832 976 q 882 792 882 860 q 867 697 882 743 q 824 613 851 651 q 758 544 796 574 q 674 499 719 514 q 760 442 726 479 q 813 354 793 406 q 831 307 822 331 q 848 258 839 283 q 867 202 857 232 q 890 136 878 172 q 919 58 906 90 q 947 0 932 25 m 665 776 q 651 847 665 815 q 611 903 636 879 q 552 940 586 926 q 479 953 518 953 l 324 953 l 324 607 l 479 607 q 552 619 518 607 q 611 653 586 631 q 651 706 636 675 q 665 776 665 738 z "},"ř":{"ha":647,"x_min":82,"x_max":661,"o":"m 619 1171 l 440 903 l 263 903 l 82 1171 l 232 1171 l 351 1053 l 471 1171 l 619 1171 m 661 719 l 554 550 q 490 606 525 582 q 418 631 454 631 q 376 622 399 631 q 333 592 353 613 q 299 537 313 571 q 285 453 285 503 l 285 0 l 83 0 l 83 803 l 285 803 l 285 717 q 365 796 321 768 q 463 824 408 824 q 566 795 515 824 q 661 719 617 767 z "},"Ů":{"ha":1154,"x_min":97,"x_max":1085,"o":"m 753 1375 q 740 1310 753 1340 q 704 1258 726 1281 q 651 1223 682 1236 q 588 1210 621 1210 q 524 1223 554 1210 q 472 1258 494 1236 q 437 1310 450 1281 q 424 1375 424 1340 q 437 1438 424 1408 q 472 1490 450 1468 q 524 1526 494 1513 q 588 1539 554 1539 q 651 1526 621 1539 q 704 1490 682 1513 q 740 1438 726 1468 q 753 1375 753 1408 m 1085 1111 l 1085 508 q 1051 301 1085 397 q 955 134 1018 206 q 801 22 892 63 q 593 -19 710 -19 q 388 21 479 -19 q 231 131 296 61 q 132 297 167 201 q 97 501 97 392 l 97 1111 l 313 1111 l 313 500 q 331 380 313 436 q 383 282 349 324 q 470 216 418 240 q 589 192 522 192 q 712 215 660 192 q 798 278 764 238 q 849 375 832 319 q 867 497 867 431 l 867 1111 l 1085 1111 m 649 1375 q 631 1417 649 1400 q 588 1435 613 1435 q 544 1417 563 1435 q 526 1375 526 1400 q 544 1331 526 1349 q 588 1314 563 1314 q 631 1331 613 1314 q 649 1375 649 1349 z "},"ů":{"ha":878,"x_min":69,"x_max":794,"o":"m 592 1068 q 578 1003 592 1033 q 543 951 565 974 q 490 916 521 929 q 426 903 460 903 q 363 916 393 903 q 311 951 333 929 q 276 1003 289 974 q 263 1068 263 1033 q 276 1131 263 1101 q 311 1183 289 1161 q 363 1219 333 1206 q 426 1232 393 1232 q 490 1219 460 1232 q 543 1183 521 1206 q 578 1131 565 1161 q 592 1068 592 1101 m 794 0 l 594 0 l 594 61 q 549 27 575 42 q 495 2 524 13 q 437 -14 467 -8 q 381 -19 407 -19 q 263 0 319 -19 q 164 60 207 19 q 95 164 121 100 q 69 315 69 228 l 69 803 l 269 803 l 269 325 q 283 249 269 282 q 317 195 296 217 q 367 163 339 174 q 426 153 396 153 q 594 219 524 153 l 594 803 l 794 803 l 794 0 m 488 1068 q 469 1110 488 1093 q 426 1128 451 1128 q 383 1110 401 1128 q 365 1068 365 1093 q 383 1024 365 1042 q 426 1007 401 1007 q 469 1024 451 1007 q 488 1068 488 1042 z "},"Ā":{"ha":1232,"x_min":14,"x_max":1232,"o":"m 924 1210 l 321 1210 l 321 1369 l 924 1369 l 924 1210 m 1232 0 l 996 0 l 893 222 l 354 222 l 250 0 l 14 0 l 539 1111 l 707 1111 l 1232 0 m 808 401 l 624 801 l 436 401 l 808 401 z "},"ā":{"ha":806,"x_min":42,"x_max":736,"o":"m 708 903 l 106 903 l 106 1063 l 708 1063 l 708 903 m 736 0 l 535 0 l 535 43 q 423 -7 482 7 q 301 -21 364 -21 q 196 -3 243 -21 q 114 47 149 14 q 60 124 79 79 q 42 222 42 168 q 72 341 42 290 q 153 426 101 392 q 273 476 204 460 q 421 493 342 493 l 536 493 q 490 606 536 564 q 358 647 444 647 q 272 632 317 647 q 183 576 228 617 l 65 696 q 213 790 129 757 q 386 824 297 824 q 535 797 469 824 q 640 729 600 771 q 715 611 693 676 q 736 444 736 546 l 736 0 m 535 200 l 535 349 l 443 349 q 365 343 401 349 q 301 324 328 338 q 258 290 274 311 q 242 240 242 269 q 274 172 242 199 q 358 146 307 146 q 447 160 403 146 q 535 200 490 174 z "},"Ē":{"ha":900,"x_min":111,"x_max":844,"o":"m 785 1210 l 182 1210 l 182 1369 l 785 1369 l 785 1210 m 844 0 l 111 0 l 111 1110 l 844 1110 l 844 932 l 322 932 l 322 667 l 838 667 l 838 493 l 322 493 l 322 188 l 844 188 l 844 0 z "},"ē":{"ha":954,"x_min":56,"x_max":913,"o":"m 783 903 l 181 903 l 181 1063 l 783 1063 l 783 903 m 913 403 q 910 363 913 383 q 906 319 908 342 l 264 319 q 295 253 275 285 q 344 199 315 222 q 410 163 374 176 q 492 150 447 150 q 600 169 546 150 q 690 219 654 188 l 817 93 q 653 5 733 31 q 485 -21 574 -21 q 316 13 394 -21 q 180 103 238 46 q 89 237 122 160 q 56 401 56 314 q 89 566 56 489 q 181 700 122 643 q 317 790 239 757 q 483 824 394 824 q 646 792 568 824 q 783 706 724 761 q 878 573 843 650 q 913 403 913 496 m 703 481 q 619 603 679 557 q 482 650 558 650 q 347 603 407 650 q 264 481 288 557 l 703 481 z "},"Ģ":{"ha":1189,"x_min":69,"x_max":1133,"o":"m 1133 204 q 1031 103 1086 146 q 915 33 975 61 q 791 -8 854 6 q 665 -21 728 -21 q 433 24 542 -21 q 244 146 325 68 q 117 329 164 224 q 69 557 69 435 q 116 781 69 676 q 244 964 163 886 q 433 1087 325 1042 q 665 1132 542 1132 q 926 1074 808 1132 q 1125 918 1043 1015 l 979 769 q 839 891 917 854 q 665 928 761 928 q 517 899 586 928 q 395 819 447 869 q 313 701 343 768 q 283 557 283 633 q 313 412 283 479 q 395 293 343 344 q 517 213 447 242 q 665 183 586 183 q 807 211 740 183 q 926 285 874 239 l 926 392 l 699 392 l 699 575 l 1133 575 l 1133 204 m 757 -278 q 748 -334 757 -307 q 722 -382 739 -361 q 678 -415 704 -403 q 619 -428 653 -428 q 596 -425 608 -428 q 574 -419 583 -422 l 574 -406 q 633 -372 610 -399 q 656 -308 656 -344 q 654 -294 656 -303 q 650 -278 653 -285 l 569 -278 l 569 -92 l 757 -92 l 757 -278 z "},"ģ":{"ha":835,"x_min":49,"x_max":821,"o":"m 531 903 l 344 903 l 344 1089 q 353 1145 344 1118 q 378 1193 361 1172 q 422 1226 396 1214 q 481 1238 447 1238 q 506 1235 493 1238 q 526 1231 518 1233 l 526 1217 q 468 1183 490 1210 q 446 1119 446 1156 q 447 1104 446 1113 q 450 1089 447 1096 l 531 1089 l 531 903 m 821 644 l 736 644 q 768 511 768 582 q 748 406 768 457 q 690 314 728 356 q 599 243 653 272 q 479 204 546 214 q 410 183 433 197 q 388 153 388 168 q 410 126 388 139 q 479 110 433 114 q 720 32 635 96 q 806 -137 806 -32 q 779 -237 806 -192 q 703 -317 753 -283 q 585 -368 654 -350 q 429 -386 515 -386 q 272 -368 342 -386 q 151 -317 201 -350 q 75 -239 101 -285 q 49 -137 49 -193 q 97 2 49 -54 q 253 86 144 58 q 205 120 219 99 q 192 164 190 142 q 210 206 193 186 q 260 238 228 226 q 191 281 224 254 q 132 342 158 307 q 90 419 106 376 q 75 511 75 463 q 103 633 75 576 q 178 733 131 690 q 288 799 225 775 q 419 824 350 824 q 546 803 488 824 l 821 803 l 821 644 m 569 511 q 558 568 569 542 q 526 615 546 594 q 478 647 506 635 q 421 658 451 658 q 364 647 390 658 q 317 615 338 635 q 285 568 297 594 q 274 511 274 542 q 285 453 274 481 q 317 406 297 426 q 364 374 338 386 q 421 363 390 363 q 478 374 451 363 q 526 406 506 386 q 558 453 546 426 q 569 511 569 481 m 606 -137 q 556 -67 606 -89 q 429 -44 507 -44 q 298 -68 346 -44 q 250 -137 250 -92 q 300 -208 250 -185 q 429 -232 350 -232 q 558 -209 510 -232 q 606 -137 606 -186 z "},"Ī":{"ha":424,"x_min":-82,"x_max":521,"o":"m 521 1210 l -82 1210 l -82 1369 l 521 1369 l 521 1210 m 326 0 l 111 0 l 111 1110 l 326 1110 l 326 0 z "},"ī":{"ha":389,"x_min":-119,"x_max":483,"o":"m 483 903 l -119 903 l -119 1063 l 483 1063 l 483 903 m 289 0 l 86 0 l 86 804 l 289 804 l 289 0 z "},"Ķ":{"ha":1038,"x_min":111,"x_max":1051,"o":"m 1051 0 l 771 0 l 326 492 l 326 0 l 111 0 l 111 1111 l 326 1111 l 326 615 l 781 1111 l 1036 1111 l 535 565 l 1051 0 m 646 -278 q 637 -334 646 -307 q 610 -382 628 -361 q 567 -415 593 -403 q 508 -428 542 -428 q 485 -425 497 -428 q 463 -419 472 -422 l 463 -406 q 522 -372 499 -399 q 544 -308 544 -344 q 543 -294 544 -303 q 539 -278 542 -285 l 458 -278 l 458 -92 l 646 -92 l 646 -278 z "},"ķ":{"ha":833,"x_min":83,"x_max":847,"o":"m 847 0 l 610 0 l 288 360 l 288 0 l 83 0 l 83 1151 l 288 1151 l 288 463 l 568 803 l 801 803 l 472 413 l 847 0 m 549 -278 q 540 -334 549 -307 q 513 -382 531 -361 q 470 -415 496 -403 q 411 -428 444 -428 q 388 -425 400 -428 q 365 -419 375 -422 l 365 -406 q 424 -372 401 -399 q 447 -308 447 -344 q 446 -294 447 -303 q 442 -278 444 -285 l 361 -278 l 361 -92 l 549 -92 l 549 -278 z "},"Ļ":{"ha":876,"x_min":111,"x_max":863,"o":"m 863 0 l 111 0 l 111 1110 l 331 1110 l 331 208 l 863 208 l 863 0 m 604 -278 q 595 -334 604 -307 q 569 -382 586 -361 q 526 -415 551 -403 q 467 -428 500 -428 q 443 -425 456 -428 q 421 -419 431 -422 l 421 -406 q 480 -372 457 -399 q 503 -308 503 -344 q 501 -294 503 -303 q 497 -278 500 -285 l 417 -278 l 417 -92 l 604 -92 l 604 -278 z "},"ļ":{"ha":436,"x_min":83,"x_max":422,"o":"m 422 4 q 369 -14 399 -7 q 307 -21 339 -21 q 222 -9 263 -21 q 150 29 181 3 q 101 98 119 56 q 83 200 83 140 l 83 1153 l 288 1153 l 288 235 q 308 166 288 185 q 356 147 328 147 q 422 168 390 147 l 422 4 m 349 -278 q 340 -334 349 -307 q 313 -382 331 -361 q 270 -415 296 -403 q 211 -428 244 -428 q 188 -425 200 -428 q 165 -419 175 -422 l 165 -406 q 224 -372 201 -399 q 247 -308 247 -344 q 246 -294 247 -303 q 242 -278 244 -285 l 161 -278 l 161 -92 l 349 -92 l 349 -278 z "},"Ņ":{"ha":1132,"x_min":111,"x_max":1035,"o":"m 1035 0 l 824 0 l 322 779 l 322 0 l 111 0 l 111 1111 l 353 1111 l 824 386 l 824 1111 l 1035 1111 l 1035 0 m 688 -278 q 678 -334 688 -307 q 652 -382 669 -361 q 609 -415 635 -403 q 550 -428 583 -428 q 526 -425 539 -428 q 504 -419 514 -422 l 504 -406 q 563 -372 540 -399 q 586 -308 586 -344 q 585 -294 586 -303 q 581 -278 583 -285 l 500 -278 l 500 -92 l 688 -92 l 688 -278 z "},"ņ":{"ha":883,"x_min":83,"x_max":814,"o":"m 814 0 l 614 0 l 614 479 q 601 555 614 522 q 565 609 588 588 q 515 641 543 631 q 456 651 486 651 q 365 635 410 651 q 285 585 321 619 l 285 0 l 83 0 l 83 803 l 285 803 l 285 743 q 329 776 303 761 q 384 802 356 792 q 442 818 413 813 q 500 824 472 824 q 617 804 561 824 q 717 744 674 785 q 788 640 761 704 q 814 489 814 576 l 814 0 m 546 -278 q 537 -334 546 -307 q 510 -382 528 -361 q 467 -415 493 -403 q 408 -428 442 -428 q 385 -425 397 -428 q 363 -419 372 -422 l 363 -406 q 422 -372 399 -399 q 444 -308 444 -344 q 443 -294 444 -303 q 439 -278 442 -285 l 358 -278 l 358 -92 l 546 -92 l 546 -278 z "},"Ō":{"ha":1304,"x_min":69,"x_max":1249,"o":"m 960 1213 l 357 1213 l 357 1372 l 960 1372 l 960 1213 m 1249 556 q 1202 331 1249 436 q 1075 147 1156 225 q 888 24 994 69 q 660 -21 781 -21 q 431 24 539 -21 q 243 147 324 69 q 116 330 163 225 q 69 556 69 435 q 116 782 69 676 q 243 965 163 888 q 431 1088 324 1043 q 660 1132 539 1132 q 888 1088 781 1132 q 1075 965 994 1043 q 1202 781 1156 886 q 1249 556 1249 676 m 1032 556 q 1003 699 1032 632 q 923 817 974 767 q 804 898 872 868 q 660 928 736 928 q 514 898 582 928 q 395 817 446 868 q 315 699 344 767 q 286 556 286 632 q 315 413 286 481 q 395 294 344 344 q 514 213 446 243 q 660 183 582 183 q 804 213 736 183 q 923 294 872 243 q 1003 413 974 344 q 1032 556 1032 481 z "},"ō":{"ha":954,"x_min":56,"x_max":913,"o":"m 783 903 l 181 903 l 181 1063 l 783 1063 l 783 903 m 913 401 q 879 234 913 311 q 788 101 846 157 q 651 12 729 44 q 483 -21 572 -21 q 317 12 394 -21 q 181 101 239 44 q 89 235 122 158 q 56 401 56 313 q 90 566 56 489 q 182 701 124 643 q 318 791 240 758 q 483 824 396 824 q 651 791 572 824 q 788 702 729 758 q 879 568 846 646 q 913 401 913 490 m 713 401 q 694 497 713 453 q 645 575 676 542 q 572 627 614 608 q 483 646 531 646 q 394 627 436 646 q 322 575 353 608 q 272 497 290 542 q 254 401 254 453 q 272 306 254 350 q 322 228 290 261 q 394 176 353 194 q 483 157 436 157 q 572 176 531 157 q 645 228 614 194 q 694 306 676 261 q 713 401 713 350 z "},"Ǻ":{"ha":1232,"x_min":14,"x_max":1233,"o":"m 850 1754 l 650 1486 l 503 1486 l 628 1754 l 850 1754 m 1233 0 l 996 0 l 893 222 l 354 222 l 251 0 l 14 0 l 539 1111 q 481 1169 503 1132 q 460 1253 460 1207 q 473 1316 460 1286 q 508 1368 486 1346 q 560 1403 531 1390 q 624 1417 590 1417 q 688 1403 657 1417 q 740 1368 718 1390 q 776 1316 763 1346 q 789 1253 789 1286 q 766 1169 789 1207 q 707 1110 743 1132 l 1233 0 m 685 1253 q 667 1295 685 1278 q 624 1313 649 1313 q 581 1295 599 1313 q 564 1253 564 1278 q 581 1209 564 1226 q 624 1192 599 1192 q 667 1209 649 1192 q 685 1253 685 1226 m 808 401 l 624 803 l 436 401 l 808 401 z "},"ǻ":{"ha":806,"x_min":42,"x_max":736,"o":"m 619 1540 l 419 1272 l 272 1272 l 397 1540 l 619 1540 m 564 1047 q 551 983 564 1013 q 515 931 538 953 q 463 895 493 908 q 399 882 432 882 q 335 895 365 882 q 283 931 306 908 q 248 983 261 953 q 235 1047 235 1013 q 248 1110 235 1081 q 283 1163 261 1140 q 335 1198 306 1185 q 399 1211 365 1211 q 463 1198 432 1211 q 515 1163 493 1185 q 551 1110 538 1140 q 564 1047 564 1081 m 736 0 l 535 0 l 535 43 q 423 -7 482 7 q 301 -21 364 -21 q 196 -3 243 -21 q 114 47 149 14 q 60 124 79 79 q 42 222 42 168 q 72 342 42 290 q 153 427 101 393 q 273 478 204 461 q 421 493 342 494 l 536 493 q 491 606 536 565 q 358 647 446 647 q 272 632 317 647 q 183 576 228 617 l 65 696 q 213 790 129 757 q 386 824 297 824 q 535 797 469 824 q 640 729 600 771 q 715 611 693 676 q 736 444 736 546 l 736 0 m 460 1047 q 442 1090 460 1072 q 399 1107 424 1107 q 356 1090 374 1107 q 338 1047 338 1072 q 356 1003 338 1021 q 399 986 374 986 q 442 1003 424 986 q 460 1047 460 1021 m 535 200 l 535 349 l 443 349 q 365 343 401 349 q 301 324 328 338 q 258 290 274 311 q 242 240 242 269 q 274 172 242 199 q 358 146 307 146 q 447 160 403 146 q 535 200 490 174 z "},"Ǽ":{"ha":1507,"x_min":0,"x_max":1493,"o":"m 1054 1481 l 842 1213 l 694 1213 l 832 1481 l 1054 1481 m 1493 0 l 982 0 l 760 0 l 736 222 l 364 222 l 236 0 l 0 0 l 643 1111 l 810 1111 l 810 1110 l 1376 1110 l 1396 932 l 874 932 l 900 667 l 1417 667 l 1435 493 l 919 493 l 951 188 l 1474 188 l 1493 0 m 718 401 l 678 775 l 465 401 l 718 401 z "},"ǽ":{"ha":1413,"x_min":42,"x_max":1371,"o":"m 939 1171 l 739 903 l 592 903 l 717 1171 l 939 1171 m 1371 403 q 1369 363 1371 383 q 1364 319 1367 342 l 722 319 q 753 253 733 285 q 803 199 774 222 q 869 163 832 176 q 950 150 906 150 q 1058 169 1004 150 q 1149 219 1113 188 l 1275 93 q 1112 5 1192 31 q 943 -21 1032 -21 q 826 -6 881 -21 q 722 38 771 10 l 722 0 l 535 0 l 535 43 q 427 -7 482 7 q 301 -21 372 -21 q 196 -3 243 -21 q 114 47 149 14 q 60 124 79 79 q 42 222 42 168 q 72 341 42 290 q 153 426 101 392 q 273 476 204 460 q 421 493 342 493 l 536 493 q 358 647 536 647 q 272 632 317 647 q 183 576 228 617 l 65 696 q 213 790 129 757 q 386 824 297 824 q 535 797 469 824 q 640 729 600 771 q 654 714 650 719 q 785 794 713 765 q 942 824 858 824 q 1104 792 1026 824 q 1242 706 1182 761 q 1336 573 1301 650 q 1371 403 1371 496 m 1161 481 q 1077 603 1138 557 q 940 650 1017 650 q 806 603 865 650 q 722 481 746 557 l 1161 481 m 535 200 l 535 349 l 443 349 q 365 343 401 349 q 301 324 328 338 q 258 290 274 311 q 242 240 242 269 q 274 172 242 199 q 358 146 307 146 q 447 160 403 146 q 535 200 490 174 z "},"Ǿ":{"ha":1304,"x_min":69,"x_max":1249,"o":"m 882 1478 l 682 1210 l 535 1210 l 660 1478 l 882 1478 m 1249 556 q 1202 331 1249 436 q 1075 147 1156 225 q 888 24 994 69 q 660 -21 781 -21 q 509 -2 581 -21 q 374 51 438 17 l 311 -32 l 139 -32 l 260 132 q 121 320 172 211 q 69 556 69 429 q 116 782 69 676 q 243 965 163 888 q 431 1088 324 1043 q 660 1132 539 1132 q 809 1113 738 1132 q 946 1060 881 1094 l 1007 1143 l 1179 1143 l 1060 979 q 1198 792 1147 900 q 1249 556 1249 683 m 1032 556 q 1006 694 1032 629 q 932 808 979 758 l 497 219 q 660 183 574 183 q 804 213 736 183 q 923 294 872 243 q 1003 413 974 344 q 1032 556 1032 481 m 821 892 q 660 928 746 928 q 514 898 582 928 q 395 817 446 868 q 315 699 344 767 q 286 556 286 632 q 313 419 286 483 q 386 303 339 354 l 821 892 z "},"ǿ":{"ha":954,"x_min":56,"x_max":913,"o":"m 703 1171 l 503 903 l 356 903 l 481 1171 l 703 1171 m 913 401 q 879 234 913 311 q 788 101 846 157 q 651 12 729 44 q 483 -21 572 -21 q 286 26 376 -21 l 242 -32 l 86 -32 l 183 100 q 90 235 124 158 q 56 401 56 311 q 90 566 56 489 q 182 701 124 643 q 318 791 240 758 q 483 824 396 824 q 683 776 592 824 l 725 835 l 882 835 l 786 704 q 878 569 844 646 q 913 401 913 493 m 713 401 q 701 478 713 442 q 668 546 689 515 l 396 175 q 483 157 439 157 q 572 176 531 157 q 645 228 614 194 q 694 306 676 261 q 713 401 713 350 m 572 626 q 483 646 529 646 q 394 627 436 646 q 322 575 353 608 q 272 497 290 542 q 254 401 254 453 q 266 324 254 361 q 299 257 278 288 l 572 626 z "},"Ŀ":{"ha":876,"x_min":111,"x_max":863,"o":"m 651 503 l 450 503 l 450 704 l 651 704 l 651 503 m 863 0 l 111 0 l 111 1110 l 331 1110 l 331 208 l 863 208 l 863 0 z "},"ŀ":{"ha":582,"x_min":83,"x_max":568,"o":"m 568 503 l 367 503 l 367 704 l 568 704 l 568 503 m 422 4 q 369 -14 399 -7 q 307 -21 339 -21 q 222 -9 263 -21 q 150 29 181 3 q 101 98 119 56 q 83 200 83 140 l 83 1153 l 288 1153 l 288 235 q 308 166 288 185 q 356 147 328 147 q 422 168 390 147 l 422 4 z "},"Ŵ":{"ha":1538,"x_min":21,"x_max":1531,"o":"m 1043 1210 l 893 1210 l 775 1328 l 656 1210 l 506 1210 l 685 1478 l 864 1478 l 1043 1210 m 1531 1111 l 1169 0 l 981 0 l 776 686 l 571 0 l 382 0 l 21 1111 l 249 1111 l 483 393 l 686 1111 l 864 1111 l 1067 392 l 1304 1111 l 1531 1111 z "},"ŵ":{"ha":1235,"x_min":21,"x_max":1228,"o":"m 889 903 l 739 903 l 621 1021 l 501 903 l 351 903 l 531 1171 l 710 1171 l 889 903 m 1228 804 l 958 -1 l 785 -1 l 625 478 l 465 -1 l 292 -1 l 21 804 l 232 804 l 383 301 l 535 804 l 713 804 l 865 301 l 1017 804 l 1228 804 z "},"Ẁ":{"ha":1538,"x_min":21,"x_max":1531,"o":"m 899 1210 l 751 1210 l 551 1478 l 775 1478 l 899 1210 m 1531 1111 l 1169 0 l 981 0 l 776 686 l 571 0 l 382 0 l 21 1111 l 249 1111 l 483 393 l 686 1111 l 864 1111 l 1067 392 l 1304 1111 l 1531 1111 z "},"ẁ":{"ha":1235,"x_min":21,"x_max":1228,"o":"m 735 903 l 588 903 l 388 1171 l 611 1171 l 735 903 m 1228 804 l 958 -1 l 785 -1 l 625 478 l 465 -1 l 292 -1 l 21 804 l 232 804 l 383 301 l 535 804 l 713 804 l 865 301 l 1017 804 l 1228 804 z "},"Ẃ":{"ha":1538,"x_min":21,"x_max":1531,"o":"m 1000 1478 l 800 1210 l 653 1210 l 778 1478 l 1000 1478 m 1531 1111 l 1169 0 l 981 0 l 776 686 l 571 0 l 382 0 l 21 1111 l 249 1111 l 483 393 l 686 1111 l 864 1111 l 1067 392 l 1304 1111 l 1531 1111 z "},"ẃ":{"ha":1235,"x_min":21,"x_max":1228,"o":"m 842 1171 l 642 903 l 494 903 l 619 1171 l 842 1171 m 1228 804 l 958 -1 l 785 -1 l 625 478 l 465 -1 l 292 -1 l 21 804 l 232 804 l 383 301 l 535 804 l 713 804 l 865 301 l 1017 804 l 1228 804 z "},"Ẅ":{"ha":1538,"x_min":21,"x_max":1531,"o":"m 1026 1210 l 846 1210 l 846 1390 l 1026 1390 l 1026 1210 m 707 1210 l 526 1210 l 526 1390 l 707 1390 l 707 1210 m 1531 1111 l 1169 0 l 981 0 l 776 686 l 571 0 l 382 0 l 21 1111 l 249 1111 l 483 393 l 686 1111 l 864 1111 l 1067 392 l 1304 1111 l 1531 1111 z "},"ẅ":{"ha":1235,"x_min":21,"x_max":1228,"o":"m 874 903 l 693 903 l 693 1083 l 874 1083 l 874 903 m 554 903 l 374 903 l 374 1083 l 554 1083 l 554 903 m 1228 804 l 958 -1 l 785 -1 l 625 478 l 465 -1 l 292 -1 l 21 804 l 232 804 l 383 301 l 535 804 l 713 804 l 865 301 l 1017 804 l 1228 804 z "},"Ŷ":{"ha":1128,"x_min":21,"x_max":1121,"o":"m 832 1210 l 682 1210 l 564 1328 l 444 1210 l 294 1210 l 474 1478 l 653 1478 l 832 1210 m 1121 1110 l 668 454 l 668 -1 l 450 -1 l 450 457 l 21 1110 l 271 1110 l 560 643 l 861 1110 l 1121 1110 z "},"ŷ":{"ha":819,"x_min":21,"x_max":813,"o":"m 685 903 l 535 903 l 417 1021 l 297 903 l 147 903 l 326 1171 l 506 1171 l 685 903 m 813 804 l 451 -150 q 346 -304 411 -257 q 190 -351 281 -351 q 160 -349 176 -351 q 128 -343 143 -347 l 61 -157 q 110 -174 85 -168 q 157 -181 135 -181 q 243 -159 204 -181 q 303 -79 282 -137 l 331 1 l 21 804 l 239 804 l 424 288 l 597 804 l 813 804 z "},"Ỳ":{"ha":1128,"x_min":21,"x_max":1121,"o":"m 656 1210 l 508 1210 l 308 1478 l 532 1478 l 656 1210 m 1121 1110 l 668 454 l 668 -1 l 450 -1 l 450 457 l 21 1110 l 271 1110 l 560 643 l 861 1110 l 1121 1110 z "},"ỳ":{"ha":819,"x_min":21,"x_max":813,"o":"m 513 903 l 365 903 l 165 1171 l 389 1171 l 513 903 m 813 804 l 451 -150 q 346 -304 411 -257 q 190 -351 281 -351 q 160 -349 176 -351 q 128 -343 143 -347 l 61 -157 q 110 -174 85 -168 q 157 -181 135 -181 q 243 -159 204 -181 q 303 -79 282 -137 l 331 1 l 21 804 l 239 804 l 424 288 l 597 804 l 813 804 z "},"Ġ":{"ha":1189,"x_min":69,"x_max":1133,"o":"m 756 1211 l 554 1211 l 554 1413 l 756 1413 l 756 1211 m 1133 204 q 1031 103 1086 146 q 915 33 975 61 q 791 -8 854 6 q 665 -21 728 -21 q 433 24 542 -21 q 244 146 325 68 q 117 329 164 224 q 69 557 69 435 q 116 781 69 676 q 244 964 163 886 q 433 1087 325 1042 q 665 1132 542 1132 q 926 1074 808 1132 q 1125 918 1043 1015 l 979 769 q 839 891 917 854 q 665 928 761 928 q 517 899 586 928 q 395 819 447 869 q 313 701 343 768 q 283 557 283 633 q 313 412 283 479 q 395 293 343 344 q 517 213 447 242 q 665 183 586 183 q 807 211 740 183 q 926 285 874 239 l 926 392 l 699 392 l 699 575 l 1133 575 l 1133 204 z "},"ġ":{"ha":835,"x_min":49,"x_max":821,"o":"m 528 906 l 326 906 l 326 1107 l 528 1107 l 528 906 m 821 644 l 736 644 q 768 511 768 582 q 748 406 768 457 q 690 314 728 356 q 599 243 653 272 q 479 204 546 214 q 410 183 433 197 q 388 153 388 168 q 410 126 388 139 q 479 110 433 114 q 720 32 635 96 q 806 -137 806 -32 q 779 -237 806 -192 q 703 -317 753 -283 q 585 -368 654 -350 q 429 -386 515 -386 q 272 -368 342 -386 q 151 -317 201 -350 q 75 -239 101 -285 q 49 -137 49 -193 q 97 2 49 -54 q 253 86 144 58 q 205 120 219 99 q 192 164 190 142 q 210 206 193 186 q 260 238 228 226 q 191 281 224 254 q 132 342 158 307 q 90 419 106 376 q 75 511 75 463 q 103 633 75 576 q 178 733 131 690 q 288 799 225 775 q 419 824 350 824 q 546 803 488 824 l 821 803 l 821 644 m 569 511 q 558 568 569 542 q 526 615 546 594 q 478 647 506 635 q 421 658 451 658 q 364 647 390 658 q 317 615 338 635 q 285 568 297 594 q 274 511 274 542 q 285 453 274 481 q 317 406 297 426 q 364 374 338 386 q 421 363 390 363 q 478 374 451 363 q 526 406 506 386 q 558 453 546 426 q 569 511 569 481 m 606 -137 q 556 -67 606 -89 q 429 -44 507 -44 q 298 -68 346 -44 q 250 -137 250 -92 q 300 -208 250 -185 q 429 -232 350 -232 q 558 -209 510 -232 q 606 -137 606 -186 z "},"Ṁ":{"ha":1317,"x_min":111,"x_max":1219,"o":"m 756 1211 l 554 1211 l 554 1413 l 756 1413 l 756 1211 m 1219 0 l 1008 0 l 1008 742 l 658 151 l 322 747 l 322 0 l 111 0 l 111 1111 l 354 1111 l 663 560 l 985 1111 l 1219 1111 l 1219 0 z "},"ṁ":{"ha":1340,"x_min":83,"x_max":1271,"o":"m 781 903 l 579 903 l 579 1104 l 781 1104 l 781 903 m 1271 0 l 1072 0 l 1072 479 q 1031 608 1072 564 q 931 651 990 651 q 844 637 885 651 q 764 589 803 622 q 776 479 776 540 l 776 0 l 576 0 l 576 479 q 535 608 576 564 q 436 651 494 651 q 356 635 390 651 q 283 585 321 619 l 283 0 l 83 0 l 83 803 l 283 803 l 283 743 q 372 801 321 779 q 475 824 422 824 q 592 797 533 824 q 696 721 651 771 q 822 800 758 776 q 963 824 886 824 q 1081 805 1025 824 q 1179 745 1138 786 q 1246 641 1221 704 q 1271 489 1271 578 l 1271 0 z "},"Ṫ":{"ha":901,"x_min":42,"x_max":874,"o":"m 561 1211 l 360 1211 l 360 1413 l 561 1413 l 561 1211 m 874 918 l 567 918 l 567 0 l 349 0 l 349 918 l 42 918 l 42 1110 l 874 1110 l 874 918 z "},"ṫ":{"ha":565,"x_min":21,"x_max":531,"o":"m 326 1111 l 125 1111 l 125 1313 l 326 1313 l 326 1111 m 531 18 q 460 -11 501 -1 q 379 -21 419 -21 q 260 -3 308 -21 q 182 49 211 14 q 140 140 153 85 q 126 271 126 196 l 126 626 l 21 626 l 21 801 l 126 801 l 126 1018 l 326 1018 l 326 801 l 529 801 l 529 626 l 326 626 l 326 264 q 352 180 326 201 q 418 158 378 158 q 475 168 442 158 q 531 194 508 178 l 531 18 z "},"Ḟ":{"ha":872,"x_min":111,"x_max":844,"o":"m 575 1211 l 374 1211 l 374 1413 l 575 1413 l 575 1211 m 844 925 l 322 925 l 322 667 l 838 667 l 838 492 l 322 492 l 322 0 l 111 0 l 111 1110 l 844 1110 l 844 925 z "},"ḟ":{"ha":510,"x_min":28,"x_max":531,"o":"m 450 1253 l 249 1253 l 249 1454 l 450 1454 l 450 1253 m 531 969 q 479 984 501 981 q 431 988 457 988 q 348 961 372 988 q 324 865 324 935 l 324 801 l 450 801 l 450 626 l 324 626 l 324 0 l 125 0 l 125 626 l 28 626 l 28 801 l 125 801 l 125 863 q 181 1093 125 1014 q 379 1172 238 1172 q 531 1153 460 1172 l 531 969 z "},"Ċ":{"ha":1128,"x_min":69,"x_max":1128,"o":"m 756 1211 l 554 1211 l 554 1413 l 756 1413 l 756 1211 m 1128 200 q 926 39 1044 99 q 664 -21 807 -21 q 432 24 540 -21 q 243 147 324 69 q 116 330 163 225 q 69 556 69 435 q 116 781 69 676 q 243 965 163 886 q 432 1088 324 1043 q 664 1132 540 1132 q 926 1072 807 1132 q 1124 917 1044 1013 l 975 764 q 842 883 924 838 q 664 928 761 928 q 517 898 586 928 q 397 817 449 868 q 316 699 346 767 q 286 556 286 632 q 316 413 286 481 q 397 295 346 346 q 517 215 449 244 q 664 185 586 185 q 846 231 767 185 q 978 354 925 278 l 1128 200 z "},"ċ":{"ha":822,"x_min":56,"x_max":808,"o":"m 569 903 l 368 903 l 368 1104 l 569 1104 l 569 903 m 808 121 q 661 15 747 51 q 481 -21 575 -21 q 315 11 393 -21 q 180 99 238 43 q 89 233 122 156 q 56 401 56 311 q 89 567 56 490 q 179 701 122 644 q 314 791 236 758 q 481 824 392 824 q 655 790 572 824 q 799 689 738 757 l 664 551 q 590 618 633 592 q 483 644 546 644 q 397 625 438 644 q 324 573 356 606 q 275 496 293 540 q 257 401 257 451 q 275 307 257 351 q 324 230 293 263 q 396 178 354 197 q 483 158 438 158 q 592 187 543 158 q 669 260 640 215 l 808 121 z "},"Ṡ":{"ha":894,"x_min":56,"x_max":853,"o":"m 550 1211 l 349 1211 l 349 1413 l 550 1413 l 550 1211 m 853 292 q 826 173 853 229 q 750 74 799 117 q 635 5 701 31 q 488 -21 568 -21 q 358 -12 415 -21 q 249 14 300 -4 q 152 60 199 32 q 56 129 106 89 l 208 283 q 339 205 275 228 q 478 182 403 182 q 535 191 508 182 q 583 215 563 200 q 615 251 603 231 q 626 297 626 272 q 617 344 626 324 q 582 385 607 365 q 513 424 557 404 q 399 469 468 444 q 281 520 338 492 q 183 589 225 549 q 115 683 140 629 q 89 811 89 738 q 117 942 89 882 q 195 1044 146 1001 q 310 1110 244 1086 q 453 1133 376 1133 q 668 1100 581 1133 q 824 1003 756 1067 l 674 851 q 581 913 632 892 q 460 935 529 935 q 401 925 428 935 q 354 899 374 915 q 323 862 335 883 q 311 817 311 840 q 322 769 311 790 q 360 727 333 747 q 430 687 386 707 q 539 643 474 667 q 682 579 622 614 q 780 503 742 544 q 835 409 818 461 q 853 292 853 357 z "},"ṡ":{"ha":713,"x_min":56,"x_max":671,"o":"m 458 903 l 257 903 l 257 1104 l 458 1104 l 458 903 m 671 225 q 643 119 671 165 q 571 41 615 72 q 471 -6 526 10 q 361 -22 415 -22 q 192 12 269 -22 q 57 121 115 46 l 178 243 q 261 172 214 197 q 363 146 308 146 q 441 163 410 146 q 472 215 472 181 q 428 276 472 251 q 303 324 383 300 q 211 359 256 338 q 132 412 167 381 q 76 483 97 443 q 56 576 56 524 q 83 681 56 635 q 153 759 110 728 q 253 807 197 790 q 365 824 308 824 q 665 685 549 824 l 546 564 q 467 632 511 607 q 369 657 422 657 q 331 652 351 657 q 294 638 311 647 q 265 615 276 629 q 254 582 254 600 q 297 526 254 550 q 418 479 339 503 q 515 440 469 464 q 596 385 561 417 q 651 315 631 354 q 671 225 671 275 z "},"Ḋ":{"ha":1154,"x_min":111,"x_max":1099,"o":"m 631 1211 l 429 1211 l 429 1413 l 631 1413 l 631 1211 m 1099 556 q 1060 340 1099 440 q 951 163 1021 239 q 785 44 882 88 q 575 0 689 0 l 111 0 l 111 1111 l 575 1111 q 785 1067 689 1111 q 951 947 882 1022 q 1060 771 1021 872 q 1099 556 1099 669 m 881 561 q 852 701 881 632 q 774 823 824 769 q 658 909 725 876 q 514 942 592 942 l 326 942 l 326 183 l 514 183 q 658 214 590 183 q 774 297 725 244 q 852 417 824 349 q 881 561 881 486 z "},"ḋ":{"ha":911,"x_min":56,"x_max":828,"o":"m 531 903 l 329 903 l 329 1104 l 531 1104 l 531 903 m 828 0 l 624 0 l 624 42 q 539 -5 585 10 q 442 -19 493 -19 q 286 15 357 -19 q 164 106 215 49 q 84 240 113 164 q 56 401 56 317 q 88 569 56 492 q 175 703 121 646 q 299 792 229 760 q 442 825 368 825 q 542 811 493 825 q 625 772 590 797 l 625 1153 l 828 1153 l 828 0 m 626 215 l 626 601 q 594 620 613 611 q 557 635 576 629 q 518 645 538 642 q 483 649 499 649 q 392 631 433 649 q 321 581 351 614 q 274 503 290 549 q 257 401 257 457 q 274 302 257 347 q 319 224 290 257 q 390 174 349 192 q 479 156 431 156 q 626 215 558 156 z "},"Ṗ":{"ha":917,"x_min":111,"x_max":889,"o":"m 561 1211 l 360 1211 l 360 1413 l 561 1413 l 561 1211 m 889 738 q 859 590 889 658 q 778 470 829 521 q 657 391 726 419 q 510 363 588 363 l 326 363 l 326 0 l 111 0 l 111 1110 l 510 1110 q 657 1081 588 1110 q 778 1003 726 1053 q 859 885 829 953 q 889 738 889 817 m 675 740 q 659 821 675 783 q 615 886 643 858 q 550 931 588 914 q 469 947 513 947 l 326 947 l 326 528 l 469 528 q 550 545 513 528 q 615 592 588 563 q 659 659 643 621 q 675 740 675 697 z "},"ṗ":{"ha":897,"x_min":83,"x_max":856,"o":"m 551 903 l 350 903 l 350 1104 l 551 1104 l 551 903 m 856 400 q 827 239 856 315 q 747 105 799 163 q 625 13 696 47 q 469 -21 554 -21 q 371 -6 417 -21 q 285 40 325 8 l 286 -349 l 83 -349 l 83 804 l 286 804 l 286 763 q 369 807 321 790 q 469 824 417 824 q 613 791 543 824 q 736 701 682 758 q 823 567 790 644 q 856 400 856 490 m 651 399 q 635 501 651 456 q 588 580 618 547 q 517 630 558 613 q 426 647 476 647 q 353 634 394 647 q 285 599 313 621 l 285 214 q 431 154 350 154 q 519 172 478 154 q 589 223 560 190 q 635 301 618 256 q 651 399 651 346 z "},"Ḃ":{"ha":944,"x_min":111,"x_max":903,"o":"m 561 1211 l 360 1211 l 360 1413 l 561 1413 l 561 1211 m 903 318 q 874 190 903 249 q 799 88 846 131 q 690 22 751 46 q 560 -1 628 -1 l 111 0 l 111 1111 l 511 1111 q 645 1090 583 1111 q 753 1027 707 1068 q 824 927 799 986 q 850 794 850 868 q 822 674 850 732 q 749 575 794 615 q 813 529 785 557 q 862 467 842 501 q 892 395 882 433 q 903 318 903 357 m 638 790 q 622 860 638 831 q 581 908 607 889 q 522 938 556 928 q 453 947 489 947 l 326 947 l 326 642 q 389 640 361 640 q 453 640 417 640 q 522 649 489 640 q 581 675 556 657 q 622 722 607 693 q 638 790 638 750 m 679 331 q 666 394 679 365 q 630 444 653 424 q 577 475 607 464 q 513 486 547 486 q 419 487 465 488 q 326 486 374 486 l 326 179 l 488 179 q 557 188 522 179 q 619 215 592 196 q 663 262 646 233 q 679 331 679 290 z "},"ḃ":{"ha":897,"x_min":83,"x_max":856,"o":"m 582 903 l 381 903 l 381 1104 l 582 1104 l 582 903 m 856 401 q 827 240 856 317 q 747 106 799 164 q 625 15 696 49 q 469 -19 554 -19 q 371 -5 417 -19 q 285 42 325 10 l 285 0 l 83 0 l 83 1153 l 286 1153 l 286 764 q 369 808 321 792 q 469 825 417 825 q 613 792 543 825 q 736 703 682 760 q 823 569 790 646 q 856 401 856 492 m 653 401 q 636 503 653 457 q 590 581 619 549 q 519 631 560 614 q 428 649 478 649 q 354 635 396 649 q 285 601 313 622 l 285 215 q 432 156 350 156 q 520 174 479 156 q 590 224 561 192 q 636 302 619 257 q 653 401 653 347 z "},"⁊":{"ha":669,"x_min":56,"x_max":614,"o":"m 614 0 l 414 0 l 414 622 l 56 622 l 56 804 l 614 804 l 614 0 z "}}}
